<svg xmlns="http://www.w3.org/2000/svg" width="512" height="512" viewBox="0 0 512 512"><ellipse cx="256" cy="444" rx="100" ry="12" fill="#5A3E2E" opacity="0.14"></ellipse><path d="M 256 118 C 198 118 152 196 152 294 C 152 376 198 434 256 434 C 314 434 360 376 360 294 C 360 196 314 118 256 118 Z" fill="#EDF3F6"></path><ellipse cx="212" cy="196" rx="9" ry="7.2" fill="#CFDFE8"></ellipse><ellipse cx="296" cy="172" rx="7" ry="5.6000000000000005" fill="#CFDFE8"></ellipse><ellipse cx="322" cy="238" rx="6" ry="4.800000000000001" fill="#CFDFE8"></ellipse><ellipse cx="176" cy="262" rx="6" ry="4.800000000000001" fill="#CFDFE8"></ellipse><path d="M 196 281 Q 212 299 228 281" stroke="#4A332A" stroke-width="11" fill="none" stroke-linecap="round"></path><path d="M 284 281 Q 300 299 316 281" stroke="#4A332A" stroke-width="11" fill="none" stroke-linecap="round"></path><ellipse cx="196" cy="320" rx="16" ry="11.2" fill="#FFAB8E"></ellipse><ellipse cx="316" cy="320" rx="16" ry="11.2" fill="#FFAB8E"></ellipse></svg>