<svg xmlns="http://www.w3.org/2000/svg" width="512" height="512" viewBox="0 0 512 512"><ellipse cx="256" cy="446" rx="104" ry="12" fill="#5A3E2E" opacity="0.14"></ellipse><ellipse cx="122" cy="344" rx="26" ry="44" fill="#84A9C6" transform="rotate(26 122 344)"></ellipse><ellipse cx="390" cy="344" rx="26" ry="44" fill="#84A9C6" transform="rotate(-26 390 344)"></ellipse><ellipse cx="256" cy="312" rx="134" ry="128" fill="#9EC1DB"></ellipse><path d="M 174 224 C 174 172 206 140 256 140 C 306 140 338 172 338 224 L 316 246 L 296 222 L 276 246 L 256 222 L 236 246 L 216 222 L 196 246 Z" fill="#EDF3F6"></path><ellipse cx="222" cy="178" rx="6" ry="4.800000000000001" fill="#CFDFE8"></ellipse><ellipse cx="288" cy="170" rx="7" ry="5.6000000000000005" fill="#CFDFE8"></ellipse><circle cx="214" cy="306" r="14" fill="#4A332A"></circle><circle cx="219.04" cy="300.96" r="4.48" fill="#FFF"></circle><circle cx="298" cy="306" r="14" fill="#4A332A"></circle><circle cx="303.04" cy="300.96" r="4.48" fill="#FFF"></circle><path d="M 241 336 Q 256 324 271 336 Q 256 350 241 336 Z" fill="#F2913D"></path><ellipse cx="186" cy="340" rx="16" ry="11.2" fill="#FFAB8E"></ellipse><ellipse cx="326" cy="340" rx="16" ry="11.2" fill="#FFAB8E"></ellipse></svg>