<svg xmlns="http://www.w3.org/2000/svg" width="512" height="512" viewBox="0 0 512 512"><ellipse cx="256" cy="444" rx="110" ry="12" fill="#5A3E2E" opacity="0.14"></ellipse><rect x="203" y="418" width="38" height="16" rx="8" fill="#F2913D"></rect><rect x="271" y="418" width="38" height="16" rx="8" fill="#F2913D"></rect><ellipse cx="134" cy="310" rx="26" ry="50" fill="#84A9C6" transform="rotate(22 134 310)"></ellipse><ellipse cx="378" cy="310" rx="26" ry="50" fill="#84A9C6" transform="rotate(-22 378 310)"></ellipse><ellipse cx="256" cy="308" rx="130" ry="132" fill="#9EC1DB"></ellipse><ellipse cx="256" cy="356" rx="76" ry="72" fill="#FFF7EA"></ellipse><circle cx="212" cy="278" r="14" fill="#4A332A"></circle><circle cx="217.04" cy="272.96" r="4.48" fill="#FFF"></circle><circle cx="300" cy="278" r="14" fill="#4A332A"></circle><circle cx="305.04" cy="272.96" r="4.48" fill="#FFF"></circle><path d="M 241 306 Q 256 294 271 306 Q 256 320 241 306 Z" fill="#F2913D"></path><ellipse cx="180" cy="310" rx="16" ry="11.2" fill="#FFAB8E"></ellipse><ellipse cx="332" cy="310" rx="16" ry="11.2" fill="#FFAB8E"></ellipse></svg>