<svg xmlns="http://www.w3.org/2000/svg" width="512" height="512" viewBox="0 0 512 512"><ellipse cx="256" cy="444" rx="112" ry="12" fill="#5A3E2E" opacity="0.14"></ellipse><rect x="203" y="424" width="38" height="16" rx="8" fill="#F2913D"></rect><rect x="271" y="424" width="38" height="16" rx="8" fill="#F2913D"></rect><ellipse cx="134" cy="300" rx="26" ry="56" fill="#84A9C6" transform="rotate(24 134 300)"></ellipse><ellipse cx="378" cy="300" rx="26" ry="56" fill="#84A9C6" transform="rotate(-24 378 300)"></ellipse><path d="M 256 118 C 196 118 156 166 152 240 C 148 316 160 424 256 424 C 352 424 364 316 360 240 C 356 166 316 118 256 118 Z" fill="#9EC1DB"></path><ellipse cx="256" cy="330" rx="84" ry="90" fill="#FFF7EA"></ellipse><circle cx="212" cy="244" r="14" fill="#4A332A"></circle><circle cx="217.04" cy="238.96" r="4.48" fill="#FFF"></circle><circle cx="300" cy="244" r="14" fill="#4A332A"></circle><circle cx="305.04" cy="238.96" r="4.48" fill="#FFF"></circle><path d="M 241 272 Q 256 260 271 272 Q 256 286 241 272 Z" fill="#F2913D"></path><ellipse cx="182" cy="280" rx="16" ry="11.2" fill="#FFAB8E"></ellipse><ellipse cx="330" cy="280" rx="16" ry="11.2" fill="#FFAB8E"></ellipse></svg>