<svg xmlns="http://www.w3.org/2000/svg" width="512" height="512" viewBox="0 0 512 512"><ellipse cx="256" cy="446" rx="114" ry="12" fill="#5A3E2E" opacity="0.14"></ellipse><rect x="201" y="430" width="38" height="16" rx="8" fill="#F2913D"></rect><rect x="273" y="430" width="38" height="16" rx="8" fill="#F2913D"></rect><ellipse cx="130" cy="290" rx="26" ry="64" fill="#84A9C6" transform="rotate(26 130 290)"></ellipse><ellipse cx="382" cy="290" rx="26" ry="64" fill="#84A9C6" transform="rotate(-26 382 290)"></ellipse><path d="M 256 108 C 192 108 150 158 146 236 C 142 316 156 428 256 428 C 356 428 370 316 366 236 C 362 158 320 108 256 108 Z" fill="#9EC1DB"></path><ellipse cx="256" cy="326" rx="92" ry="102" fill="#FFF7EA"></ellipse><circle cx="212" cy="236" r="14" fill="#4A332A"></circle><circle cx="217.04" cy="230.96" r="4.48" fill="#FFF"></circle><circle cx="300" cy="236" r="14" fill="#4A332A"></circle><circle cx="305.04" cy="230.96" r="4.48" fill="#FFF"></circle><path d="M 241 264 Q 256 252 271 264 Q 256 278 241 264 Z" fill="#F2913D"></path><ellipse cx="182" cy="272" rx="16" ry="11.2" fill="#FFAB8E"></ellipse><ellipse cx="330" cy="272" rx="16" ry="11.2" fill="#FFAB8E"></ellipse></svg>