<svg xmlns="http://www.w3.org/2000/svg" width="512" height="512" viewBox="0 0 512 512"><ellipse cx="256" cy="446" rx="114" ry="12" fill="#5A3E2E" opacity="0.14"></ellipse><rect x="201" y="430" width="38" height="16" rx="8" fill="#F2913D"></rect><rect x="273" y="430" width="38" height="16" rx="8" fill="#F2913D"></rect><ellipse cx="126" cy="276" rx="26" ry="66" fill="#84A9C6" transform="rotate(40 126 276)"></ellipse><ellipse cx="386" cy="276" rx="26" ry="66" fill="#84A9C6" transform="rotate(-40 386 276)"></ellipse><path d="M 256 108 C 192 108 150 158 146 236 C 142 316 156 428 256 428 C 356 428 370 316 366 236 C 362 158 320 108 256 108 Z" fill="#9EC1DB"></path><ellipse cx="256" cy="326" rx="92" ry="102" fill="#FFF7EA"></ellipse><path d="M 195 243 Q 212 221 229 243" stroke="#4A332A" stroke-width="11" fill="none" stroke-linecap="round"></path><path d="M 283 243 Q 300 221 317 243" stroke="#4A332A" stroke-width="11" fill="none" stroke-linecap="round"></path><path d="M 241 264 Q 256 252 271 264 Q 256 278 241 264 Z" fill="#F2913D"></path><ellipse cx="182" cy="272" rx="16" ry="11.2" fill="#FFAB8E"></ellipse><ellipse cx="330" cy="272" rx="16" ry="11.2" fill="#FFAB8E"></ellipse><path d="M 232 96 L 230.8 75.6 L 246.4 86.4 L 256 70.8 L 265.6 86.4 L 281.2 75.6 L 280 96 Q 256 102 232 96 Z" fill="#FFC531"></path><circle cx="256" cy="67.68" r="4.08" fill="#FFC531"></circle><path d="M 112 125 Q 115.6 136.4 127 140 Q 115.6 143.6 112 155 Q 108.4 143.6 97 140 Q 108.4 136.4 112 125 Z" fill="#FFBD33"></path><path d="M 400 100 Q 404.32 113.68 418 118 Q 404.32 122.32 400 136 Q 395.68 122.32 382 118 Q 395.68 113.68 400 100 Z" fill="#FFBD33"></path><path d="M 430 240 Q 432.4 247.6 440 250 Q 432.4 252.4 430 260 Q 427.6 252.4 420 250 Q 427.6 247.6 430 240 Z" fill="#FFBD33"></path><path d="M 84 222 Q 86.4 229.6 94 232 Q 86.4 234.4 84 242 Q 81.6 234.4 74 232 Q 81.6 229.6 84 222 Z" fill="#FFBD33"></path></svg>