<svg xmlns="http://www.w3.org/2000/svg" width="512" height="512" viewBox="0 0 512 512"><ellipse cx="256" cy="444" rx="100" ry="12" fill="#5A3E2E" opacity="0.14"></ellipse><g transform="rotate(-4 256 300)"><path d="M 256 118 C 198 118 152 196 152 294 C 152 376 198 434 256 434 C 314 434 360 376 360 294 C 360 196 314 118 256 118 Z" fill="#FCEBC4"></path><ellipse cx="200" cy="380" rx="7" ry="5.6" fill="#EBD5A0"></ellipse><ellipse cx="318" cy="372" rx="6" ry="4.8" fill="#EBD5A0"></ellipse><ellipse cx="214" cy="196" rx="8" ry="6.4" fill="#EBD5A0"></ellipse><path d="M 176 268 L 202 248 L 228 268 L 256 244 L 286 268 L 312 250 L 336 266" stroke="#5A3E2E" stroke-width="9" fill="none" stroke-linecap="round" stroke-linejoin="round"></path><path d="M 228 268 L 256 244 L 286 268 L 256 292 Z" fill="#5A3E2E" stroke="#5A3E2E" stroke-width="9" stroke-linejoin="round"></path><circle cx="256" cy="268" r="13.5" fill="#FFFFFF"></circle><circle cx="256" cy="268" r="8.5" fill="#4A332A"></circle><circle cx="259.5" cy="264.5" r="2.8" fill="#FFFFFF"></circle><ellipse cx="198" cy="336" rx="16" ry="11.2" fill="#FFAB8E"></ellipse><ellipse cx="318" cy="336" rx="16" ry="11.2" fill="#FFAB8E"></ellipse></g></svg>