<svg xmlns="http://www.w3.org/2000/svg" width="512" height="512" viewBox="0 0 512 512"><ellipse cx="256" cy="446" rx="104" ry="12" fill="#5A3E2E" opacity="0.14"></ellipse><ellipse cx="120" cy="344" rx="26" ry="48" fill="#F2C75C" transform="rotate(24 120 344)"></ellipse><ellipse cx="392" cy="344" rx="26" ry="48" fill="#F2C75C" transform="rotate(-24 392 344)"></ellipse><ellipse cx="256" cy="312" rx="134" ry="128" fill="#FFE08A"></ellipse><path d="M 174 224 C 174 172 206 140 256 140 C 306 140 338 172 338 224 L 316 246 L 296 222 L 276 246 L 256 222 L 236 246 L 216 222 L 196 246 Z" fill="#FCEBC4"></path><circle cx="214" cy="306" r="14" fill="#4A332A"></circle><circle cx="219.04" cy="300.96" r="4.48" fill="#FFF"></circle><circle cx="298" cy="306" r="14" fill="#4A332A"></circle><circle cx="303.04" cy="300.96" r="4.48" fill="#FFF"></circle><ellipse cx="256" cy="340" rx="27" ry="11.700000000000001" fill="#F2913D"></ellipse><path d="M 236.2 345.4 Q 256 352.6 275.8 345.4" stroke="#D97A28" stroke-width="3.6" fill="none" stroke-linecap="round"></path><ellipse cx="184" cy="342" rx="16" ry="11.2" fill="#FFAB8E"></ellipse><ellipse cx="328" cy="342" rx="16" ry="11.2" fill="#FFAB8E"></ellipse></svg>