<svg xmlns="http://www.w3.org/2000/svg" width="512" height="512" viewBox="0 0 512 512"><ellipse cx="256" cy="444" rx="110" ry="12" fill="#5A3E2E" opacity="0.14"></ellipse><rect x="203" y="418" width="38" height="16" rx="8" fill="#F2913D"></rect><rect x="271" y="418" width="38" height="16" rx="8" fill="#F2913D"></rect><ellipse cx="132" cy="316" rx="27" ry="52" fill="#F2C75C" transform="rotate(22 132 316)"></ellipse><ellipse cx="380" cy="316" rx="27" ry="52" fill="#F2C75C" transform="rotate(-22 380 316)"></ellipse><ellipse cx="256" cy="308" rx="130" ry="132" fill="#FFE08A"></ellipse><path d="M 232 186 Q 230 160 242 148" stroke="#F2C75C" stroke-width="9" fill="none" stroke-linecap="round"></path><path d="M 262 182 Q 266 156 280 148" stroke="#F2C75C" stroke-width="9" fill="none" stroke-linecap="round"></path><circle cx="212" cy="278" r="14" fill="#4A332A"></circle><circle cx="217.04" cy="272.96" r="4.48" fill="#FFF"></circle><circle cx="300" cy="278" r="14" fill="#4A332A"></circle><circle cx="305.04" cy="272.96" r="4.48" fill="#FFF"></circle><ellipse cx="256" cy="312" rx="31.5" ry="13.65" fill="#F2913D"></ellipse><path d="M 232.9 318.3 Q 256 326.7 279.1 318.3" stroke="#D97A28" stroke-width="4.2" fill="none" stroke-linecap="round"></path><ellipse cx="180" cy="312" rx="16" ry="11.2" fill="#FFAB8E"></ellipse><ellipse cx="332" cy="312" rx="16" ry="11.2" fill="#FFAB8E"></ellipse></svg>