<svg xmlns="http://www.w3.org/2000/svg" width="512" height="512" viewBox="0 0 512 512"><ellipse cx="256" cy="444" rx="112" ry="12" fill="#5A3E2E" opacity="0.14"></ellipse><rect x="203" y="424" width="38" height="16" rx="8" fill="#F2913D"></rect><rect x="271" y="424" width="38" height="16" rx="8" fill="#F2913D"></rect><ellipse cx="130" cy="306" rx="28" ry="56" fill="#EFD9A8" transform="rotate(24 130 306)"></ellipse><ellipse cx="382" cy="306" rx="28" ry="56" fill="#EFD9A8" transform="rotate(-24 382 306)"></ellipse><path d="M 256 118 C 196 118 156 166 152 240 C 148 316 160 424 256 424 C 352 424 364 316 360 240 C 356 166 316 118 256 118 Z" fill="#FCE9B4"></path><path d="M 236 124 Q 232 98 244 86" stroke="#EFD9A8" stroke-width="9" fill="none" stroke-linecap="round"></path><path d="M 268 122 Q 272 96 284 88" stroke="#EFD9A8" stroke-width="9" fill="none" stroke-linecap="round"></path><circle cx="212" cy="244" r="14" fill="#4A332A"></circle><circle cx="217.04" cy="238.96" r="4.48" fill="#FFF"></circle><circle cx="300" cy="244" r="14" fill="#4A332A"></circle><circle cx="305.04" cy="238.96" r="4.48" fill="#FFF"></circle><ellipse cx="256" cy="278" rx="33.6" ry="14.560000000000002" fill="#F2913D"></ellipse><path d="M 231.36 284.72 Q 256 293.68 280.64 284.72" stroke="#D97A28" stroke-width="4.48" fill="none" stroke-linecap="round"></path><ellipse cx="180" cy="282" rx="16" ry="11.2" fill="#FFAB8E"></ellipse><ellipse cx="332" cy="282" rx="16" ry="11.2" fill="#FFAB8E"></ellipse></svg>