<svg xmlns="http://www.w3.org/2000/svg" width="512" height="512" viewBox="0 0 512 512"><ellipse cx="256" cy="446" rx="114" ry="12" fill="#5A3E2E" opacity="0.14"></ellipse><rect x="201" y="430" width="38" height="16" rx="8" fill="#F2913D"></rect><rect x="273" y="430" width="38" height="16" rx="8" fill="#F2913D"></rect><path d="M 344 300 Q 396 272 396 218" stroke="#F0CFA0" stroke-width="16" fill="none" stroke-linecap="round"></path><ellipse cx="128" cy="298" rx="29" ry="60" fill="#F0CFA0" transform="rotate(24 128 298)"></ellipse><ellipse cx="384" cy="298" rx="29" ry="60" fill="#F0CFA0" transform="rotate(-24 384 298)"></ellipse><path d="M 256 108 C 192 108 150 158 146 236 C 142 316 156 428 256 428 C 356 428 370 316 366 236 C 362 158 320 108 256 108 Z" fill="#FBF3DC"></path><path d="M 238 114 Q 234 88 246 76" stroke="#F0CFA0" stroke-width="9" fill="none" stroke-linecap="round"></path><path d="M 270 112 Q 274 86 286 78" stroke="#F0CFA0" stroke-width="9" fill="none" stroke-linecap="round"></path><circle cx="212" cy="238" r="14" fill="#4A332A"></circle><circle cx="217.04" cy="232.96" r="4.48" fill="#FFF"></circle><circle cx="300" cy="238" r="14" fill="#4A332A"></circle><circle cx="305.04" cy="232.96" r="4.48" fill="#FFF"></circle><ellipse cx="256" cy="272" rx="36" ry="15.6" fill="#F2913D"></ellipse><path d="M 229.6 279.2 Q 256 288.8 282.4 279.2" stroke="#D97A28" stroke-width="4.8" fill="none" stroke-linecap="round"></path><ellipse cx="178" cy="276" rx="16" ry="11.2" fill="#FFAB8E"></ellipse><ellipse cx="334" cy="276" rx="16" ry="11.2" fill="#FFAB8E"></ellipse></svg>