<svg xmlns="http://www.w3.org/2000/svg" width="512" height="512" viewBox="0 0 512 512"><ellipse cx="256" cy="446" rx="114" ry="12" fill="#5A3E2E" opacity="0.14"></ellipse><rect x="201" y="430" width="38" height="16" rx="8" fill="#F2913D"></rect><rect x="273" y="430" width="38" height="16" rx="8" fill="#F2913D"></rect><path d="M 344 300 Q 396 272 396 218" stroke="#F0CFA0" stroke-width="16" fill="none" stroke-linecap="round"></path><ellipse cx="124" cy="284" rx="29" ry="62" fill="#F0CFA0" transform="rotate(42 124 284)"></ellipse><ellipse cx="388" cy="284" rx="29" ry="62" fill="#F0CFA0" transform="rotate(-42 388 284)"></ellipse><path d="M 256 108 C 192 108 150 158 146 236 C 142 316 156 428 256 428 C 356 428 370 316 366 236 C 362 158 320 108 256 108 Z" fill="#FBF3DC"></path><path d="M 238 114 Q 234 88 246 76" stroke="#F0CFA0" stroke-width="9" fill="none" stroke-linecap="round"></path><path d="M 270 112 Q 274 86 286 78" stroke="#F0CFA0" stroke-width="9" fill="none" stroke-linecap="round"></path><path d="M 195 245 Q 212 223 229 245" stroke="#4A332A" stroke-width="11" fill="none" stroke-linecap="round"></path><path d="M 283 245 Q 300 223 317 245" stroke="#4A332A" stroke-width="11" fill="none" stroke-linecap="round"></path><ellipse cx="256" cy="272" rx="36" ry="15.6" fill="#F2913D"></ellipse><path d="M 229.6 279.2 Q 256 288.8 282.4 279.2" stroke="#D97A28" stroke-width="4.8" fill="none" stroke-linecap="round"></path><ellipse cx="178" cy="276" rx="16" ry="11.2" fill="#FFAB8E"></ellipse><ellipse cx="334" cy="276" rx="16" ry="11.2" fill="#FFAB8E"></ellipse><path d="M 232 96 L 230.8 75.6 L 246.4 86.4 L 256 70.8 L 265.6 86.4 L 281.2 75.6 L 280 96 Q 256 102 232 96 Z" fill="#FFC531"></path><circle cx="256" cy="67.68" r="4.08" fill="#FFC531"></circle><path d="M 112 125 Q 115.6 136.4 127 140 Q 115.6 143.6 112 155 Q 108.4 143.6 97 140 Q 108.4 136.4 112 125 Z" fill="#FFBD33"></path><path d="M 400 100 Q 404.32 113.68 418 118 Q 404.32 122.32 400 136 Q 395.68 122.32 382 118 Q 395.68 113.68 400 100 Z" fill="#FFBD33"></path><path d="M 430 240 Q 432.4 247.6 440 250 Q 432.4 252.4 430 260 Q 427.6 252.4 420 250 Q 427.6 247.6 430 240 Z" fill="#FFBD33"></path><path d="M 84 222 Q 86.4 229.6 94 232 Q 86.4 234.4 84 242 Q 81.6 234.4 74 232 Q 81.6 229.6 84 222 Z" fill="#FFBD33"></path></svg>