<svg xmlns="http://www.w3.org/2000/svg" width="512" height="512" viewBox="0 0 512 512"><ellipse cx="256" cy="442" rx="110" ry="12" fill="#5A3E2E" opacity="0.1"></ellipse><circle cx="256" cy="354" r="98" fill="#FBF8F2" stroke="#E4EBF2" stroke-width="5"></circle><circle cx="256" cy="202" r="76" fill="#FBF8F2" stroke="#E4EBF2" stroke-width="5"></circle><path d="M 196 264 Q 256 292 316 264 L 316 286 Q 256 312 196 286 Z" fill="#E4574D"></path><rect x="286" y="278" width="26" height="58" rx="10" fill="#E4574D"></rect><path d="M 290 330 L 290 344 M 299 332 L 299 346 M 308 330 L 308 344" stroke="#C43D35" stroke-width="5" stroke-linecap="round"></path><circle cx="230" cy="194" r="11" fill="#4A332A"></circle><circle cx="233.96" cy="190.04" r="3.52" fill="#FFF"></circle><circle cx="282" cy="194" r="11" fill="#4A332A"></circle><circle cx="285.96" cy="190.04" r="3.52" fill="#FFF"></circle><path d="M 249 216 L 263 216 L 256 242 Z" fill="#F2913D" stroke="#F2913D" stroke-width="5" stroke-linejoin="round"></path><ellipse cx="204" cy="220" rx="10" ry="7" fill="#F8C4CE"></ellipse><ellipse cx="308" cy="220" rx="10" ry="7" fill="#F8C4CE"></ellipse></svg>