<svg xmlns="http://www.w3.org/2000/svg" width="512" height="512" viewBox="0 0 512 512"><ellipse cx="256" cy="442" rx="110" ry="12" fill="#5A3E2E" opacity="0.1"></ellipse><path d="M 162 330 L 108 300 M 130 316 L 118 336 M 134 308 L 106 296" stroke="#8A6248" stroke-width="9" stroke-linecap="round"></path><path d="M 350 330 L 404 300 M 382 316 L 394 336 M 378 308 L 406 296" stroke="#8A6248" stroke-width="9" stroke-linecap="round"></path><circle cx="256" cy="354" r="98" fill="#FBF8F2" stroke="#E4EBF2" stroke-width="5"></circle><circle cx="256" cy="202" r="76" fill="#FBF8F2" stroke="#E4EBF2" stroke-width="5"></circle><path d="M 196 264 Q 256 292 316 264 L 316 286 Q 256 312 196 286 Z" fill="#E4574D"></path><rect x="286" y="278" width="26" height="58" rx="10" fill="#E4574D"></rect><circle cx="256" cy="330" r="9" fill="#4A332A"></circle><circle cx="256" cy="368" r="9" fill="#4A332A"></circle><circle cx="256" cy="406" r="9" fill="#4A332A"></circle><circle cx="230" cy="194" r="11" fill="#4A332A"></circle><circle cx="233.96" cy="190.04" r="3.52" fill="#FFF"></circle><circle cx="282" cy="194" r="11" fill="#4A332A"></circle><circle cx="285.96" cy="190.04" r="3.52" fill="#FFF"></circle><path d="M 249 216 L 263 216 L 256 242 Z" fill="#F2913D" stroke="#F2913D" stroke-width="5" stroke-linejoin="round"></path><ellipse cx="204" cy="220" rx="10" ry="7" fill="#F8C4CE"></ellipse><ellipse cx="308" cy="220" rx="10" ry="7" fill="#F8C4CE"></ellipse></svg>