<svg xmlns="http://www.w3.org/2000/svg" width="512" height="512" viewBox="0 0 512 512"><ellipse cx="256" cy="442" rx="110" ry="12" fill="#5A3E2E" opacity="0.1"></ellipse><path d="M 162 330 L 108 300 M 130 316 L 118 336" stroke="#8A6248" stroke-width="9" stroke-linecap="round"></path><path d="M 350 330 L 404 300 M 382 316 L 394 336" stroke="#8A6248" stroke-width="9" stroke-linecap="round"></path><circle cx="256" cy="354" r="98" fill="#FBF8F2" stroke="#E4EBF2" stroke-width="5"></circle><circle cx="256" cy="202" r="76" fill="#FBF8F2" stroke="#E4EBF2" stroke-width="5"></circle><path d="M 190 160 Q 200 96 256 96 Q 312 96 322 160 Z" fill="#9EC1DB"></path><rect x="182" y="148" width="148" height="26" rx="13" fill="#8AB0CE"></rect><circle cx="256" cy="88" r="17" fill="#FBF6EE"></circle><path d="M 196 264 Q 256 292 316 264 L 316 286 Q 256 312 196 286 Z" fill="#E4574D"></path><rect x="286" y="278" width="26" height="58" rx="10" fill="#E4574D"></rect><circle cx="256" cy="330" r="9" fill="#4A332A"></circle><circle cx="256" cy="368" r="9" fill="#4A332A"></circle><path d="M 218 203 Q 230 181 242 203" stroke="#4A332A" stroke-width="11" fill="none" stroke-linecap="round"></path><path d="M 270 203 Q 282 181 294 203" stroke="#4A332A" stroke-width="11" fill="none" stroke-linecap="round"></path><path d="M 249 218 L 263 218 L 256 244 Z" fill="#F2913D" stroke="#F2913D" stroke-width="5" stroke-linejoin="round"></path><ellipse cx="204" cy="222" rx="10" ry="7" fill="#F8C4CE"></ellipse><ellipse cx="308" cy="222" rx="10" ry="7" fill="#F8C4CE"></ellipse></svg>