<svg xmlns="http://www.w3.org/2000/svg" width="512" height="512" viewBox="0 0 512 512"><ellipse cx="256" cy="442" rx="110" ry="12" fill="#5A3E2E" opacity="0.1"></ellipse><path d="M 162 330 L 108 300 M 130 316 L 118 336" stroke="#8A6248" stroke-width="9" stroke-linecap="round"></path><path d="M 350 330 L 404 300 M 382 316 L 394 336" stroke="#8A6248" stroke-width="9" stroke-linecap="round"></path><circle cx="256" cy="354" r="98" fill="#FBF8F2" stroke="#E4EBF2" stroke-width="5"></circle><circle cx="256" cy="202" r="76" fill="#FBF8F2" stroke="#E4EBF2" stroke-width="5"></circle><path d="M 196 264 Q 256 292 316 264 L 316 286 Q 256 312 196 286 Z" fill="#E4574D"></path><rect x="286" y="278" width="26" height="58" rx="10" fill="#E4574D"></rect><circle cx="256" cy="330" r="9" fill="#4A332A"></circle><circle cx="256" cy="368" r="9" fill="#4A332A"></circle><path d="M 218 203 Q 230 181 242 203" stroke="#4A332A" stroke-width="11" fill="none" stroke-linecap="round"></path><path d="M 270 203 Q 282 181 294 203" stroke="#4A332A" stroke-width="11" fill="none" stroke-linecap="round"></path><path d="M 249 218 L 263 218 L 256 244 Z" fill="#F2913D" stroke="#F2913D" stroke-width="5" stroke-linejoin="round"></path><ellipse cx="204" cy="222" rx="10" ry="7" fill="#F8C4CE"></ellipse><ellipse cx="308" cy="222" rx="10" ry="7" fill="#F8C4CE"></ellipse><path d="M 233 132 L 231.85 112.45 L 246.8 122.8 L 256 107.85 L 265.2 122.8 L 280.15 112.45 L 279 132 Q 256 137.75 233 132 Z" fill="#FFC531"></path><circle cx="256" cy="104.86" r="3.91" fill="#FFC531"></circle><path d="M 112 125 Q 115.6 136.4 127 140 Q 115.6 143.6 112 155 Q 108.4 143.6 97 140 Q 108.4 136.4 112 125 Z" fill="#FFBD33"></path><path d="M 400 100 Q 404.32 113.68 418 118 Q 404.32 122.32 400 136 Q 395.68 122.32 382 118 Q 395.68 113.68 400 100 Z" fill="#FFBD33"></path><path d="M 430 240 Q 432.4 247.6 440 250 Q 432.4 252.4 430 260 Q 427.6 252.4 420 250 Q 427.6 247.6 430 240 Z" fill="#FFBD33"></path><path d="M 84 222 Q 86.4 229.6 94 232 Q 86.4 234.4 84 242 Q 81.6 234.4 74 232 Q 81.6 229.6 84 222 Z" fill="#FFBD33"></path></svg>