<svg xmlns="http://www.w3.org/2000/svg" width="512" height="512" viewBox="0 0 512 512"><ellipse cx="256" cy="430" rx="120" ry="12" fill="#5A3E2E" opacity="0.11"></ellipse><path d="M 130 418 Q 130 330 210 330 L 330 330 Q 400 336 400 384 Q 400 418 356 418 Z" fill="#F7E3C8"></path><circle cx="186" cy="282" r="52" fill="#F7E3C8"></circle><circle cx="320" cy="352" r="44" fill="#E8A55F"></circle><circle cx="320" cy="352" r="27.28" fill="none" stroke="#C97F45" stroke-width="7"></circle><circle cx="320" cy="352" r="12.32" fill="none" stroke="#C97F45" stroke-width="6"></circle><path d="M 347.28 352 Q 359.6 369.6 346.4 387.2" stroke="#C97F45" stroke-width="7" fill="none" stroke-linecap="round"></path><path d="M 172 236 L 166 214 M 202 236 L 208 214" stroke="#F7E3C8" stroke-width="10" stroke-linecap="round"></path><circle cx="168" cy="278" r="11" fill="#4A332A"></circle><circle cx="171.96" cy="274.04" r="3.52" fill="#FFF"></circle><circle cx="206" cy="278" r="11" fill="#4A332A"></circle><circle cx="209.96" cy="274.04" r="3.52" fill="#FFF"></circle><path d="M 178 300 Q 187 306.3 196 300" stroke="#4A332A" stroke-width="6" fill="none" stroke-linecap="round"></path><ellipse cx="152" cy="298" rx="9" ry="6.3" fill="#FFAB8E"></ellipse><ellipse cx="222" cy="298" rx="9" ry="6.3" fill="#FFAB8E"></ellipse></svg>