<svg xmlns="http://www.w3.org/2000/svg" width="512" height="512" viewBox="0 0 512 512"><ellipse cx="256" cy="434" rx="124" ry="12" fill="#5A3E2E" opacity="0.11"></ellipse><path d="M 126 422 Q 126 330 208 330 L 334 330 Q 404 338 404 388 Q 404 422 358 422 Z" fill="#F7E3C8"></path><circle cx="182" cy="276" r="54" fill="#F7E3C8"></circle><circle cx="316" cy="338" r="58" fill="#E8A55F"></circle><circle cx="316" cy="338" r="35.96" fill="none" stroke="#C97F45" stroke-width="7"></circle><circle cx="316" cy="338" r="16.240000000000002" fill="none" stroke="#C97F45" stroke-width="6"></circle><path d="M 351.96 338 Q 368.2 361.2 350.8 384.4" stroke="#C97F45" stroke-width="7" fill="none" stroke-linecap="round"></path><path d="M 168 232 Q 162 208 158 192" stroke="#F7E3C8" stroke-width="11" fill="none" stroke-linecap="round"></path><circle cx="158" cy="192" r="10" fill="#F7E3C8"></circle><circle cx="158" cy="192" r="4.5" fill="#4A332A"></circle><path d="M 198 232 Q 204 208 208 192" stroke="#F7E3C8" stroke-width="11" fill="none" stroke-linecap="round"></path><circle cx="208" cy="192" r="10" fill="#F7E3C8"></circle><circle cx="208" cy="192" r="4.5" fill="#4A332A"></circle><circle cx="164" cy="274" r="11" fill="#4A332A"></circle><circle cx="167.96" cy="270.04" r="3.52" fill="#FFF"></circle><circle cx="202" cy="274" r="11" fill="#4A332A"></circle><circle cx="205.96" cy="270.04" r="3.52" fill="#FFF"></circle><path d="M 174 296 Q 183 302.3 192 296" stroke="#4A332A" stroke-width="6" fill="none" stroke-linecap="round"></path><ellipse cx="148" cy="294" rx="9" ry="6.3" fill="#FFAB8E"></ellipse><ellipse cx="218" cy="294" rx="9" ry="6.3" fill="#FFAB8E"></ellipse></svg>