<svg xmlns="http://www.w3.org/2000/svg" width="512" height="512" viewBox="0 0 512 512"><ellipse cx="256" cy="438" rx="128" ry="12" fill="#5A3E2E" opacity="0.11"></ellipse><path d="M 122 426 Q 122 332 206 332 L 338 332 Q 408 340 408 392 Q 408 426 360 426 Z" fill="#F7E3C8"></path><circle cx="178" cy="272" r="56" fill="#F7E3C8"></circle><circle cx="314" cy="326" r="72" fill="#E8A55F"></circle><circle cx="314" cy="326" r="44.64" fill="none" stroke="#C97F45" stroke-width="7"></circle><circle cx="314" cy="326" r="20.160000000000004" fill="none" stroke="#C97F45" stroke-width="6"></circle><path d="M 358.64 326 Q 378.8 354.8 357.2 383.6" stroke="#C97F45" stroke-width="7" fill="none" stroke-linecap="round"></path><path d="M 164 226 Q 158 198.4 154 180" stroke="#F7E3C8" stroke-width="11" fill="none" stroke-linecap="round"></path><circle cx="154" cy="180" r="11" fill="#F7E3C8"></circle><circle cx="154" cy="180" r="4.95" fill="#4A332A"></circle><path d="M 194 226 Q 200 198.4 204 180" stroke="#F7E3C8" stroke-width="11" fill="none" stroke-linecap="round"></path><circle cx="204" cy="180" r="11" fill="#F7E3C8"></circle><circle cx="204" cy="180" r="4.95" fill="#4A332A"></circle><circle cx="160" cy="270" r="12" fill="#4A332A"></circle><circle cx="164.32" cy="265.68" r="3.84" fill="#FFF"></circle><circle cx="200" cy="270" r="12" fill="#4A332A"></circle><circle cx="204.32" cy="265.68" r="3.84" fill="#FFF"></circle><path d="M 170 294 Q 180 301 190 294" stroke="#4A332A" stroke-width="6" fill="none" stroke-linecap="round"></path><ellipse cx="144" cy="292" rx="10" ry="7" fill="#FFAB8E"></ellipse><ellipse cx="216" cy="292" rx="10" ry="7" fill="#FFAB8E"></ellipse></svg>