<svg xmlns="http://www.w3.org/2000/svg" width="512" height="512" viewBox="0 0 512 512"><ellipse cx="256" cy="440" rx="130" ry="12" fill="#5A3E2E" opacity="0.12"></ellipse><path d="M 118 428 Q 118 334 204 334 L 340 334 Q 410 342 410 394 Q 410 428 362 428 Z" fill="#F7E3C8"></path><circle cx="174" cy="268" r="58" fill="#F7E3C8"></circle><circle cx="312" cy="312" r="84" fill="#E8A55F"></circle><circle cx="312" cy="312" r="52.08" fill="none" stroke="#C97F45" stroke-width="7"></circle><circle cx="312" cy="312" r="23.520000000000003" fill="none" stroke="#C97F45" stroke-width="6"></circle><path d="M 364.08 312 Q 387.6 345.6 362.4 379.2" stroke="#C97F45" stroke-width="7" fill="none" stroke-linecap="round"></path><path d="M 160 220 Q 154 187.6 150 166" stroke="#F7E3C8" stroke-width="11" fill="none" stroke-linecap="round"></path><circle cx="150" cy="166" r="12" fill="#F7E3C8"></circle><circle cx="150" cy="166" r="5.4" fill="#4A332A"></circle><path d="M 190 220 Q 196 187.6 200 166" stroke="#F7E3C8" stroke-width="11" fill="none" stroke-linecap="round"></path><circle cx="200" cy="166" r="12" fill="#F7E3C8"></circle><circle cx="200" cy="166" r="5.4" fill="#4A332A"></circle><path d="M 144 275 Q 156 253 168 275" stroke="#4A332A" stroke-width="11" fill="none" stroke-linecap="round"></path><path d="M 186 275 Q 198 253 210 275" stroke="#4A332A" stroke-width="11" fill="none" stroke-linecap="round"></path><path d="M 167 292 Q 177 299 187 292" stroke="#4A332A" stroke-width="6" fill="none" stroke-linecap="round"></path><ellipse cx="140" cy="290" rx="10" ry="7" fill="#FFAB8E"></ellipse><ellipse cx="214" cy="290" rx="10" ry="7" fill="#FFAB8E"></ellipse></svg>