<svg xmlns="http://www.w3.org/2000/svg" width="512" height="512" viewBox="0 0 512 512"><ellipse cx="256" cy="442" rx="132" ry="12" fill="#5A3E2E" opacity="0.12"></ellipse><path d="M 114 430 Q 114 336 202 336 L 344 336 Q 414 344 414 396 Q 414 430 364 430 Z" fill="#F7E3C8"></path><circle cx="170" cy="264" r="60" fill="#F7E3C8"></circle><circle cx="310" cy="300" r="96" fill="#E8A55F"></circle><circle cx="310" cy="300" r="59.519999999999996" fill="none" stroke="#C97F45" stroke-width="7"></circle><circle cx="310" cy="300" r="26.880000000000003" fill="none" stroke="#C97F45" stroke-width="6"></circle><path d="M 369.52 300 Q 396.4 338.4 367.6 376.8" stroke="#C97F45" stroke-width="7" fill="none" stroke-linecap="round"></path><path d="M 156 214 Q 150 178 146 154" stroke="#F7E3C8" stroke-width="11" fill="none" stroke-linecap="round"></path><circle cx="146" cy="154" r="13" fill="#F7E3C8"></circle><circle cx="146" cy="154" r="5.8500000000000005" fill="#4A332A"></circle><path d="M 186 214 Q 192 178 196 154" stroke="#F7E3C8" stroke-width="11" fill="none" stroke-linecap="round"></path><circle cx="196" cy="154" r="13" fill="#F7E3C8"></circle><circle cx="196" cy="154" r="5.8500000000000005" fill="#4A332A"></circle><circle cx="152" cy="262" r="12" fill="#4A332A"></circle><circle cx="156.32" cy="257.68" r="3.84" fill="#FFF"></circle><circle cx="194" cy="262" r="12" fill="#4A332A"></circle><circle cx="198.32" cy="257.68" r="3.84" fill="#FFF"></circle><path d="M 163 288 Q 173 295 183 288" stroke="#4A332A" stroke-width="6" fill="none" stroke-linecap="round"></path><ellipse cx="136" cy="286" rx="10" ry="7" fill="#FFAB8E"></ellipse><ellipse cx="212" cy="286" rx="10" ry="7" fill="#FFAB8E"></ellipse></svg>