<svg xmlns="http://www.w3.org/2000/svg" width="512" height="512" viewBox="0 0 512 512"><ellipse cx="256" cy="442" rx="132" ry="12" fill="#5A3E2E" opacity="0.12"></ellipse><path d="M 114 430 Q 114 336 202 336 L 344 336 Q 414 344 414 396 Q 414 430 364 430 Z" fill="#F7E3C8"></path><circle cx="170" cy="264" r="60" fill="#F7E3C8"></circle><circle cx="310" cy="300" r="96" fill="#E8A55F"></circle><circle cx="310" cy="300" r="59.519999999999996" fill="none" stroke="#C97F45" stroke-width="7"></circle><circle cx="310" cy="300" r="26.880000000000003" fill="none" stroke="#C97F45" stroke-width="6"></circle><path d="M 369.52 300 Q 396.4 338.4 367.6 376.8" stroke="#C97F45" stroke-width="7" fill="none" stroke-linecap="round"></path><path d="M 156 214 Q 150 178 146 154" stroke="#F7E3C8" stroke-width="11" fill="none" stroke-linecap="round"></path><circle cx="146" cy="154" r="13" fill="#F7E3C8"></circle><circle cx="146" cy="154" r="5.8500000000000005" fill="#4A332A"></circle><path d="M 186 214 Q 192 178 196 154" stroke="#F7E3C8" stroke-width="11" fill="none" stroke-linecap="round"></path><circle cx="196" cy="154" r="13" fill="#F7E3C8"></circle><circle cx="196" cy="154" r="5.8500000000000005" fill="#4A332A"></circle><path d="M 140 269 Q 152 247 164 269" stroke="#4A332A" stroke-width="11" fill="none" stroke-linecap="round"></path><path d="M 182 269 Q 194 247 206 269" stroke="#4A332A" stroke-width="11" fill="none" stroke-linecap="round"></path><path d="M 162 290 Q 173 297.7 184 290" stroke="#4A332A" stroke-width="6" fill="none" stroke-linecap="round"></path><ellipse cx="136" cy="286" rx="10" ry="7" fill="#FFAB8E"></ellipse><ellipse cx="212" cy="286" rx="10" ry="7" fill="#FFAB8E"></ellipse><path d="M 286 182 L 284.8 161.6 L 300.4 172.4 L 310 156.8 L 319.6 172.4 L 335.2 161.6 L 334 182 Q 310 188 286 182 Z" fill="#FFC531"></path><circle cx="310" cy="153.68" r="4.08" fill="#FFC531"></circle><path d="M 98 126 Q 101.36 136.64 112 140 Q 101.36 143.36 98 154 Q 94.64 143.36 84 140 Q 94.64 136.64 98 126 Z" fill="#FFBD33"></path><path d="M 420 125 Q 423.6 136.4 435 140 Q 423.6 143.6 420 155 Q 416.4 143.6 405 140 Q 416.4 136.4 420 125 Z" fill="#FFBD33"></path><path d="M 80 230 Q 82.4 237.6 90 240 Q 82.4 242.4 80 250 Q 77.6 242.4 70 240 Q 77.6 237.6 80 230 Z" fill="#FFBD33"></path></svg>