<svg xmlns="http://www.w3.org/2000/svg" width="512" height="512" viewBox="0 0 512 512"><ellipse cx="256" cy="442" rx="96" ry="12" fill="#5A3E2E" opacity="0.08"></ellipse><path d="M 158 400 A 98 98 0 0 1 354 400" fill="none" stroke="#F8B9C4" stroke-width="13" stroke-linecap="round"></path><path d="M 182 400 A 74 74 0 0 1 330 400" fill="none" stroke="#FFD65C" stroke-width="13" stroke-linecap="round"></path><path d="M 206 400 A 50 50 0 0 1 306 400" fill="none" stroke="#A5D98F" stroke-width="13" stroke-linecap="round"></path><circle cx="150" cy="290" r="62" fill="#FBF6EC"></circle><circle cx="364" cy="290" r="62" fill="#FBF6EC"></circle><circle cx="216" cy="234" r="74" fill="#FBF6EC"></circle><circle cx="310" cy="240" r="68" fill="#FBF6EC"></circle><rect x="100" y="276" width="312" height="92" rx="46" fill="#FBF6EC"></rect><circle cx="222" cy="272" r="13" fill="#4A332A"></circle><circle cx="226.68" cy="267.32" r="4.16" fill="#FFF"></circle><circle cx="292" cy="272" r="13" fill="#4A332A"></circle><circle cx="296.68" cy="267.32" r="4.16" fill="#FFF"></circle><path d="M 245 300 Q 257 308.4 269 300" stroke="#4A332A" stroke-width="7" fill="none" stroke-linecap="round"></path><ellipse cx="184" cy="298" rx="12" ry="8.399999999999999" fill="#F8C4CE"></ellipse><ellipse cx="330" cy="298" rx="12" ry="8.399999999999999" fill="#F8C4CE"></ellipse></svg>