<svg xmlns="http://www.w3.org/2000/svg" width="512" height="512" viewBox="0 0 512 512"><ellipse cx="256" cy="436" rx="108" ry="12" fill="#5A3E2E" opacity="0.08"></ellipse><circle cx="374" cy="176" r="52" fill="#FFD65C"></circle><path d="M 374 106 L 374 86 M 430 132 L 446 118 M 444 176 L 466 176" stroke="#FFD65C" stroke-width="11" stroke-linecap="round"></path><circle cx="146" cy="308" r="64" fill="#FBF6EC"></circle><circle cx="366" cy="308" r="64" fill="#FBF6EC"></circle><circle cx="212" cy="250" r="78" fill="#FBF6EC"></circle><circle cx="312" cy="256" r="70" fill="#FBF6EC"></circle><rect x="94" y="292" width="324" height="96" rx="48" fill="#FBF6EC"></rect><path d="M 206 295 Q 220 273 234 295" stroke="#4A332A" stroke-width="11" fill="none" stroke-linecap="round"></path><path d="M 280 295 Q 294 273 308 295" stroke="#4A332A" stroke-width="11" fill="none" stroke-linecap="round"></path><path d="M 244 318 Q 257 327.1 270 318" stroke="#4A332A" stroke-width="7" fill="none" stroke-linecap="round"></path><ellipse cx="180" cy="314" rx="12" ry="8.399999999999999" fill="#F8C4CE"></ellipse><ellipse cx="334" cy="314" rx="12" ry="8.399999999999999" fill="#F8C4CE"></ellipse></svg>