<svg xmlns="http://www.w3.org/2000/svg" width="512" height="512" viewBox="0 0 512 512"><ellipse cx="256" cy="436" rx="108" ry="12" fill="#5A3E2E" opacity="0.08"></ellipse><circle cx="146" cy="308" r="64" fill="#FBF6EC"></circle><circle cx="366" cy="308" r="64" fill="#FBF6EC"></circle><circle cx="212" cy="250" r="78" fill="#FBF6EC"></circle><circle cx="312" cy="256" r="70" fill="#FBF6EC"></circle><rect x="94" y="292" width="324" height="96" rx="48" fill="#FBF6EC"></rect><path d="M 206 295 Q 220 273 234 295" stroke="#4A332A" stroke-width="11" fill="none" stroke-linecap="round"></path><path d="M 280 295 Q 294 273 308 295" stroke="#4A332A" stroke-width="11" fill="none" stroke-linecap="round"></path><path d="M 244 318 Q 257 327.1 270 318" stroke="#4A332A" stroke-width="7" fill="none" stroke-linecap="round"></path><ellipse cx="180" cy="314" rx="12" ry="8.399999999999999" fill="#F8C4CE"></ellipse><ellipse cx="334" cy="314" rx="12" ry="8.399999999999999" fill="#F8C4CE"></ellipse><path d="M 232 182 L 230.8 161.6 L 246.4 172.4 L 256 156.8 L 265.6 172.4 L 281.2 161.6 L 280 182 Q 256 188 232 182 Z" fill="#FFC531"></path><circle cx="256" cy="153.68" r="4.08" fill="#FFC531"></circle><path d="M 112 125 Q 115.6 136.4 127 140 Q 115.6 143.6 112 155 Q 108.4 143.6 97 140 Q 108.4 136.4 112 125 Z" fill="#FFBD33"></path><path d="M 400 100 Q 404.32 113.68 418 118 Q 404.32 122.32 400 136 Q 395.68 122.32 382 118 Q 395.68 113.68 400 100 Z" fill="#FFBD33"></path><path d="M 430 240 Q 432.4 247.6 440 250 Q 432.4 252.4 430 260 Q 427.6 252.4 420 250 Q 427.6 247.6 430 240 Z" fill="#FFBD33"></path><path d="M 84 222 Q 86.4 229.6 94 232 Q 86.4 234.4 84 242 Q 81.6 234.4 74 232 Q 81.6 229.6 84 222 Z" fill="#FFBD33"></path></svg>