<svg xmlns="http://www.w3.org/2000/svg" width="512" height="512" viewBox="0 0 512 512"><ellipse cx="256" cy="456" rx="100" ry="12" fill="#5A3E2E" opacity="0.1"></ellipse><ellipse cx="256" cy="258" rx="20" ry="40" fill="#8FC4A0" transform="rotate(0 256 296)"></ellipse><ellipse cx="256" cy="258" rx="20" ry="40" fill="#8FC4A0" transform="rotate(72 256 296)"></ellipse><ellipse cx="256" cy="258" rx="20" ry="40" fill="#8FC4A0" transform="rotate(144 256 296)"></ellipse><ellipse cx="256" cy="258" rx="20" ry="40" fill="#8FC4A0" transform="rotate(216 256 296)"></ellipse><ellipse cx="256" cy="258" rx="20" ry="40" fill="#8FC4A0" transform="rotate(288 256 296)"></ellipse><circle cx="256" cy="296" r="42" fill="#A8D8B8"></circle><circle cx="240" cy="292" r="9" fill="#4A332A"></circle><circle cx="243.24" cy="288.76" r="2.88" fill="#FFF"></circle><circle cx="272" cy="292" r="9" fill="#4A332A"></circle><circle cx="275.24" cy="288.76" r="2.88" fill="#FFF"></circle><path d="M 248 312 Q 256 317.6 264 312" stroke="#4A332A" stroke-width="5" fill="none" stroke-linecap="round"></path><ellipse cx="226" cy="308" rx="8" ry="5.6" fill="#FFAB8E"></ellipse><ellipse cx="286" cy="308" rx="8" ry="5.6" fill="#FFAB8E"></ellipse><ellipse cx="256" cy="356" rx="60" ry="11" fill="#8A6248"></ellipse><rect x="180" y="350" width="152" height="28" rx="13" fill="#D97F55"></rect><path d="M 192 378 L 208 444 Q 256 454 304 444 L 320 378 Z" fill="#E8946A"></path></svg>