<svg xmlns="http://www.w3.org/2000/svg" width="512" height="512" viewBox="0 0 512 512"><ellipse cx="256" cy="456" rx="102" ry="12" fill="#5A3E2E" opacity="0.1"></ellipse><ellipse cx="256" cy="232" rx="24" ry="50" fill="#8FC4A0" transform="rotate(0 256 282)"></ellipse><ellipse cx="256" cy="232" rx="24" ry="50" fill="#8FC4A0" transform="rotate(60 256 282)"></ellipse><ellipse cx="256" cy="232" rx="24" ry="50" fill="#8FC4A0" transform="rotate(120 256 282)"></ellipse><ellipse cx="256" cy="232" rx="24" ry="50" fill="#8FC4A0" transform="rotate(180 256 282)"></ellipse><ellipse cx="256" cy="232" rx="24" ry="50" fill="#8FC4A0" transform="rotate(240 256 282)"></ellipse><ellipse cx="256" cy="232" rx="24" ry="50" fill="#8FC4A0" transform="rotate(300 256 282)"></ellipse><circle cx="256" cy="282" r="50" fill="#A8D8B8"></circle><circle cx="238" cy="278" r="10" fill="#4A332A"></circle><circle cx="241.6" cy="274.4" r="3.2" fill="#FFF"></circle><circle cx="274" cy="278" r="10" fill="#4A332A"></circle><circle cx="277.6" cy="274.4" r="3.2" fill="#FFF"></circle><path d="M 247 300 Q 256 306.3 265 300" stroke="#4A332A" stroke-width="6" fill="none" stroke-linecap="round"></path><ellipse cx="222" cy="296" rx="9" ry="6.3" fill="#FFAB8E"></ellipse><ellipse cx="290" cy="296" rx="9" ry="6.3" fill="#FFAB8E"></ellipse><ellipse cx="256" cy="356" rx="60" ry="11" fill="#8A6248"></ellipse><rect x="180" y="350" width="152" height="28" rx="13" fill="#D97F55"></rect><path d="M 192 378 L 208 444 Q 256 454 304 444 L 320 378 Z" fill="#E8946A"></path></svg>