<svg xmlns="http://www.w3.org/2000/svg" width="512" height="512" viewBox="0 0 512 512"><ellipse cx="256" cy="456" rx="106" ry="12" fill="#5A3E2E" opacity="0.1"></ellipse><ellipse cx="256" cy="196" rx="26" ry="62" fill="#8FC4A0" transform="rotate(0 256 264)"></ellipse><ellipse cx="256" cy="196" rx="26" ry="62" fill="#8FC4A0" transform="rotate(45 256 264)"></ellipse><ellipse cx="256" cy="196" rx="26" ry="62" fill="#8FC4A0" transform="rotate(90 256 264)"></ellipse><ellipse cx="256" cy="196" rx="26" ry="62" fill="#8FC4A0" transform="rotate(135 256 264)"></ellipse><ellipse cx="256" cy="196" rx="26" ry="62" fill="#8FC4A0" transform="rotate(180 256 264)"></ellipse><ellipse cx="256" cy="196" rx="26" ry="62" fill="#8FC4A0" transform="rotate(225 256 264)"></ellipse><ellipse cx="256" cy="196" rx="26" ry="62" fill="#8FC4A0" transform="rotate(270 256 264)"></ellipse><ellipse cx="256" cy="196" rx="26" ry="62" fill="#8FC4A0" transform="rotate(315 256 264)"></ellipse><circle cx="256.0" cy="146.0" r="8" fill="#F49BB8"></circle><circle cx="339.4" cy="180.6" r="8" fill="#F49BB8"></circle><circle cx="374.0" cy="264.0" r="8" fill="#F49BB8"></circle><circle cx="339.4" cy="347.4" r="8" fill="#F49BB8"></circle><circle cx="256.0" cy="382.0" r="8" fill="#F49BB8"></circle><circle cx="172.6" cy="347.4" r="8" fill="#F49BB8"></circle><circle cx="138.0" cy="264.0" r="8" fill="#F49BB8"></circle><circle cx="172.6" cy="180.6" r="8" fill="#F49BB8"></circle><ellipse cx="256" cy="230" rx="20" ry="42" fill="#A8D8B8" transform="rotate(36 256 264)"></ellipse><ellipse cx="256" cy="230" rx="20" ry="42" fill="#A8D8B8" transform="rotate(108 256 264)"></ellipse><ellipse cx="256" cy="230" rx="20" ry="42" fill="#A8D8B8" transform="rotate(180 256 264)"></ellipse><ellipse cx="256" cy="230" rx="20" ry="42" fill="#A8D8B8" transform="rotate(252 256 264)"></ellipse><ellipse cx="256" cy="230" rx="20" ry="42" fill="#A8D8B8" transform="rotate(324 256 264)"></ellipse><circle cx="256" cy="264" r="52" fill="#A8D8B8"></circle><circle cx="238" cy="260" r="10" fill="#4A332A"></circle><circle cx="241.6" cy="256.4" r="3.2" fill="#FFF"></circle><circle cx="274" cy="260" r="10" fill="#4A332A"></circle><circle cx="277.6" cy="256.4" r="3.2" fill="#FFF"></circle><path d="M 247 282 Q 256 288.3 265 282" stroke="#4A332A" stroke-width="6" fill="none" stroke-linecap="round"></path><ellipse cx="222" cy="278" rx="9" ry="6.3" fill="#FFAB8E"></ellipse><ellipse cx="290" cy="278" rx="9" ry="6.3" fill="#FFAB8E"></ellipse><ellipse cx="256" cy="356" rx="60" ry="11" fill="#8A6248"></ellipse><rect x="180" y="350" width="152" height="28" rx="13" fill="#D97F55"></rect><path d="M 192 378 L 208 444 Q 256 454 304 444 L 320 378 Z" fill="#E8946A"></path></svg>