<svg xmlns="http://www.w3.org/2000/svg" width="512" height="512" viewBox="0 0 512 512"><ellipse cx="256" cy="456" rx="106" ry="12" fill="#5A3E2E" opacity="0.1"></ellipse><ellipse cx="256" cy="196" rx="26" ry="62" fill="#8FC4A0" transform="rotate(0 256 264)"></ellipse><ellipse cx="256" cy="196" rx="26" ry="62" fill="#8FC4A0" transform="rotate(45 256 264)"></ellipse><ellipse cx="256" cy="196" rx="26" ry="62" fill="#8FC4A0" transform="rotate(90 256 264)"></ellipse><ellipse cx="256" cy="196" rx="26" ry="62" fill="#8FC4A0" transform="rotate(135 256 264)"></ellipse><ellipse cx="256" cy="196" rx="26" ry="62" fill="#8FC4A0" transform="rotate(180 256 264)"></ellipse><ellipse cx="256" cy="196" rx="26" ry="62" fill="#8FC4A0" transform="rotate(225 256 264)"></ellipse><ellipse cx="256" cy="196" rx="26" ry="62" fill="#8FC4A0" transform="rotate(270 256 264)"></ellipse><ellipse cx="256" cy="196" rx="26" ry="62" fill="#8FC4A0" transform="rotate(315 256 264)"></ellipse><circle cx="256.0" cy="146.0" r="8" fill="#F49BB8"></circle><circle cx="339.4" cy="180.6" r="8" fill="#F49BB8"></circle><circle cx="374.0" cy="264.0" r="8" fill="#F49BB8"></circle><circle cx="339.4" cy="347.4" r="8" fill="#F49BB8"></circle><circle cx="256.0" cy="382.0" r="8" fill="#F49BB8"></circle><circle cx="172.6" cy="347.4" r="8" fill="#F49BB8"></circle><circle cx="138.0" cy="264.0" r="8" fill="#F49BB8"></circle><circle cx="172.6" cy="180.6" r="8" fill="#F49BB8"></circle><ellipse cx="256" cy="230" rx="20" ry="42" fill="#A8D8B8" transform="rotate(36 256 264)"></ellipse><ellipse cx="256" cy="230" rx="20" ry="42" fill="#A8D8B8" transform="rotate(108 256 264)"></ellipse><ellipse cx="256" cy="230" rx="20" ry="42" fill="#A8D8B8" transform="rotate(180 256 264)"></ellipse><ellipse cx="256" cy="230" rx="20" ry="42" fill="#A8D8B8" transform="rotate(252 256 264)"></ellipse><ellipse cx="256" cy="230" rx="20" ry="42" fill="#A8D8B8" transform="rotate(324 256 264)"></ellipse><circle cx="256" cy="264" r="52" fill="#A8D8B8"></circle><path d="M 300 214 Q 322 182 320 152" stroke="#8FC4A0" stroke-width="7" fill="none" stroke-linecap="round"></path><ellipse cx="320" cy="132" rx="9" ry="14" fill="#F49BB8" transform="rotate(0 320 148)"></ellipse><ellipse cx="320" cy="132" rx="9" ry="14" fill="#F49BB8" transform="rotate(72 320 148)"></ellipse><ellipse cx="320" cy="132" rx="9" ry="14" fill="#F49BB8" transform="rotate(144 320 148)"></ellipse><ellipse cx="320" cy="132" rx="9" ry="14" fill="#F49BB8" transform="rotate(216 320 148)"></ellipse><ellipse cx="320" cy="132" rx="9" ry="14" fill="#F49BB8" transform="rotate(288 320 148)"></ellipse><circle cx="320" cy="148" r="8" fill="#FFC531"></circle><path d="M 227 267 Q 238 245 249 267" stroke="#4A332A" stroke-width="11" fill="none" stroke-linecap="round"></path><path d="M 263 267 Q 274 245 285 267" stroke="#4A332A" stroke-width="11" fill="none" stroke-linecap="round"></path><path d="M 247 284 Q 256 290.3 265 284" stroke="#4A332A" stroke-width="6" fill="none" stroke-linecap="round"></path><ellipse cx="222" cy="278" rx="9" ry="6.3" fill="#FFAB8E"></ellipse><ellipse cx="290" cy="278" rx="9" ry="6.3" fill="#FFAB8E"></ellipse><path d="M 114 167 Q 117.12 176.88 127 180 Q 117.12 183.12 114 193 Q 110.88 183.12 101 180 Q 110.88 176.88 114 167 Z" fill="#FFBD33"></path><path d="M 408 186 Q 411.36 196.64 422 200 Q 411.36 203.36 408 214 Q 404.64 203.36 394 200 Q 404.64 196.64 408 186 Z" fill="#FFBD33"></path><path d="M 96 280 Q 98.4 287.6 106 290 Q 98.4 292.4 96 300 Q 93.6 292.4 86 290 Q 93.6 287.6 96 280 Z" fill="#FFBD33"></path></svg>