<svg xmlns="http://www.w3.org/2000/svg" width="512" height="512" viewBox="0 0 512 512"><ellipse cx="256" cy="452" rx="110" ry="12" fill="#5A3E2E" opacity="0.1"></ellipse><ellipse cx="256" cy="432" rx="120" ry="24" fill="#E9D4AE"></ellipse><path d="M 256 330 Q 246 274 268 248" stroke="#6FB05C" stroke-width="11" fill="none" stroke-linecap="round"></path><ellipse cx="238" cy="238" rx="26" ry="14" fill="#8FCB7A" transform="rotate(-38 238 238)"></ellipse><ellipse cx="292" cy="230" rx="26" ry="14" fill="#8FCB7A" transform="rotate(36 292 230)"></ellipse><ellipse cx="256" cy="380" rx="60" ry="72" fill="#B98A5E"></ellipse><path d="M 226 338 Q 256 322 286 338" stroke="#CFA476" stroke-width="10" fill="none" stroke-linecap="round"></path><circle cx="234" cy="378" r="11" fill="#4A332A"></circle><circle cx="237.96" cy="374.04" r="3.52" fill="#FFF"></circle><circle cx="282" cy="378" r="11" fill="#4A332A"></circle><circle cx="285.96" cy="374.04" r="3.52" fill="#FFF"></circle><path d="M 248 404 Q 258 411 268 404" stroke="#4A332A" stroke-width="6" fill="none" stroke-linecap="round"></path><ellipse cx="214" cy="400" rx="10" ry="7" fill="#FFAB8E"></ellipse><ellipse cx="300" cy="400" rx="10" ry="7" fill="#FFAB8E"></ellipse></svg>