<svg xmlns="http://www.w3.org/2000/svg" width="512" height="512" viewBox="0 0 512 512"><ellipse cx="256" cy="452" rx="112" ry="12" fill="#5A3E2E" opacity="0.1"></ellipse><ellipse cx="256" cy="432" rx="120" ry="24" fill="#E9D4AE"></ellipse><path d="M 256 428 Q 248 340 256 288" stroke="#6FB05C" stroke-width="13" fill="none" stroke-linecap="round"></path><ellipse cx="210" cy="368" rx="32" ry="17" fill="#8FCB7A" transform="rotate(-34 210 368)"></ellipse><ellipse cx="302" cy="356" rx="32" ry="17" fill="#8FCB7A" transform="rotate(34 302 356)"></ellipse><ellipse cx="218" cy="306" rx="28" ry="15" fill="#8FCB7A" transform="rotate(-28 218 306)"></ellipse><ellipse cx="296" cy="296" rx="28" ry="15" fill="#8FCB7A" transform="rotate(28 296 296)"></ellipse><circle cx="256" cy="234" r="64" fill="#A5D98F"></circle><circle cx="236" cy="228" r="12" fill="#4A332A"></circle><circle cx="240.32" cy="223.68" r="3.84" fill="#FFF"></circle><circle cx="278" cy="228" r="12" fill="#4A332A"></circle><circle cx="282.32" cy="223.68" r="3.84" fill="#FFF"></circle><path d="M 246 252 Q 257 259.7 268 252" stroke="#4A332A" stroke-width="6" fill="none" stroke-linecap="round"></path><ellipse cx="218" cy="250" rx="11" ry="7.699999999999999" fill="#FFAB8E"></ellipse><ellipse cx="296" cy="250" rx="11" ry="7.699999999999999" fill="#FFAB8E"></ellipse></svg>