<svg xmlns="http://www.w3.org/2000/svg" width="512" height="512" viewBox="0 0 512 512"><ellipse cx="256" cy="454" rx="120" ry="12" fill="#5A3E2E" opacity="0.11"></ellipse><ellipse cx="256" cy="432" rx="120" ry="24" fill="#E9D4AE"></ellipse><rect x="238" y="286" width="36" height="150" rx="16" fill="#A0764E"></rect><circle cx="176" cy="284" r="64" fill="#8FCB7A"></circle><circle cx="336" cy="284" r="64" fill="#8FCB7A"></circle><circle cx="256" cy="218" r="100" fill="#8FCB7A"></circle><circle cx="196" cy="176" r="13" fill="#F8B9C4"></circle><circle cx="312" cy="164" r="13" fill="#F8B9C4"></circle><circle cx="256" cy="132" r="13" fill="#F8B9C4"></circle><circle cx="150" cy="252" r="11" fill="#F8B9C4"></circle><circle cx="366" cy="248" r="11" fill="#F8B9C4"></circle><path d="M 212 221 Q 226 199 240 221" stroke="#4A332A" stroke-width="11" fill="none" stroke-linecap="round"></path><path d="M 274 221 Q 288 199 302 221" stroke="#4A332A" stroke-width="11" fill="none" stroke-linecap="round"></path><path d="M 236 246 Q 256 264 276 246" stroke="#4A332A" stroke-width="8" fill="none" stroke-linecap="round"></path><ellipse cx="200" cy="238" rx="12" ry="8.399999999999999" fill="#FFAB8E"></ellipse><ellipse cx="314" cy="238" rx="12" ry="8.399999999999999" fill="#FFAB8E"></ellipse><path d="M 116 136 Q 119.36 146.64 130 150 Q 119.36 153.36 116 164 Q 112.64 153.36 102 150 Q 112.64 146.64 116 136 Z" fill="#FFBD33"></path><path d="M 398 109 Q 402.08 121.92 415 126 Q 402.08 130.08 398 143 Q 393.92 130.08 381 126 Q 393.92 121.92 398 109 Z" fill="#FFBD33"></path><path d="M 426 244 Q 428.4 251.6 436 254 Q 428.4 256.4 426 264 Q 423.6 256.4 416 254 Q 423.6 251.6 426 244 Z" fill="#FFBD33"></path></svg>