<svg xmlns="http://www.w3.org/2000/svg" width="512" height="512" viewBox="0 0 512 512"><ellipse cx="256" cy="452" rx="108" ry="12" fill="#5A3E2E" opacity="0.1"></ellipse><ellipse cx="256" cy="432" rx="120" ry="24" fill="#E9D4AE"></ellipse><path d="M 256 428 Q 248 360 256 320" stroke="#5FA854" stroke-width="12" fill="none" stroke-linecap="round"></path><g transform="rotate(-90 206 278)"><path d="M 206 319.4 C 137 264.2 178.4 218.2 206 255 C 233.6 218.2 275 264.2 206 319.4 Z" fill="#7FC271"></path></g><g transform="rotate(90 306 278)"><path d="M 306 319.4 C 237 264.2 278.4 218.2 306 255 C 333.6 218.2 375 264.2 306 319.4 Z" fill="#7FC271"></path></g><circle cx="256" cy="290" r="30" fill="#7FC271"></circle><circle cx="244" cy="286" r="8" fill="#4A332A"></circle><circle cx="246.88" cy="283.12" r="2.56" fill="#FFF"></circle><circle cx="268" cy="286" r="8" fill="#4A332A"></circle><circle cx="270.88" cy="283.12" r="2.56" fill="#FFF"></circle><path d="M 249 304 Q 256 308.9 263 304" stroke="#4A332A" stroke-width="5" fill="none" stroke-linecap="round"></path><ellipse cx="232" cy="300" rx="7" ry="4.8999999999999995" fill="#FFAB8E"></ellipse><ellipse cx="280" cy="300" rx="7" ry="4.8999999999999995" fill="#FFAB8E"></ellipse></svg>