<svg xmlns="http://www.w3.org/2000/svg" width="512" height="512" viewBox="0 0 512 512"><ellipse cx="256" cy="452" rx="110" ry="12" fill="#5A3E2E" opacity="0.1"></ellipse><ellipse cx="256" cy="432" rx="120" ry="24" fill="#E9D4AE"></ellipse><path d="M 256 428 Q 246 366 256 316" stroke="#5FA854" stroke-width="13" fill="none" stroke-linecap="round"></path><g transform="rotate(0 256 204)"><path d="M 256 250.8 C 178 188.4 224.8 136.39999999999998 256 178 C 287.2 136.39999999999998 334 188.4 256 250.8 Z" fill="#7FC271"></path></g><g transform="rotate(-90 190 268)"><path d="M 190 314.8 C 112 252.4 158.8 200.39999999999998 190 242 C 221.2 200.39999999999998 268 252.4 190 314.8 Z" fill="#7FC271"></path></g><g transform="rotate(90 322 268)"><path d="M 322 314.8 C 244 252.4 290.8 200.39999999999998 322 242 C 353.2 200.39999999999998 400 252.4 322 314.8 Z" fill="#7FC271"></path></g><circle cx="256" cy="272" r="40" fill="#7FC271"></circle><circle cx="240" cy="268" r="10" fill="#4A332A"></circle><circle cx="243.6" cy="264.4" r="3.2" fill="#FFF"></circle><circle cx="272" cy="268" r="10" fill="#4A332A"></circle><circle cx="275.6" cy="264.4" r="3.2" fill="#FFF"></circle><path d="M 248 290 Q 256 295.6 264 290" stroke="#4A332A" stroke-width="6" fill="none" stroke-linecap="round"></path><ellipse cx="226" cy="286" rx="8" ry="5.6" fill="#FFAB8E"></ellipse><ellipse cx="286" cy="286" rx="8" ry="5.6" fill="#FFAB8E"></ellipse></svg>