<svg xmlns="http://www.w3.org/2000/svg" width="512" height="512" viewBox="0 0 512 512"><ellipse cx="256" cy="452" rx="112" ry="12" fill="#5A3E2E" opacity="0.1"></ellipse><ellipse cx="256" cy="432" rx="120" ry="24" fill="#E9D4AE"></ellipse><path d="M 256 428 Q 244 360 256 306" stroke="#5FA854" stroke-width="14" fill="none" stroke-linecap="round"></path><g transform="rotate(0 256 182)"><path d="M 256 237.8 C 163 163.4 218.8 101.39999999999999 256 151 C 293.2 101.39999999999999 349 163.4 256 237.8 Z" fill="#7FC271"></path></g><g transform="rotate(-90 178 258)"><path d="M 178 313.8 C 85 239.4 140.8 177.39999999999998 178 227 C 215.2 177.39999999999998 271 239.4 178 313.8 Z" fill="#7FC271"></path></g><g transform="rotate(90 334 258)"><path d="M 334 313.8 C 241 239.4 296.8 177.39999999999998 334 227 C 371.2 177.39999999999998 427 239.4 334 313.8 Z" fill="#7FC271"></path></g><circle cx="256" cy="262" r="48" fill="#7FC271"></circle><circle cx="238" cy="258" r="11" fill="#4A332A"></circle><circle cx="241.96" cy="254.04" r="3.52" fill="#FFF"></circle><circle cx="274" cy="258" r="11" fill="#4A332A"></circle><circle cx="277.96" cy="254.04" r="3.52" fill="#FFF"></circle><path d="M 247 282 Q 256 288.3 265 282" stroke="#4A332A" stroke-width="6" fill="none" stroke-linecap="round"></path><ellipse cx="222" cy="278" rx="9" ry="6.3" fill="#FFAB8E"></ellipse><ellipse cx="290" cy="278" rx="9" ry="6.3" fill="#FFAB8E"></ellipse></svg>