<svg xmlns="http://www.w3.org/2000/svg" width="512" height="512" viewBox="0 0 512 512"><ellipse cx="256" cy="454" rx="114" ry="12" fill="#5A3E2E" opacity="0.1"></ellipse><ellipse cx="256" cy="432" rx="120" ry="24" fill="#E9D4AE"></ellipse><path d="M 256 428 Q 242 358 256 300" stroke="#5FA854" stroke-width="14" fill="none" stroke-linecap="round"></path><g transform="rotate(-45 198 186)"><path d="M 198 238.2 C 111 168.6 163.2 110.6 198 157 C 232.8 110.6 285 168.6 198 238.2 Z" fill="#7FC271"></path></g><g transform="rotate(45 314 186)"><path d="M 314 238.2 C 227 168.6 279.2 110.6 314 157 C 348.8 110.6 401 168.6 314 238.2 Z" fill="#7FC271"></path></g><g transform="rotate(-135 198 300)"><path d="M 198 352.2 C 111 282.6 163.2 224.6 198 271 C 232.8 224.6 285 282.6 198 352.2 Z" fill="#7FC271"></path></g><g transform="rotate(135 314 300)"><path d="M 314 352.2 C 227 282.6 279.2 224.6 314 271 C 348.8 224.6 401 282.6 314 352.2 Z" fill="#7FC271"></path></g><circle cx="256" cy="242" r="48" fill="#7FC271"></circle><path d="M 227 245 Q 238 223 249 245" stroke="#4A332A" stroke-width="11" fill="none" stroke-linecap="round"></path><path d="M 263 245 Q 274 223 285 245" stroke="#4A332A" stroke-width="11" fill="none" stroke-linecap="round"></path><path d="M 246 264 Q 256 271 266 264" stroke="#4A332A" stroke-width="6" fill="none" stroke-linecap="round"></path><ellipse cx="222" cy="258" rx="9" ry="6.3" fill="#FFAB8E"></ellipse><ellipse cx="290" cy="258" rx="9" ry="6.3" fill="#FFAB8E"></ellipse><path d="M 150 130 L 150 154 M 138 142 L 162 142" stroke="#FFC531" stroke-width="7" stroke-linecap="round"></path><path d="M 114 167 Q 117.12 176.88 127 180 Q 117.12 183.12 114 193 Q 110.88 183.12 101 180 Q 110.88 176.88 114 167 Z" fill="#FFBD33"></path><path d="M 398 114 Q 401.84 126.16 414 130 Q 401.84 133.84 398 146 Q 394.16 133.84 382 130 Q 394.16 126.16 398 114 Z" fill="#FFBD33"></path><path d="M 420 250 Q 422.4 257.6 430 260 Q 422.4 262.4 420 270 Q 417.6 262.4 410 260 Q 417.6 257.6 420 250 Z" fill="#FFBD33"></path></svg>