<svg xmlns="http://www.w3.org/2000/svg" width="512" height="512" viewBox="0 0 512 512"><ellipse cx="256" cy="446" rx="106" ry="12" fill="#5A3E2E" opacity="0.14"></ellipse><path d="M 366 356 Q 408 344 420 316" stroke="#8FCB7A" stroke-width="26" fill="none" stroke-linecap="round"></path><ellipse cx="256" cy="312" rx="134" ry="128" fill="#8FCB7A"></ellipse><path d="M 174 224 C 174 172 206 140 256 140 C 306 140 338 172 338 224 L 316 246 L 296 222 L 276 246 L 256 222 L 236 246 L 216 222 L 196 246 Z" fill="#EDE8DA"></path><circle cx="214" cy="306" r="14" fill="#4A332A"></circle><circle cx="219.04" cy="300.96" r="4.48" fill="#FFF"></circle><circle cx="298" cy="306" r="14" fill="#4A332A"></circle><circle cx="303.04" cy="300.96" r="4.48" fill="#FFF"></circle><path d="M 243 338 Q 256 347.1 269 338" stroke="#4A332A" stroke-width="7" fill="none" stroke-linecap="round"></path><ellipse cx="184" cy="340" rx="16" ry="11.2" fill="#FFAB8E"></ellipse><ellipse cx="328" cy="340" rx="16" ry="11.2" fill="#FFAB8E"></ellipse></svg>