<svg xmlns="http://www.w3.org/2000/svg" width="512" height="512" viewBox="0 0 512 512"><ellipse cx="256" cy="446" rx="110" ry="12" fill="#5A3E2E" opacity="0.14"></ellipse><path d="M 174.2 211.6 L 165.4 175.7 L 195.4 197.3 Z" fill="#F2913D" stroke="#F2913D" stroke-width="8" stroke-linejoin="round"></path><path d="M 218.4 187.6 L 224.2 151.2 L 243.5 182.6 Z" fill="#F2913D" stroke="#F2913D" stroke-width="8" stroke-linejoin="round"></path><path d="M 268.5 182.6 L 287.8 151.2 L 293.6 187.6 Z" fill="#F2913D" stroke="#F2913D" stroke-width="8" stroke-linejoin="round"></path><path d="M 316.6 197.3 L 346.6 175.7 L 337.8 211.6 Z" fill="#F2913D" stroke="#F2913D" stroke-width="8" stroke-linejoin="round"></path><path d="M 368 350 Q 414 336 426 304" stroke="#8FCB7A" stroke-width="28" fill="none" stroke-linecap="round"></path><ellipse cx="256" cy="310" rx="132" ry="130" fill="#8FCB7A"></ellipse><ellipse cx="256" cy="376" rx="72" ry="52" fill="#EFF7E3"></ellipse><circle cx="212" cy="286" r="14" fill="#4A332A"></circle><circle cx="217.04" cy="280.96" r="4.48" fill="#FFF"></circle><circle cx="300" cy="286" r="14" fill="#4A332A"></circle><circle cx="305.04" cy="280.96" r="4.48" fill="#FFF"></circle><path d="M 243 318 Q 256 327.1 269 318" stroke="#4A332A" stroke-width="7" fill="none" stroke-linecap="round"></path><ellipse cx="180" cy="318" rx="16" ry="11.2" fill="#FFAB8E"></ellipse><ellipse cx="332" cy="318" rx="16" ry="11.2" fill="#FFAB8E"></ellipse></svg>