<svg xmlns="http://www.w3.org/2000/svg" width="512" height="512" viewBox="0 0 512 512"><ellipse cx="256" cy="448" rx="114" ry="12" fill="#5A3E2E" opacity="0.14"></ellipse><path d="M 158.3 217.2 L 139.6 176.7 L 177.9 199.6 Z" fill="#F2913D" stroke="#F2913D" stroke-width="8" stroke-linejoin="round"></path><path d="M 196.6 188.1 L 193.6 143.6 L 221.2 178.7 Z" fill="#F2913D" stroke="#F2913D" stroke-width="8" stroke-linejoin="round"></path><path d="M 242.8 174.7 L 256.0 132.0 L 269.2 174.7 Z" fill="#F2913D" stroke="#F2913D" stroke-width="8" stroke-linejoin="round"></path><path d="M 290.8 178.7 L 318.4 143.6 L 315.4 188.1 Z" fill="#F2913D" stroke="#F2913D" stroke-width="8" stroke-linejoin="round"></path><path d="M 334.1 199.6 L 372.4 176.7 L 353.7 217.2 Z" fill="#F2913D" stroke="#F2913D" stroke-width="8" stroke-linejoin="round"></path><path d="M 372 344 Q 424 326 434 288" stroke="#8FCB7A" stroke-width="32" fill="none" stroke-linecap="round"></path><rect x="201" y="424" width="38" height="16" rx="8" fill="#6FB05C"></rect><rect x="273" y="424" width="38" height="16" rx="8" fill="#6FB05C"></rect><ellipse cx="256" cy="306" rx="136" ry="136" fill="#8FCB7A"></ellipse><ellipse cx="256" cy="378" rx="78" ry="56" fill="#EFF7E3"></ellipse><circle cx="210" cy="280" r="14" fill="#4A332A"></circle><circle cx="215.04" cy="274.96" r="4.48" fill="#FFF"></circle><circle cx="302" cy="280" r="14" fill="#4A332A"></circle><circle cx="307.04" cy="274.96" r="4.48" fill="#FFF"></circle><path d="M 242 314 Q 256 323.8 270 314" stroke="#4A332A" stroke-width="7" fill="none" stroke-linecap="round"></path><ellipse cx="178" cy="312" rx="16" ry="11.2" fill="#FFAB8E"></ellipse><ellipse cx="334" cy="312" rx="16" ry="11.2" fill="#FFAB8E"></ellipse></svg>