<svg xmlns="http://www.w3.org/2000/svg" width="512" height="512" viewBox="0 0 512 512"><ellipse cx="256" cy="450" rx="118" ry="12" fill="#5A3E2E" opacity="0.14"></ellipse><path d="M 144.7 218.4 L 116.3 174.2 L 163.2 197.9 Z" fill="#F2913D" stroke="#F2913D" stroke-width="8" stroke-linejoin="round"></path><path d="M 177.8 186.3 L 165.4 135.3 L 201.9 173.0 Z" fill="#F2913D" stroke="#F2913D" stroke-width="8" stroke-linejoin="round"></path><path d="M 219.5 166.9 L 224.6 114.6 L 246.7 162.3 Z" fill="#F2913D" stroke="#F2913D" stroke-width="8" stroke-linejoin="round"></path><path d="M 265.3 162.3 L 287.4 114.6 L 292.5 166.9 Z" fill="#F2913D" stroke="#F2913D" stroke-width="8" stroke-linejoin="round"></path><path d="M 310.1 173.0 L 346.6 135.3 L 334.2 186.3 Z" fill="#F2913D" stroke="#F2913D" stroke-width="8" stroke-linejoin="round"></path><path d="M 348.8 197.9 L 395.7 174.2 L 367.3 218.4 Z" fill="#F2913D" stroke="#F2913D" stroke-width="8" stroke-linejoin="round"></path><path d="M 376 338 Q 434 316 442 272" stroke="#8FCB7A" stroke-width="36" fill="none" stroke-linecap="round"></path><rect x="199" y="430" width="38" height="16" rx="8" fill="#6FB05C"></rect><rect x="275" y="430" width="38" height="16" rx="8" fill="#6FB05C"></rect><ellipse cx="256" cy="300" rx="142" ry="142" fill="#8FCB7A"></ellipse><ellipse cx="256" cy="378" rx="84" ry="60" fill="#EFF7E3"></ellipse><circle cx="168" cy="248" r="10" fill="#6FB05C"></circle><circle cx="348" cy="252" r="9" fill="#6FB05C"></circle><path d="M 193 281 Q 210 259 227 281" stroke="#4A332A" stroke-width="11" fill="none" stroke-linecap="round"></path><path d="M 285 281 Q 302 259 319 281" stroke="#4A332A" stroke-width="11" fill="none" stroke-linecap="round"></path><path d="M 238 306 Q 256 322 274 306" stroke="#4A332A" stroke-width="9" fill="none" stroke-linecap="round"></path><ellipse cx="176" cy="306" rx="16" ry="11.2" fill="#FFAB8E"></ellipse><ellipse cx="336" cy="306" rx="16" ry="11.2" fill="#FFAB8E"></ellipse><path d="M 231 132 L 229.75 110.75 L 246 122 L 256 105.75 L 266 122 L 282.25 110.75 L 281 132 Q 256 138.25 231 132 Z" fill="#FFC531"></path><circle cx="256" cy="102.5" r="4.25" fill="#FFC531"></circle><path d="M 112 125 Q 115.6 136.4 127 140 Q 115.6 143.6 112 155 Q 108.4 143.6 97 140 Q 108.4 136.4 112 125 Z" fill="#FFBD33"></path><path d="M 400 100 Q 404.32 113.68 418 118 Q 404.32 122.32 400 136 Q 395.68 122.32 382 118 Q 395.68 113.68 400 100 Z" fill="#FFBD33"></path><path d="M 430 240 Q 432.4 247.6 440 250 Q 432.4 252.4 430 260 Q 427.6 252.4 420 250 Q 427.6 247.6 430 240 Z" fill="#FFBD33"></path><path d="M 84 222 Q 86.4 229.6 94 232 Q 86.4 234.4 84 242 Q 81.6 234.4 74 232 Q 81.6 229.6 84 222 Z" fill="#FFBD33"></path></svg>