<svg xmlns="http://www.w3.org/2000/svg" width="512" height="512" viewBox="0 0 512 512"><ellipse cx="256" cy="434" rx="96" ry="12" fill="#5A3E2E" opacity="0.09"></ellipse><path d="M 256 96 L 256 66 M 396 152 L 420 130 M 116 152 L 92 130 M 442 300 L 472 300 M 70 300 L 40 300" stroke="#FFE08A" stroke-width="12" stroke-linecap="round"></path><polygon points="256.0,158.0 295.4,237.8 383.4,250.6 319.7,312.7 334.8,400.4 256.0,359.0 177.2,400.4 192.3,312.7 128.6,250.6 216.6,237.8" fill="#FFC531" stroke="#FFC531" stroke-width="30" stroke-linejoin="round"></polygon><circle cx="230" cy="286" r="12" fill="#4A332A"></circle><circle cx="234.32" cy="281.68" r="3.84" fill="#FFF"></circle><circle cx="284" cy="286" r="12" fill="#4A332A"></circle><circle cx="288.32" cy="281.68" r="3.84" fill="#FFF"></circle><path d="M 247 314 Q 257 321 267 314" stroke="#4A332A" stroke-width="6" fill="none" stroke-linecap="round"></path><ellipse cx="206" cy="310" rx="11" ry="7.699999999999999" fill="#F9A44A"></ellipse><ellipse cx="308" cy="310" rx="11" ry="7.699999999999999" fill="#F9A44A"></ellipse></svg>