<svg xmlns="http://www.w3.org/2000/svg" width="512" height="512" viewBox="0 0 512 512"><ellipse cx="256" cy="436" rx="102" ry="12" fill="#5A3E2E" opacity="0.09"></ellipse><circle cx="256" cy="290" r="182" fill="#FFE08A" opacity="0.35"></circle><path d="M 256 84 L 256 52 M 402 148 L 428 124 M 110 148 L 84 124 M 450 300 L 482 300 M 62 300 L 30 300" stroke="#FFE08A" stroke-width="13" stroke-linecap="round"></path><polygon points="256.0,148.0 298.3,233.8 393.0,247.5 324.5,314.2 340.6,408.5 256.0,364.0 171.4,408.5 187.5,314.2 119.0,247.5 213.7,233.8" fill="#FFC531" stroke="#FFC531" stroke-width="30" stroke-linejoin="round"></polygon><path d="M 215 293 Q 228 271 241 293" stroke="#4A332A" stroke-width="11" fill="none" stroke-linecap="round"></path><path d="M 273 293 Q 286 271 299 293" stroke="#4A332A" stroke-width="11" fill="none" stroke-linecap="round"></path><path d="M 246 316 Q 257 323.7 268 316" stroke="#4A332A" stroke-width="6" fill="none" stroke-linecap="round"></path><ellipse cx="202" cy="310" rx="12" ry="8.399999999999999" fill="#F9A44A"></ellipse><ellipse cx="312" cy="310" rx="12" ry="8.399999999999999" fill="#F9A44A"></ellipse></svg>