<svg xmlns="http://www.w3.org/2000/svg" width="512" height="512" viewBox="0 0 512 512"><ellipse cx="256" cy="436" rx="102" ry="12" fill="#5A3E2E" opacity="0.09"></ellipse><circle cx="256" cy="290" r="182" fill="#FFE08A" opacity="0.35"></circle><polygon points="256.0,148.0 298.3,233.8 393.0,247.5 324.5,314.2 340.6,408.5 256.0,364.0 171.4,408.5 187.5,314.2 119.0,247.5 213.7,233.8" fill="#FFC531" stroke="#FFC531" stroke-width="30" stroke-linejoin="round"></polygon><path d="M 215 293 Q 228 271 241 293" stroke="#4A332A" stroke-width="11" fill="none" stroke-linecap="round"></path><path d="M 273 293 Q 286 271 299 293" stroke="#4A332A" stroke-width="11" fill="none" stroke-linecap="round"></path><path d="M 246 316 Q 257 323.7 268 316" stroke="#4A332A" stroke-width="6" fill="none" stroke-linecap="round"></path><ellipse cx="202" cy="310" rx="12" ry="8.399999999999999" fill="#F9A44A"></ellipse><ellipse cx="312" cy="310" rx="12" ry="8.399999999999999" fill="#F9A44A"></ellipse><path d="M 232 142 L 230.8 121.6 L 246.4 132.4 L 256 116.8 L 265.6 132.4 L 281.2 121.6 L 280 142 Q 256 148 232 142 Z" fill="#FFC531"></path><circle cx="256" cy="113.68" r="4.08" fill="#FFC531"></circle><path d="M 120 128 L 120 152 M 108 140 L 132 140 M 400 108 L 400 132 M 388 120 L 412 120" stroke="#FFFFFF" stroke-width="7" stroke-linecap="round"></path><path d="M 88 239 Q 90.64 247.36 99 250 Q 90.64 252.64 88 261 Q 85.36 252.64 77 250 Q 85.36 247.36 88 239 Z" fill="#FFBD33"></path><path d="M 424 239 Q 426.64 247.36 435 250 Q 426.64 252.64 424 261 Q 421.36 252.64 413 250 Q 421.36 247.36 424 239 Z" fill="#FFBD33"></path></svg>