<svg xmlns="http://www.w3.org/2000/svg" width="512" height="512" viewBox="0 0 512 512"><ellipse cx="256" cy="452" rx="112" ry="12" fill="#5A3E2E" opacity="0.1"></ellipse><ellipse cx="256" cy="432" rx="120" ry="24" fill="#E9D4AE"></ellipse><rect x="216" y="290" width="80" height="136" rx="34" fill="#F7EBD7"></rect><path d="M 176 290 Q 256 312 336 290" stroke="#D9A48E" stroke-width="7" fill="none" stroke-linecap="round"></path><path d="M 154 290 Q 256 175.76 358 290 Q 256 318.56 154 290 Z" fill="#ED8573"></path><circle cx="222" cy="240" r="12" fill="#FBEFDF"></circle><circle cx="292" cy="232" r="10" fill="#FBEFDF"></circle><circle cx="236" cy="348" r="11" fill="#4A332A"></circle><circle cx="239.96" cy="344.04" r="3.52" fill="#FFF"></circle><circle cx="278" cy="348" r="11" fill="#4A332A"></circle><circle cx="281.96" cy="344.04" r="3.52" fill="#FFF"></circle><path d="M 248 372 Q 257 378.3 266 372" stroke="#4A332A" stroke-width="6" fill="none" stroke-linecap="round"></path><ellipse cx="220" cy="368" rx="9" ry="6.3" fill="#FFAB8E"></ellipse><ellipse cx="294" cy="368" rx="9" ry="6.3" fill="#FFAB8E"></ellipse></svg>