<svg xmlns="http://www.w3.org/2000/svg" width="512" height="512" viewBox="0 0 512 512"><ellipse cx="256" cy="454" rx="114" ry="12" fill="#5A3E2E" opacity="0.1"></ellipse><ellipse cx="256" cy="432" rx="120" ry="24" fill="#E9D4AE"></ellipse><rect x="212" y="272" width="88" height="152" rx="38" fill="#F7EBD7"></rect><path d="M 166 272 Q 256 296 346 272" stroke="#D9A48E" stroke-width="7" fill="none" stroke-linecap="round"></path><path d="M 140 272 Q 256 142.07999999999998 372 272 Q 256 304.48 140 272 Z" fill="#ED8573"></path><circle cx="210" cy="220" r="13" fill="#FBEFDF"></circle><circle cx="290" cy="204" r="11" fill="#FBEFDF"></circle><circle cx="252" cy="180" r="9" fill="#FBEFDF"></circle><circle cx="234" cy="336" r="11" fill="#4A332A"></circle><circle cx="237.96" cy="332.04" r="3.52" fill="#FFF"></circle><circle cx="280" cy="336" r="11" fill="#4A332A"></circle><circle cx="283.96" cy="332.04" r="3.52" fill="#FFF"></circle><path d="M 247 360 Q 257 367 267 360" stroke="#4A332A" stroke-width="6" fill="none" stroke-linecap="round"></path><ellipse cx="216" cy="356" rx="10" ry="7" fill="#FFAB8E"></ellipse><ellipse cx="298" cy="356" rx="10" ry="7" fill="#FFAB8E"></ellipse></svg>