<svg xmlns="http://www.w3.org/2000/svg" width="512" height="512" viewBox="0 0 512 512"><ellipse cx="256" cy="456" rx="118" ry="12" fill="#5A3E2E" opacity="0.11"></ellipse><ellipse cx="256" cy="432" rx="120" ry="24" fill="#E9D4AE"></ellipse><rect x="208" y="258" width="96" height="166" rx="42" fill="#F7EBD7"></rect><path d="M 158 258 Q 256 284 356 258" stroke="#D9A48E" stroke-width="8" fill="none" stroke-linecap="round"></path><path d="M 128 258 Q 256 114.63999999999999 384 258 Q 256 293.84000000000003 128 258 Z" fill="#ED8573"></path><circle cx="200" cy="208" r="14" fill="#FBEFDF"></circle><circle cx="296" cy="190" r="12" fill="#FBEFDF"></circle><circle cx="248" cy="162" r="10" fill="#FBEFDF"></circle><circle cx="332" cy="238" r="9" fill="#FBEFDF"></circle><path d="M 150 434 Q 158 414 152 398 M 366 434 Q 358 414 364 398" stroke="#8FCB7A" stroke-width="8" fill="none" stroke-linecap="round"></path><path d="M 222 333 Q 234 311 246 333" stroke="#4A332A" stroke-width="11" fill="none" stroke-linecap="round"></path><path d="M 268 333 Q 280 311 292 333" stroke="#4A332A" stroke-width="11" fill="none" stroke-linecap="round"></path><path d="M 247 352 Q 257 359 267 352" stroke="#4A332A" stroke-width="6" fill="none" stroke-linecap="round"></path><ellipse cx="214" cy="346" rx="10" ry="7" fill="#FFAB8E"></ellipse><ellipse cx="300" cy="346" rx="10" ry="7" fill="#FFAB8E"></ellipse></svg>