<svg xmlns="http://www.w3.org/2000/svg" width="512" height="512" viewBox="0 0 512 512"><ellipse cx="256" cy="456" rx="118" ry="12" fill="#5A3E2E" opacity="0.11"></ellipse><ellipse cx="256" cy="432" rx="120" ry="24" fill="#E9D4AE"></ellipse><rect x="208" y="258" width="96" height="166" rx="42" fill="#F7EBD7"></rect><path d="M 158 258 Q 256 284 356 258" stroke="#D9A48E" stroke-width="8" fill="none" stroke-linecap="round"></path><path d="M 128 258 Q 256 114.63999999999999 384 258 Q 256 293.84000000000003 128 258 Z" fill="#ED8573"></path><circle cx="200" cy="208" r="14" fill="#FBEFDF"></circle><circle cx="296" cy="190" r="12" fill="#FBEFDF"></circle><circle cx="248" cy="162" r="10" fill="#FBEFDF"></circle><circle cx="332" cy="238" r="9" fill="#FBEFDF"></circle><path d="M 222 333 Q 234 311 246 333" stroke="#4A332A" stroke-width="11" fill="none" stroke-linecap="round"></path><path d="M 268 333 Q 280 311 292 333" stroke="#4A332A" stroke-width="11" fill="none" stroke-linecap="round"></path><path d="M 247 352 Q 257 359 267 352" stroke="#4A332A" stroke-width="6" fill="none" stroke-linecap="round"></path><ellipse cx="214" cy="346" rx="10" ry="7" fill="#FFAB8E"></ellipse><ellipse cx="300" cy="346" rx="10" ry="7" fill="#FFAB8E"></ellipse><path d="M 232 128 L 230.8 107.6 L 246.4 118.4 L 256 102.8 L 265.6 118.4 L 281.2 107.6 L 280 128 Q 256 134 232 128 Z" fill="#FFC531"></path><circle cx="256" cy="99.68" r="4.08" fill="#FFC531"></circle><path d="M 104 166 Q 107.36 176.64 118 180 Q 107.36 183.36 104 194 Q 100.64 183.36 90 180 Q 100.64 176.64 104 166 Z" fill="#FFBD33"></path><path d="M 408 155 Q 411.6 166.4 423 170 Q 411.6 173.6 408 185 Q 404.4 173.6 393 170 Q 404.4 166.4 408 155 Z" fill="#FFBD33"></path><path d="M 88 270 Q 90.4 277.6 98 280 Q 90.4 282.4 88 290 Q 85.6 282.4 78 280 Q 85.6 277.6 88 270 Z" fill="#FFBD33"></path></svg>