<svg xmlns="http://www.w3.org/2000/svg" width="512" height="512" viewBox="0 0 512 512"><ellipse cx="256" cy="442" rx="112" ry="12" fill="#5A3E2E" opacity="0.12"></ellipse><circle cx="160" cy="216" r="46" fill="#BFC5CE"></circle><circle cx="160" cy="218" r="25.3" fill="#F4C7CE"></circle><circle cx="352" cy="216" r="46" fill="#BFC5CE"></circle><circle cx="352" cy="218" r="25.3" fill="#F4C7CE"></circle><ellipse cx="256" cy="316" rx="136" ry="126" fill="#BFC5CE"></ellipse><ellipse cx="256" cy="386" rx="70" ry="46" fill="#E9EDF2"></ellipse><circle cx="212" cy="292" r="13" fill="#4A332A"></circle><circle cx="216.68" cy="287.32" r="4.16" fill="#FFF"></circle><circle cx="300" cy="292" r="13" fill="#4A332A"></circle><circle cx="304.68" cy="287.32" r="4.16" fill="#FFF"></circle><ellipse cx="256" cy="326" rx="16" ry="21" fill="#5A5350"></ellipse><path d="M 246 360 Q 251 369 256 360 Q 261 369 266 360" stroke="#4A332A" stroke-width="7" fill="none" stroke-linecap="round"></path><ellipse cx="176" cy="328" rx="16" ry="11.2" fill="#F4A9B4"></ellipse><ellipse cx="336" cy="328" rx="16" ry="11.2" fill="#F4A9B4"></ellipse></svg>