<svg xmlns="http://www.w3.org/2000/svg" width="512" height="512" viewBox="0 0 512 512"><ellipse cx="256" cy="444" rx="116" ry="12" fill="#5A3E2E" opacity="0.12"></ellipse><circle cx="156" cy="208" r="50" fill="#BFC5CE"></circle><circle cx="156" cy="210" r="27.500000000000004" fill="#F4C7CE"></circle><circle cx="356" cy="208" r="50" fill="#BFC5CE"></circle><circle cx="356" cy="210" r="27.500000000000004" fill="#F4C7CE"></circle><rect x="203" y="424" width="38" height="16" rx="8" fill="#A8AFBA"></rect><rect x="271" y="424" width="38" height="16" rx="8" fill="#A8AFBA"></rect><ellipse cx="256" cy="310" rx="140" ry="132" fill="#BFC5CE"></ellipse><ellipse cx="256" cy="384" rx="76" ry="50" fill="#E9EDF2"></ellipse><circle cx="212" cy="286" r="13" fill="#4A332A"></circle><circle cx="216.68" cy="281.32" r="4.16" fill="#FFF"></circle><circle cx="300" cy="286" r="13" fill="#4A332A"></circle><circle cx="304.68" cy="281.32" r="4.16" fill="#FFF"></circle><ellipse cx="256" cy="320" rx="17" ry="22" fill="#5A5350"></ellipse><path d="M 246 356 Q 251 365 256 356 Q 261 365 266 356" stroke="#4A332A" stroke-width="7" fill="none" stroke-linecap="round"></path><ellipse cx="174" cy="322" rx="16" ry="11.2" fill="#F4A9B4"></ellipse><ellipse cx="338" cy="322" rx="16" ry="11.2" fill="#F4A9B4"></ellipse></svg>