<svg xmlns="http://www.w3.org/2000/svg" width="512" height="512" viewBox="0 0 512 512"><ellipse cx="256" cy="446" rx="118" ry="12" fill="#5A3E2E" opacity="0.12"></ellipse><circle cx="152" cy="200" r="54" fill="#BFC5CE"></circle><circle cx="152" cy="202" r="29.700000000000003" fill="#F4C7CE"></circle><circle cx="360" cy="200" r="54" fill="#BFC5CE"></circle><circle cx="360" cy="202" r="29.700000000000003" fill="#F4C7CE"></circle><rect x="201" y="430" width="38" height="16" rx="8" fill="#A8AFBA"></rect><rect x="273" y="430" width="38" height="16" rx="8" fill="#A8AFBA"></rect><ellipse cx="256" cy="304" rx="144" ry="138" fill="#BFC5CE"></ellipse><ellipse cx="256" cy="382" rx="80" ry="54" fill="#E9EDF2"></ellipse><path d="M 352 380 Q 376 336 366 296" stroke="#6FB05C" stroke-width="7" fill="none" stroke-linecap="round"></path><ellipse cx="358" cy="300" rx="8" ry="20" fill="#8FCB7A" transform="rotate(16 358 300)"></ellipse><ellipse cx="376" cy="322" rx="8" ry="20" fill="#8FCB7A" transform="rotate(38 376 322)"></ellipse><ellipse cx="380" cy="352" rx="8" ry="20" fill="#8FCB7A" transform="rotate(52 380 352)"></ellipse><circle cx="212" cy="280" r="13" fill="#4A332A"></circle><circle cx="216.68" cy="275.32" r="4.16" fill="#FFF"></circle><circle cx="300" cy="280" r="13" fill="#4A332A"></circle><circle cx="304.68" cy="275.32" r="4.16" fill="#FFF"></circle><ellipse cx="256" cy="314" rx="18" ry="23" fill="#5A5350"></ellipse><path d="M 246 352 Q 251 361 256 352 Q 261 361 266 352" stroke="#4A332A" stroke-width="7" fill="none" stroke-linecap="round"></path><ellipse cx="172" cy="316" rx="16" ry="11.2" fill="#F4A9B4"></ellipse><ellipse cx="340" cy="316" rx="16" ry="11.2" fill="#F4A9B4"></ellipse></svg>