<svg xmlns="http://www.w3.org/2000/svg" width="512" height="512" viewBox="0 0 512 512"><ellipse cx="256" cy="446" rx="118" ry="12" fill="#5A3E2E" opacity="0.12"></ellipse><circle cx="152" cy="200" r="54" fill="#BFC5CE"></circle><circle cx="152" cy="202" r="29.700000000000003" fill="#F4C7CE"></circle><circle cx="360" cy="200" r="54" fill="#BFC5CE"></circle><circle cx="360" cy="202" r="29.700000000000003" fill="#F4C7CE"></circle><rect x="201" y="430" width="38" height="16" rx="8" fill="#A8AFBA"></rect><rect x="273" y="430" width="38" height="16" rx="8" fill="#A8AFBA"></rect><ellipse cx="256" cy="304" rx="144" ry="138" fill="#BFC5CE"></ellipse><ellipse cx="256" cy="382" rx="80" ry="54" fill="#E9EDF2"></ellipse><path d="M 198 287 Q 212 265 226 287" stroke="#4A332A" stroke-width="11" fill="none" stroke-linecap="round"></path><path d="M 286 287 Q 300 265 314 287" stroke="#4A332A" stroke-width="11" fill="none" stroke-linecap="round"></path><ellipse cx="256" cy="314" rx="18" ry="23" fill="#5A5350"></ellipse><path d="M 242 348 Q 256 360 270 348" stroke="#4A332A" stroke-width="8" fill="none" stroke-linecap="round"></path><ellipse cx="172" cy="316" rx="16" ry="11.2" fill="#F4A9B4"></ellipse><ellipse cx="340" cy="316" rx="16" ry="11.2" fill="#F4A9B4"></ellipse><path d="M 231 142 L 229.75 120.75 L 246 132 L 256 115.75 L 266 132 L 282.25 120.75 L 281 142 Q 256 148.25 231 142 Z" fill="#FFC531"></path><circle cx="256" cy="112.5" r="4.25" fill="#FFC531"></circle><path d="M 112 125 Q 115.6 136.4 127 140 Q 115.6 143.6 112 155 Q 108.4 143.6 97 140 Q 108.4 136.4 112 125 Z" fill="#FFBD33"></path><path d="M 400 100 Q 404.32 113.68 418 118 Q 404.32 122.32 400 136 Q 395.68 122.32 382 118 Q 395.68 113.68 400 100 Z" fill="#FFBD33"></path><path d="M 430 240 Q 432.4 247.6 440 250 Q 432.4 252.4 430 260 Q 427.6 252.4 420 250 Q 427.6 247.6 430 240 Z" fill="#FFBD33"></path><path d="M 84 222 Q 86.4 229.6 94 232 Q 86.4 234.4 84 242 Q 81.6 234.4 74 232 Q 81.6 229.6 84 222 Z" fill="#FFBD33"></path></svg>