<svg xmlns="http://www.w3.org/2000/svg" width="512" height="512" viewBox="0 0 512 512"><ellipse cx="256" cy="440" rx="110" ry="12" fill="#5A3E2E" opacity="0.12"></ellipse><path d="M 157.9 233.9 L 180 193.1 L 202.1 233.9 Z" fill="#E58CA0" stroke="#E58CA0" stroke-width="11.049999999999999" stroke-linejoin="round" transform="rotate(-18 180 222)"></path><path d="M 309.9 233.9 L 332 193.1 L 354.1 233.9 Z" fill="#E58CA0" stroke="#E58CA0" stroke-width="11.049999999999999" stroke-linejoin="round" transform="rotate(18 332 222)"></path><path d="M 394 330 q 26 -10 22 -28 q -4 -16 -20 -10" stroke="#E58CA0" stroke-width="10" fill="none" stroke-linecap="round"></path><ellipse cx="256" cy="322" rx="138" ry="120" fill="#F7BFC9"></ellipse><circle cx="206" cy="300" r="12" fill="#4A332A"></circle><circle cx="210.32" cy="295.68" r="3.84" fill="#FFF"></circle><circle cx="306" cy="300" r="12" fill="#4A332A"></circle><circle cx="310.32" cy="295.68" r="3.84" fill="#FFF"></circle><ellipse cx="256" cy="326" rx="26" ry="18" fill="#EE9FB0"></ellipse><circle cx="247" cy="326" r="4" fill="#C96F86"></circle><circle cx="265" cy="326" r="4" fill="#C96F86"></circle><ellipse cx="174" cy="334" rx="16" ry="11.2" fill="#FFAB8E"></ellipse><ellipse cx="338" cy="334" rx="16" ry="11.2" fill="#FFAB8E"></ellipse></svg>