<svg xmlns="http://www.w3.org/2000/svg" width="512" height="512" viewBox="0 0 512 512"><ellipse cx="256" cy="442" rx="114" ry="12" fill="#5A3E2E" opacity="0.12"></ellipse><path d="M 151.3 227.3 L 176 181.7 L 200.7 227.3 Z" fill="#E58CA0" stroke="#E58CA0" stroke-width="12.35" stroke-linejoin="round" transform="rotate(-18 176 214)"></path><path d="M 311.3 227.3 L 336 181.7 L 360.7 227.3 Z" fill="#E58CA0" stroke="#E58CA0" stroke-width="12.35" stroke-linejoin="round" transform="rotate(18 336 214)"></path><path d="M 394 330 q 26 -10 22 -28 q -4 -16 -20 -10" stroke="#E58CA0" stroke-width="10" fill="none" stroke-linecap="round"></path><rect x="203" y="418" width="38" height="16" rx="8" fill="#E58CA0"></rect><rect x="271" y="418" width="38" height="16" rx="8" fill="#E58CA0"></rect><ellipse cx="256" cy="314" rx="136" ry="126" fill="#F7BFC9"></ellipse><circle cx="204" cy="292" r="13" fill="#4A332A"></circle><circle cx="208.68" cy="287.32" r="4.16" fill="#FFF"></circle><circle cx="308" cy="292" r="13" fill="#4A332A"></circle><circle cx="312.68" cy="287.32" r="4.16" fill="#FFF"></circle><ellipse cx="256" cy="320" rx="28.6" ry="19.8" fill="#EE9FB0"></ellipse><circle cx="246.1" cy="320" r="4.4" fill="#C96F86"></circle><circle cx="265.9" cy="320" r="4.4" fill="#C96F86"></circle><ellipse cx="170" cy="328" rx="16" ry="11.2" fill="#FFAB8E"></ellipse><ellipse cx="342" cy="328" rx="16" ry="11.2" fill="#FFAB8E"></ellipse></svg>