<svg xmlns="http://www.w3.org/2000/svg" width="512" height="512" viewBox="0 0 512 512"><ellipse cx="256" cy="444" rx="116" ry="12" fill="#5A3E2E" opacity="0.12"></ellipse><path d="M 145.48 220.28 L 172 171.32 L 198.52 220.28 Z" fill="#E58CA0" stroke="#E58CA0" stroke-width="13.26" stroke-linejoin="round" transform="rotate(-20 172 206)"></path><path d="M 313.48 220.28 L 340 171.32 L 366.52 220.28 Z" fill="#E58CA0" stroke="#E58CA0" stroke-width="13.26" stroke-linejoin="round" transform="rotate(20 340 206)"></path><path d="M 394 330 q 26 -10 22 -28 q -4 -16 -20 -10" stroke="#E58CA0" stroke-width="10" fill="none" stroke-linecap="round"></path><rect x="201" y="424" width="38" height="16" rx="8" fill="#E58CA0"></rect><rect x="273" y="424" width="38" height="16" rx="8" fill="#E58CA0"></rect><ellipse cx="256" cy="308" rx="140" ry="132" fill="#F7BFC9"></ellipse><path d="M 190 293 Q 204 271 218 293" stroke="#4A332A" stroke-width="11" fill="none" stroke-linecap="round"></path><path d="M 294 293 Q 308 271 322 293" stroke="#4A332A" stroke-width="11" fill="none" stroke-linecap="round"></path><ellipse cx="256" cy="314" rx="30.159999999999997" ry="20.88" fill="#EE9FB0"></ellipse><circle cx="245.56" cy="314" r="4.64" fill="#C96F86"></circle><circle cx="266.44" cy="314" r="4.64" fill="#C96F86"></circle><ellipse cx="168" cy="322" rx="16" ry="11.2" fill="#FFAB8E"></ellipse><ellipse cx="344" cy="322" rx="16" ry="11.2" fill="#FFAB8E"></ellipse></svg>