<svg xmlns="http://www.w3.org/2000/svg" width="512" height="512" viewBox="0 0 512 512"><ellipse cx="256" cy="446" rx="118" ry="12" fill="#5A3E2E" opacity="0.12"></ellipse><path d="M 139.4 213.4 L 168 160.6 L 196.6 213.4 Z" fill="#E58CA0" stroke="#E58CA0" stroke-width="14.3" stroke-linejoin="round" transform="rotate(-20 168 198)"></path><path d="M 315.4 213.4 L 344 160.6 L 372.6 213.4 Z" fill="#E58CA0" stroke="#E58CA0" stroke-width="14.3" stroke-linejoin="round" transform="rotate(20 344 198)"></path><path d="M 394 330 q 26 -10 22 -28 q -4 -16 -20 -10" stroke="#E58CA0" stroke-width="10" fill="none" stroke-linecap="round"></path><rect x="199" y="430" width="38" height="16" rx="8" fill="#E58CA0"></rect><rect x="275" y="430" width="38" height="16" rx="8" fill="#E58CA0"></rect><ellipse cx="256" cy="302" rx="144" ry="140" fill="#F7BFC9"></ellipse><circle cx="202" cy="280" r="14" fill="#4A332A"></circle><circle cx="207.04" cy="274.96" r="4.48" fill="#FFF"></circle><circle cx="310" cy="280" r="14" fill="#4A332A"></circle><circle cx="315.04" cy="274.96" r="4.48" fill="#FFF"></circle><ellipse cx="256" cy="308" rx="32.24" ry="22.32" fill="#EE9FB0"></ellipse><circle cx="244.84" cy="308" r="4.96" fill="#C96F86"></circle><circle cx="267.16" cy="308" r="4.96" fill="#C96F86"></circle><path d="M 246 346 Q 251 355 256 346 Q 261 355 266 346" stroke="#4A332A" stroke-width="7" fill="none" stroke-linecap="round"></path><ellipse cx="166" cy="318" rx="16" ry="11.2" fill="#FFAB8E"></ellipse><ellipse cx="346" cy="318" rx="16" ry="11.2" fill="#FFAB8E"></ellipse></svg>