<svg xmlns="http://www.w3.org/2000/svg" width="512" height="512" viewBox="0 0 512 512"><ellipse cx="256" cy="446" rx="118" ry="12" fill="#5A3E2E" opacity="0.12"></ellipse><path d="M 139.4 213.4 L 168 160.6 L 196.6 213.4 Z" fill="#E58CA0" stroke="#E58CA0" stroke-width="14.3" stroke-linejoin="round" transform="rotate(-20 168 198)"></path><path d="M 315.4 213.4 L 344 160.6 L 372.6 213.4 Z" fill="#E58CA0" stroke="#E58CA0" stroke-width="14.3" stroke-linejoin="round" transform="rotate(20 344 198)"></path><path d="M 394 330 q 26 -10 22 -28 q -4 -16 -20 -10" stroke="#E58CA0" stroke-width="10" fill="none" stroke-linecap="round"></path><rect x="199" y="430" width="38" height="16" rx="8" fill="#E58CA0"></rect><rect x="275" y="430" width="38" height="16" rx="8" fill="#E58CA0"></rect><ellipse cx="256" cy="302" rx="144" ry="140" fill="#F7BFC9"></ellipse><path d="M 187 287 Q 202 265 217 287" stroke="#4A332A" stroke-width="11" fill="none" stroke-linecap="round"></path><path d="M 295 287 Q 310 265 325 287" stroke="#4A332A" stroke-width="11" fill="none" stroke-linecap="round"></path><ellipse cx="256" cy="308" rx="32.24" ry="22.32" fill="#EE9FB0"></ellipse><circle cx="244.84" cy="308" r="4.96" fill="#C96F86"></circle><circle cx="267.16" cy="308" r="4.96" fill="#C96F86"></circle><ellipse cx="166" cy="318" rx="16" ry="11.2" fill="#FFAB8E"></ellipse><ellipse cx="346" cy="318" rx="16" ry="11.2" fill="#FFAB8E"></ellipse><path d="M 231 136 L 229.75 114.75 L 246 126 L 256 109.75 L 266 126 L 282.25 114.75 L 281 136 Q 256 142.25 231 136 Z" fill="#FFC531"></path><circle cx="256" cy="106.5" r="4.25" fill="#FFC531"></circle><path d="M 112 125 Q 115.6 136.4 127 140 Q 115.6 143.6 112 155 Q 108.4 143.6 97 140 Q 108.4 136.4 112 125 Z" fill="#FFBD33"></path><path d="M 400 100 Q 404.32 113.68 418 118 Q 404.32 122.32 400 136 Q 395.68 122.32 382 118 Q 395.68 113.68 400 100 Z" fill="#FFBD33"></path><path d="M 430 240 Q 432.4 247.6 440 250 Q 432.4 252.4 430 260 Q 427.6 252.4 420 250 Q 427.6 247.6 430 240 Z" fill="#FFBD33"></path><path d="M 84 222 Q 86.4 229.6 94 232 Q 86.4 234.4 84 242 Q 81.6 234.4 74 232 Q 81.6 229.6 84 222 Z" fill="#FFBD33"></path></svg>