<svg xmlns="http://www.w3.org/2000/svg" width="512" height="512" viewBox="0 0 512 512"><ellipse cx="256" cy="430" rx="96" ry="12" fill="#5A3E2E" opacity="0.09"></ellipse><ellipse cx="176" cy="230" rx="34" ry="20" fill="#E3F0F8" stroke="#C4DCEC" stroke-width="5" transform="rotate(24 176 230)"></ellipse><ellipse cx="336" cy="230" rx="34" ry="20" fill="#E3F0F8" stroke="#C4DCEC" stroke-width="5" transform="rotate(-24 336 230)"></ellipse><path d="M 226 220 Q 212 189.2 206 176" stroke="#6B5233" stroke-width="7" fill="none" stroke-linecap="round"></path><circle cx="206" cy="176" r="9" fill="#6B5233"></circle><path d="M 286 220 Q 300 189.2 306 176" stroke="#6B5233" stroke-width="7" fill="none" stroke-linecap="round"></path><circle cx="306" cy="176" r="9" fill="#6B5233"></circle><ellipse cx="256" cy="312" rx="112" ry="96" fill="#FFD65C"></ellipse><path d="M 172 360 Q 256 386 340 360" stroke="#6B5233" stroke-width="26" fill="none" stroke-linecap="round"></path><circle cx="214" cy="296" r="13" fill="#4A332A"></circle><circle cx="218.68" cy="291.32" r="4.16" fill="#FFF"></circle><circle cx="298" cy="296" r="13" fill="#4A332A"></circle><circle cx="302.68" cy="291.32" r="4.16" fill="#FFF"></circle><path d="M 244 326 Q 256 334.4 268 326" stroke="#4A332A" stroke-width="7" fill="none" stroke-linecap="round"></path><ellipse cx="184" cy="324" rx="12" ry="8.399999999999999" fill="#FFAB8E"></ellipse><ellipse cx="328" cy="324" rx="12" ry="8.399999999999999" fill="#FFAB8E"></ellipse></svg>