<svg xmlns="http://www.w3.org/2000/svg" width="512" height="512" viewBox="0 0 512 512"><ellipse cx="256" cy="432" rx="100" ry="12" fill="#5A3E2E" opacity="0.09"></ellipse><ellipse cx="176" cy="216" rx="44" ry="26" fill="#E3F0F8" stroke="#C4DCEC" stroke-width="5" transform="rotate(24 176 216)"></ellipse><ellipse cx="336" cy="216" rx="44" ry="26" fill="#E3F0F8" stroke="#C4DCEC" stroke-width="5" transform="rotate(-24 336 216)"></ellipse><path d="M 224 208 Q 210 171.6 204 156" stroke="#6B5233" stroke-width="7" fill="none" stroke-linecap="round"></path><circle cx="204" cy="156" r="9" fill="#6B5233"></circle><path d="M 288 208 Q 302 171.6 308 156" stroke="#6B5233" stroke-width="7" fill="none" stroke-linecap="round"></path><circle cx="308" cy="156" r="9" fill="#6B5233"></circle><ellipse cx="256" cy="308" rx="118" ry="102" fill="#FFD65C"></ellipse><path d="M 162 348 Q 256 374 350 348" stroke="#6B5233" stroke-width="26" fill="none" stroke-linecap="round"></path><path d="M 192 388 Q 256 414 320 388" stroke="#6B5233" stroke-width="24" fill="none" stroke-linecap="round"></path><circle cx="212" cy="290" r="13" fill="#4A332A"></circle><circle cx="216.68" cy="285.32" r="4.16" fill="#FFF"></circle><circle cx="300" cy="290" r="13" fill="#4A332A"></circle><circle cx="304.68" cy="285.32" r="4.16" fill="#FFF"></circle><path d="M 244 320 Q 256 328.4 268 320" stroke="#4A332A" stroke-width="7" fill="none" stroke-linecap="round"></path><ellipse cx="182" cy="318" rx="12" ry="8.399999999999999" fill="#FFAB8E"></ellipse><ellipse cx="330" cy="318" rx="12" ry="8.399999999999999" fill="#FFAB8E"></ellipse></svg>