<svg xmlns="http://www.w3.org/2000/svg" width="512" height="512" viewBox="0 0 512 512"><ellipse cx="256" cy="434" rx="102" ry="12" fill="#5A3E2E" opacity="0.08"></ellipse><ellipse cx="176" cy="202" rx="52" ry="30" fill="#E3F0F8" stroke="#C4DCEC" stroke-width="5" transform="rotate(26 176 202)"></ellipse><ellipse cx="336" cy="202" rx="52" ry="30" fill="#E3F0F8" stroke="#C4DCEC" stroke-width="5" transform="rotate(-26 336 202)"></ellipse><path d="M 222 198 Q 208 157.4 202 140" stroke="#6B5233" stroke-width="7" fill="none" stroke-linecap="round"></path><circle cx="202" cy="140" r="9" fill="#6B5233"></circle><path d="M 290 198 Q 304 157.4 310 140" stroke="#6B5233" stroke-width="7" fill="none" stroke-linecap="round"></path><circle cx="310" cy="140" r="9" fill="#6B5233"></circle><ellipse cx="256" cy="306" rx="124" ry="108" fill="#FFD65C"></ellipse><path d="M 156 340 Q 256 366 356 340" stroke="#6B5233" stroke-width="27" fill="none" stroke-linecap="round"></path><path d="M 184 382 Q 256 408 328 382" stroke="#6B5233" stroke-width="25" fill="none" stroke-linecap="round"></path><path d="M 256 414 L 256 436" stroke="#6B5233" stroke-width="10" stroke-linecap="round"></path><circle cx="210" cy="286" r="14" fill="#4A332A"></circle><circle cx="215.04" cy="280.96" r="4.48" fill="#FFF"></circle><circle cx="302" cy="286" r="14" fill="#4A332A"></circle><circle cx="307.04" cy="280.96" r="4.48" fill="#FFF"></circle><path d="M 243 318 Q 256 327.1 269 318" stroke="#4A332A" stroke-width="7" fill="none" stroke-linecap="round"></path><ellipse cx="180" cy="314" rx="12" ry="8.399999999999999" fill="#FFAB8E"></ellipse><ellipse cx="332" cy="314" rx="12" ry="8.399999999999999" fill="#FFAB8E"></ellipse></svg>