<svg xmlns="http://www.w3.org/2000/svg" width="512" height="512" viewBox="0 0 512 512"><ellipse cx="256" cy="436" rx="104" ry="12" fill="#5A3E2E" opacity="0.08"></ellipse><ellipse cx="176" cy="192" rx="58" ry="34" fill="#E3F0F8" stroke="#C4DCEC" stroke-width="5" transform="rotate(28 176 192)"></ellipse><ellipse cx="336" cy="192" rx="58" ry="34" fill="#E3F0F8" stroke="#C4DCEC" stroke-width="5" transform="rotate(-28 336 192)"></ellipse><path d="M 220 190 Q 206 145.2 200 126" stroke="#6B5233" stroke-width="7" fill="none" stroke-linecap="round"></path><circle cx="200" cy="126" r="9" fill="#6B5233"></circle><path d="M 292 190 Q 306 145.2 312 126" stroke="#6B5233" stroke-width="7" fill="none" stroke-linecap="round"></path><circle cx="312" cy="126" r="9" fill="#6B5233"></circle><ellipse cx="256" cy="304" rx="130" ry="114" fill="#FFD65C"></ellipse><path d="M 150 336 Q 256 362 362 336" stroke="#6B5233" stroke-width="28" fill="none" stroke-linecap="round"></path><path d="M 178 380 Q 256 406 334 380" stroke="#6B5233" stroke-width="26" fill="none" stroke-linecap="round"></path><path d="M 256 418 L 256 442" stroke="#6B5233" stroke-width="11" stroke-linecap="round"></path><path d="M 195 291 Q 210 269 225 291" stroke="#4A332A" stroke-width="11" fill="none" stroke-linecap="round"></path><path d="M 287 291 Q 302 269 317 291" stroke="#4A332A" stroke-width="11" fill="none" stroke-linecap="round"></path><path d="M 242 318 Q 256 327.8 270 318" stroke="#4A332A" stroke-width="8" fill="none" stroke-linecap="round"></path><ellipse cx="178" cy="312" rx="13" ry="9.1" fill="#FFAB8E"></ellipse><ellipse cx="334" cy="312" rx="13" ry="9.1" fill="#FFAB8E"></ellipse></svg>