<svg xmlns="http://www.w3.org/2000/svg" width="512" height="512" viewBox="0 0 512 512"><ellipse cx="256" cy="436" rx="104" ry="12" fill="#5A3E2E" opacity="0.08"></ellipse><ellipse cx="176" cy="192" rx="58" ry="34" fill="#E3F0F8" stroke="#C4DCEC" stroke-width="5" transform="rotate(28 176 192)"></ellipse><ellipse cx="336" cy="192" rx="58" ry="34" fill="#E3F0F8" stroke="#C4DCEC" stroke-width="5" transform="rotate(-28 336 192)"></ellipse><path d="M 220 190 Q 206 145.2 200 126" stroke="#6B5233" stroke-width="7" fill="none" stroke-linecap="round"></path><circle cx="200" cy="126" r="9" fill="#6B5233"></circle><path d="M 292 190 Q 306 145.2 312 126" stroke="#6B5233" stroke-width="7" fill="none" stroke-linecap="round"></path><circle cx="312" cy="126" r="9" fill="#6B5233"></circle><ellipse cx="256" cy="304" rx="130" ry="114" fill="#FFD65C"></ellipse><path d="M 150 336 Q 256 362 362 336" stroke="#6B5233" stroke-width="28" fill="none" stroke-linecap="round"></path><path d="M 178 380 Q 256 406 334 380" stroke="#6B5233" stroke-width="26" fill="none" stroke-linecap="round"></path><path d="M 256 418 L 256 442" stroke="#6B5233" stroke-width="11" stroke-linecap="round"></path><path d="M 195 291 Q 210 269 225 291" stroke="#4A332A" stroke-width="11" fill="none" stroke-linecap="round"></path><path d="M 287 291 Q 302 269 317 291" stroke="#4A332A" stroke-width="11" fill="none" stroke-linecap="round"></path><path d="M 242 318 Q 256 327.8 270 318" stroke="#4A332A" stroke-width="8" fill="none" stroke-linecap="round"></path><ellipse cx="178" cy="312" rx="13" ry="9.1" fill="#FFAB8E"></ellipse><ellipse cx="334" cy="312" rx="13" ry="9.1" fill="#FFAB8E"></ellipse><path d="M 233 150 L 231.85 130.45 L 246.8 140.8 L 256 125.85 L 265.2 140.8 L 280.15 130.45 L 279 150 Q 256 155.75 233 150 Z" fill="#FFC531"></path><circle cx="256" cy="122.86" r="3.91" fill="#FFC531"></circle><path d="M 112 125 Q 115.6 136.4 127 140 Q 115.6 143.6 112 155 Q 108.4 143.6 97 140 Q 108.4 136.4 112 125 Z" fill="#FFBD33"></path><path d="M 400 100 Q 404.32 113.68 418 118 Q 404.32 122.32 400 136 Q 395.68 122.32 382 118 Q 395.68 113.68 400 100 Z" fill="#FFBD33"></path><path d="M 430 240 Q 432.4 247.6 440 250 Q 432.4 252.4 430 260 Q 427.6 252.4 420 250 Q 427.6 247.6 430 240 Z" fill="#FFBD33"></path><path d="M 84 222 Q 86.4 229.6 94 232 Q 86.4 234.4 84 242 Q 81.6 234.4 74 232 Q 81.6 229.6 84 222 Z" fill="#FFBD33"></path></svg>