<svg xmlns="http://www.w3.org/2000/svg" width="512" height="512" viewBox="0 0 512 512"><ellipse cx="256" cy="452" rx="108" ry="12" fill="#5A3E2E" opacity="0.1"></ellipse><ellipse cx="256" cy="432" rx="120" ry="24" fill="#E9D4AE"></ellipse><path d="M 256 322 Q 246 268 268 244" stroke="#6FB05C" stroke-width="11" fill="none" stroke-linecap="round"></path><ellipse cx="236" cy="234" rx="25" ry="13" fill="#8FCB7A" transform="rotate(-38 236 234)"></ellipse><ellipse cx="292" cy="226" rx="25" ry="13" fill="#8FCB7A" transform="rotate(36 292 226)"></ellipse><path d="M 256 316 Q 302 344 302 388 Q 302 434 256 440 Q 210 434 210 388 Q 210 344 256 316 Z" fill="#C9935E"></path><circle cx="234" cy="388" r="11" fill="#4A332A"></circle><circle cx="237.96" cy="384.04" r="3.52" fill="#FFF"></circle><circle cx="280" cy="388" r="11" fill="#4A332A"></circle><circle cx="283.96" cy="384.04" r="3.52" fill="#FFF"></circle><path d="M 248 412 Q 257 418.3 266 412" stroke="#4A332A" stroke-width="6" fill="none" stroke-linecap="round"></path><ellipse cx="216" cy="410" rx="10" ry="7" fill="#FFAB8E"></ellipse><ellipse cx="298" cy="410" rx="10" ry="7" fill="#FFAB8E"></ellipse></svg>