<svg xmlns="http://www.w3.org/2000/svg" width="512" height="512" viewBox="0 0 512 512"><ellipse cx="256" cy="452" rx="110" ry="12" fill="#5A3E2E" opacity="0.1"></ellipse><ellipse cx="256" cy="432" rx="120" ry="24" fill="#E9D4AE"></ellipse><path d="M 256 430 L 256 280" stroke="#6FB05C" stroke-width="13" stroke-linecap="round"></path><ellipse cx="216" cy="362" rx="15" ry="52" fill="#8FCB7A" transform="rotate(-24 216 362)"></ellipse><ellipse cx="296" cy="354" rx="15" ry="52" fill="#8FCB7A" transform="rotate(24 296 354)"></ellipse><ellipse cx="256" cy="228" rx="46" ry="60" fill="#F58E9E"></ellipse><path d="M 232 190 Q 256 214 256 268 M 280 190 Q 256 214 256 268" stroke="#EE7288" stroke-width="6" fill="none" stroke-linecap="round"></path><path d="M 223 227 Q 234 245 245 227" stroke="#4A332A" stroke-width="11" fill="none" stroke-linecap="round"></path><path d="M 269 227 Q 280 245 291 227" stroke="#4A332A" stroke-width="11" fill="none" stroke-linecap="round"></path><ellipse cx="222" cy="254" rx="9" ry="6.3" fill="#F8C4CE"></ellipse><ellipse cx="292" cy="254" rx="9" ry="6.3" fill="#F8C4CE"></ellipse></svg>