<svg xmlns="http://www.w3.org/2000/svg" width="512" height="512" viewBox="0 0 512 512"><ellipse cx="256" cy="452" rx="110" ry="12" fill="#5A3E2E" opacity="0.1"></ellipse><ellipse cx="256" cy="432" rx="120" ry="24" fill="#E9D4AE"></ellipse><path d="M 256 430 L 256 276" stroke="#6FB05C" stroke-width="13" stroke-linecap="round"></path><ellipse cx="216" cy="358" rx="15" ry="52" fill="#8FCB7A" transform="rotate(-24 216 358)"></ellipse><ellipse cx="296" cy="350" rx="15" ry="52" fill="#8FCB7A" transform="rotate(24 296 350)"></ellipse><ellipse cx="222" cy="226" rx="26" ry="54" fill="#EE7288" transform="rotate(-10 222 226)"></ellipse><ellipse cx="290" cy="226" rx="26" ry="54" fill="#EE7288" transform="rotate(10 290 226)"></ellipse><ellipse cx="256" cy="228" rx="40" ry="58" fill="#F58E9E"></ellipse><circle cx="238" cy="226" r="10" fill="#4A332A"></circle><circle cx="241.6" cy="222.4" r="3.2" fill="#FFF"></circle><circle cx="276" cy="226" r="10" fill="#4A332A"></circle><circle cx="279.6" cy="222.4" r="3.2" fill="#FFF"></circle><path d="M 248 250 Q 257 256.3 266 250" stroke="#4A332A" stroke-width="6" fill="none" stroke-linecap="round"></path><ellipse cx="226" cy="246" rx="9" ry="6.3" fill="#F8C4CE"></ellipse><ellipse cx="288" cy="246" rx="9" ry="6.3" fill="#F8C4CE"></ellipse></svg>