<svg xmlns="http://www.w3.org/2000/svg" width="512" height="512" viewBox="0 0 512 512"><ellipse cx="256" cy="454" rx="112" ry="12" fill="#5A3E2E" opacity="0.1"></ellipse><ellipse cx="256" cy="432" rx="120" ry="24" fill="#E9D4AE"></ellipse><path d="M 256 430 L 256 268" stroke="#6FB05C" stroke-width="14" stroke-linecap="round"></path><ellipse cx="216" cy="354" rx="15" ry="52" fill="#8FCB7A" transform="rotate(-24 216 354)"></ellipse><ellipse cx="296" cy="346" rx="15" ry="52" fill="#8FCB7A" transform="rotate(24 296 346)"></ellipse><path d="M 200 172 Q 196 258 256 262 Q 232 232 232 178 Z" fill="#EE7288"></path><path d="M 312 172 Q 316 258 256 262 Q 280 232 280 178 Z" fill="#EE7288"></path><path d="M 226 162 Q 222 258 256 262 Q 290 258 286 162 Q 256 196 226 162 Z" fill="#F58E9E"></path><circle cx="238" cy="222" r="10" fill="#4A332A"></circle><circle cx="241.6" cy="218.4" r="3.2" fill="#FFF"></circle><circle cx="276" cy="222" r="10" fill="#4A332A"></circle><circle cx="279.6" cy="218.4" r="3.2" fill="#FFF"></circle><path d="M 248 246 Q 257 252.3 266 246" stroke="#4A332A" stroke-width="6" fill="none" stroke-linecap="round"></path><ellipse cx="226" cy="242" rx="9" ry="6.3" fill="#F8C4CE"></ellipse><ellipse cx="288" cy="242" rx="9" ry="6.3" fill="#F8C4CE"></ellipse></svg>