<svg xmlns="http://www.w3.org/2000/svg" width="512" height="512" viewBox="0 0 512 512"><ellipse cx="256" cy="454" rx="112" ry="12" fill="#5A3E2E" opacity="0.1"></ellipse><ellipse cx="256" cy="432" rx="120" ry="24" fill="#E9D4AE"></ellipse><path d="M 256 430 L 256 264" stroke="#6FB05C" stroke-width="14" stroke-linecap="round"></path><ellipse cx="216" cy="350" rx="15" ry="52" fill="#8FCB7A" transform="rotate(-24 216 350)"></ellipse><ellipse cx="296" cy="342" rx="15" ry="52" fill="#8FCB7A" transform="rotate(24 296 342)"></ellipse><path d="M 190 158 Q 186 256 256 260 Q 228 228 230 166 Z" fill="#EE7288"></path><path d="M 322 158 Q 326 256 256 260 Q 284 228 282 166 Z" fill="#EE7288"></path><path d="M 222 148 Q 216 256 256 260 Q 296 256 290 148 Q 256 186 222 148 Z" fill="#F58E9E"></path><path d="M 227 225 Q 238 203 249 225" stroke="#4A332A" stroke-width="11" fill="none" stroke-linecap="round"></path><path d="M 265 225 Q 276 203 287 225" stroke="#4A332A" stroke-width="11" fill="none" stroke-linecap="round"></path><path d="M 247 244 Q 257 251 267 244" stroke="#4A332A" stroke-width="6" fill="none" stroke-linecap="round"></path><ellipse cx="224" cy="240" rx="9" ry="6.3" fill="#F8C4CE"></ellipse><ellipse cx="290" cy="240" rx="9" ry="6.3" fill="#F8C4CE"></ellipse><path d="M 120 126 Q 123.36 136.64 134 140 Q 123.36 143.36 120 154 Q 116.64 143.36 106 140 Q 116.64 136.64 120 126 Z" fill="#FFBD33"></path><path d="M 396 104 Q 399.84 116.16 412 120 Q 399.84 123.84 396 136 Q 392.16 123.84 380 120 Q 392.16 116.16 396 104 Z" fill="#FFBD33"></path><path d="M 420 230 Q 422.4 237.6 430 240 Q 422.4 242.4 420 250 Q 417.6 242.4 410 240 Q 417.6 237.6 420 230 Z" fill="#FFBD33"></path></svg>