<svg xmlns="http://www.w3.org/2000/svg" width="512" height="512" viewBox="0 0 512 512"><ellipse cx="256" cy="440" rx="110" ry="12" fill="#5A3E2E" opacity="0.12"></ellipse><ellipse cx="168" cy="258" rx="30" ry="60" fill="#C08E5F" transform="rotate(22 168 258)"></ellipse><ellipse cx="344" cy="258" rx="30" ry="60" fill="#C08E5F" transform="rotate(-22 344 258)"></ellipse><path d="M 380 350 Q 412 330 408 300" stroke="#C08E5F" stroke-width="14" fill="none" stroke-linecap="round"></path><ellipse cx="256" cy="318" rx="136" ry="124" fill="#EBCB9E"></ellipse><ellipse cx="256" cy="350" rx="56" ry="42" fill="#FBF0DF"></ellipse><circle cx="210" cy="296" r="14" fill="#4A332A"></circle><circle cx="215.04" cy="290.96" r="4.48" fill="#FFF"></circle><circle cx="302" cy="296" r="14" fill="#4A332A"></circle><circle cx="307.04" cy="290.96" r="4.48" fill="#FFF"></circle><ellipse cx="256" cy="332" rx="13" ry="10" fill="#4A332A"></ellipse><path d="M 242 354 Q 256 363.24 270 354" stroke="#4A332A" stroke-width="7" fill="none" stroke-linecap="round"></path><ellipse cx="178" cy="330" rx="16" ry="11.2" fill="#FFAB8E"></ellipse><ellipse cx="334" cy="330" rx="16" ry="11.2" fill="#FFAB8E"></ellipse></svg>