<svg xmlns="http://www.w3.org/2000/svg" width="512" height="512" viewBox="0 0 512 512"><ellipse cx="256" cy="442" rx="112" ry="12" fill="#5A3E2E" opacity="0.12"></ellipse><rect x="203" y="418" width="38" height="16" rx="8" fill="#C08E5F"></rect><rect x="271" y="418" width="38" height="16" rx="8" fill="#C08E5F"></rect><ellipse cx="162" cy="250" rx="30" ry="70" fill="#C08E5F" transform="rotate(24 162 250)"></ellipse><ellipse cx="350" cy="250" rx="30" ry="70" fill="#C08E5F" transform="rotate(-24 350 250)"></ellipse><path d="M 378 344 Q 414 322 410 288" stroke="#C08E5F" stroke-width="15" fill="none" stroke-linecap="round"></path><ellipse cx="256" cy="310" rx="130" ry="130" fill="#EBCB9E"></ellipse><ellipse cx="256" cy="346" rx="54" ry="40" fill="#FBF0DF"></ellipse><rect x="244" y="356" width="24" height="30" rx="12" fill="#F58E82"></rect><circle cx="210" cy="288" r="14" fill="#4A332A"></circle><circle cx="215.04" cy="282.96" r="4.48" fill="#FFF"></circle><circle cx="302" cy="288" r="14" fill="#4A332A"></circle><circle cx="307.04" cy="282.96" r="4.48" fill="#FFF"></circle><ellipse cx="256" cy="326" rx="13" ry="10" fill="#4A332A"></ellipse><ellipse cx="176" cy="322" rx="16" ry="11.2" fill="#FFAB8E"></ellipse><ellipse cx="336" cy="322" rx="16" ry="11.2" fill="#FFAB8E"></ellipse></svg>