<svg xmlns="http://www.w3.org/2000/svg" width="512" height="512" viewBox="0 0 512 512"><ellipse cx="256" cy="444" rx="114" ry="12" fill="#5A3E2E" opacity="0.12"></ellipse><rect x="201" y="426" width="38" height="16" rx="8" fill="#C08E5F"></rect><rect x="273" y="426" width="38" height="16" rx="8" fill="#C08E5F"></rect><ellipse cx="158" cy="244" rx="30" ry="74" fill="#C08E5F" transform="rotate(26 158 244)"></ellipse><ellipse cx="354" cy="244" rx="30" ry="74" fill="#C08E5F" transform="rotate(-26 354 244)"></ellipse><path d="M 380 330 Q 420 302 414 264" stroke="#C08E5F" stroke-width="16" fill="none" stroke-linecap="round"></path><path d="M 428 300 L 446 288" stroke="#C08E5F" stroke-width="8" stroke-linecap="round"></path><path d="M 430 268 L 448 262" stroke="#C08E5F" stroke-width="8" stroke-linecap="round"></path><ellipse cx="256" cy="304" rx="136" ry="138" fill="#EBCB9E"></ellipse><ellipse cx="256" cy="342" rx="56" ry="42" fill="#FBF0DF"></ellipse><rect x="244" y="352" width="24" height="30" rx="12" fill="#F58E82"></rect><path d="M 193 289 Q 210 267 227 289" stroke="#4A332A" stroke-width="11" fill="none" stroke-linecap="round"></path><path d="M 285 289 Q 302 267 319 289" stroke="#4A332A" stroke-width="11" fill="none" stroke-linecap="round"></path><ellipse cx="256" cy="322" rx="13" ry="10" fill="#4A332A"></ellipse><ellipse cx="174" cy="318" rx="16" ry="11.2" fill="#FFAB8E"></ellipse><ellipse cx="338" cy="318" rx="16" ry="11.2" fill="#FFAB8E"></ellipse></svg>