<svg xmlns="http://www.w3.org/2000/svg" width="512" height="512" viewBox="0 0 512 512"><ellipse cx="256" cy="446" rx="116" ry="12" fill="#5A3E2E" opacity="0.12"></ellipse><rect x="201" y="430" width="38" height="16" rx="8" fill="#C08E5F"></rect><rect x="273" y="430" width="38" height="16" rx="8" fill="#C08E5F"></rect><ellipse cx="156" cy="240" rx="30" ry="76" fill="#C08E5F" transform="rotate(26 156 240)"></ellipse><ellipse cx="356" cy="240" rx="30" ry="76" fill="#C08E5F" transform="rotate(-26 356 240)"></ellipse><path d="M 382 322 Q 422 294 416 254" stroke="#C08E5F" stroke-width="16" fill="none" stroke-linecap="round"></path><ellipse cx="256" cy="298" rx="138" ry="144" fill="#EBCB9E"></ellipse><rect x="190" y="398" width="132" height="24" rx="12" fill="#E4574D"></rect><circle cx="256" cy="428" r="10" fill="#FFC531"></circle><ellipse cx="256" cy="338" rx="56" ry="42" fill="#FBF0DF"></ellipse><circle cx="210" cy="276" r="14" fill="#4A332A"></circle><circle cx="215.04" cy="270.96" r="4.48" fill="#FFF"></circle><circle cx="302" cy="276" r="14" fill="#4A332A"></circle><circle cx="307.04" cy="270.96" r="4.48" fill="#FFF"></circle><ellipse cx="256" cy="318" rx="13" ry="10" fill="#4A332A"></ellipse><path d="M 242 342 Q 256 351.24 270 342" stroke="#4A332A" stroke-width="7" fill="none" stroke-linecap="round"></path><ellipse cx="174" cy="312" rx="16" ry="11.2" fill="#FFAB8E"></ellipse><ellipse cx="338" cy="312" rx="16" ry="11.2" fill="#FFAB8E"></ellipse></svg>