<svg xmlns="http://www.w3.org/2000/svg" width="512" height="512" viewBox="0 0 512 512"><ellipse cx="256" cy="446" rx="116" ry="12" fill="#5A3E2E" opacity="0.12"></ellipse><rect x="201" y="430" width="38" height="16" rx="8" fill="#C08E5F"></rect><rect x="273" y="430" width="38" height="16" rx="8" fill="#C08E5F"></rect><ellipse cx="156" cy="240" rx="30" ry="76" fill="#C08E5F" transform="rotate(26 156 240)"></ellipse><ellipse cx="356" cy="240" rx="30" ry="76" fill="#C08E5F" transform="rotate(-26 356 240)"></ellipse><path d="M 382 322 Q 422 294 416 254" stroke="#C08E5F" stroke-width="16" fill="none" stroke-linecap="round"></path><ellipse cx="256" cy="298" rx="138" ry="144" fill="#EBCB9E"></ellipse><rect x="190" y="398" width="132" height="24" rx="12" fill="#E4574D"></rect><circle cx="256" cy="428" r="10" fill="#FFC531"></circle><ellipse cx="256" cy="338" rx="56" ry="42" fill="#FBF0DF"></ellipse><rect x="244" y="348" width="24" height="30" rx="12" fill="#F58E82"></rect><path d="M 193 283 Q 210 261 227 283" stroke="#4A332A" stroke-width="11" fill="none" stroke-linecap="round"></path><path d="M 285 283 Q 302 261 319 283" stroke="#4A332A" stroke-width="11" fill="none" stroke-linecap="round"></path><ellipse cx="256" cy="318" rx="13" ry="10" fill="#4A332A"></ellipse><ellipse cx="174" cy="312" rx="16" ry="11.2" fill="#FFAB8E"></ellipse><ellipse cx="338" cy="312" rx="16" ry="11.2" fill="#FFAB8E"></ellipse><path d="M 230 148 L 228.7 125.9 L 245.6 137.6 L 256 120.7 L 266.4 137.6 L 283.3 125.9 L 282 148 Q 256 154.5 230 148 Z" fill="#FFC531"></path><circle cx="256" cy="117.32" r="4.42" fill="#FFC531"></circle><path d="M 112 125 Q 115.6 136.4 127 140 Q 115.6 143.6 112 155 Q 108.4 143.6 97 140 Q 108.4 136.4 112 125 Z" fill="#FFBD33"></path><path d="M 400 100 Q 404.32 113.68 418 118 Q 404.32 122.32 400 136 Q 395.68 122.32 382 118 Q 395.68 113.68 400 100 Z" fill="#FFBD33"></path><path d="M 430 240 Q 432.4 247.6 440 250 Q 432.4 252.4 430 260 Q 427.6 252.4 420 250 Q 427.6 247.6 430 240 Z" fill="#FFBD33"></path><path d="M 84 222 Q 86.4 229.6 94 232 Q 86.4 234.4 84 242 Q 81.6 234.4 74 232 Q 81.6 229.6 84 222 Z" fill="#FFBD33"></path></svg>