<svg xmlns="http://www.w3.org/2000/svg" width="512" height="512" viewBox="0 0 512 512"><ellipse cx="256" cy="452" rx="108" ry="12" fill="#5A3E2E" opacity="0.1"></ellipse><ellipse cx="256" cy="432" rx="120" ry="24" fill="#E9D4AE"></ellipse><path d="M 256 330 Q 246 272 264 250" stroke="#6FB05C" stroke-width="11" fill="none" stroke-linecap="round"></path><ellipse cx="234" cy="242" rx="26" ry="14" fill="#8FCB7A" transform="rotate(-38 234 242)"></ellipse><ellipse cx="292" cy="234" rx="26" ry="14" fill="#8FCB7A" transform="rotate(36 292 234)"></ellipse><ellipse cx="256" cy="380" rx="56" ry="70" fill="#B98A5E"></ellipse><path d="M 230 338 Q 256 324 282 338" stroke="#CFA476" stroke-width="9" fill="none" stroke-linecap="round"></path><circle cx="236" cy="378" r="11" fill="#4A332A"></circle><circle cx="239.96" cy="374.04" r="3.52" fill="#FFF"></circle><circle cx="278" cy="378" r="11" fill="#4A332A"></circle><circle cx="281.96" cy="374.04" r="3.52" fill="#FFF"></circle><path d="M 248 402 Q 257 408.3 266 402" stroke="#4A332A" stroke-width="6" fill="none" stroke-linecap="round"></path><ellipse cx="218" cy="400" rx="9" ry="6.3" fill="#FFAB8E"></ellipse><ellipse cx="296" cy="400" rx="9" ry="6.3" fill="#FFAB8E"></ellipse></svg>