<svg xmlns="http://www.w3.org/2000/svg" width="512" height="512" viewBox="0 0 512 512"><ellipse cx="256" cy="454" rx="114" ry="12" fill="#5A3E2E" opacity="0.1"></ellipse><ellipse cx="256" cy="432" rx="120" ry="24" fill="#E9D4AE"></ellipse><rect x="240" y="288" width="32" height="146" rx="15" fill="#A0764E"></rect><circle cx="256" cy="238" r="88" fill="#8FCB7A"></circle><circle cx="196" cy="270" r="44" fill="#F8C4D4"></circle><circle cx="318" cy="266" r="44" fill="#F8C4D4"></circle><circle cx="256" cy="178" r="46" fill="#F8C4D4"></circle><circle cx="206.0" cy="186.0" r="7.199999999999999" fill="#F49BB8"></circle><circle cx="215.5" cy="192.9" r="7.199999999999999" fill="#F49BB8"></circle><circle cx="211.9" cy="204.1" r="7.199999999999999" fill="#F49BB8"></circle><circle cx="200.1" cy="204.1" r="7.199999999999999" fill="#F49BB8"></circle><circle cx="196.5" cy="192.9" r="7.199999999999999" fill="#F49BB8"></circle><circle cx="206" cy="196" r="4.2" fill="#FFC531"></circle><circle cx="310.0" cy="194.0" r="7.199999999999999" fill="#F49BB8"></circle><circle cx="319.5" cy="200.9" r="7.199999999999999" fill="#F49BB8"></circle><circle cx="315.9" cy="212.1" r="7.199999999999999" fill="#F49BB8"></circle><circle cx="304.1" cy="212.1" r="7.199999999999999" fill="#F49BB8"></circle><circle cx="300.5" cy="200.9" r="7.199999999999999" fill="#F49BB8"></circle><circle cx="310" cy="204" r="4.2" fill="#FFC531"></circle><circle cx="234" cy="244" r="12" fill="#4A332A"></circle><circle cx="238.32" cy="239.68" r="3.84" fill="#FFF"></circle><circle cx="278" cy="244" r="12" fill="#4A332A"></circle><circle cx="282.32" cy="239.68" r="3.84" fill="#FFF"></circle><path d="M 247 268 Q 257 275 267 268" stroke="#4A332A" stroke-width="6" fill="none" stroke-linecap="round"></path><ellipse cx="216" cy="262" rx="10" ry="7" fill="#FFAB8E"></ellipse><ellipse cx="296" cy="262" rx="10" ry="7" fill="#FFAB8E"></ellipse></svg>