<svg xmlns="http://www.w3.org/2000/svg" width="512" height="512" viewBox="0 0 512 512"><ellipse cx="256" cy="454" rx="118" ry="12" fill="#5A3E2E" opacity="0.11"></ellipse><ellipse cx="256" cy="432" rx="120" ry="24" fill="#E9D4AE"></ellipse><rect x="238" y="282" width="36" height="152" rx="17" fill="#A0764E"></rect><circle cx="176" cy="278" r="62" fill="#F8C4D4"></circle><circle cx="336" cy="278" r="62" fill="#F8C4D4"></circle><circle cx="256" cy="212" r="96" fill="#F8C4D4"></circle><circle cx="196.0" cy="209.0" r="7.92" fill="#F49BB8"></circle><circle cx="206.5" cy="216.6" r="7.92" fill="#F49BB8"></circle><circle cx="202.5" cy="228.9" r="7.92" fill="#F49BB8"></circle><circle cx="189.5" cy="228.9" r="7.92" fill="#F49BB8"></circle><circle cx="185.5" cy="216.6" r="7.92" fill="#F49BB8"></circle><circle cx="196" cy="220" r="4.62" fill="#FFC531"></circle><circle cx="318.0" cy="215.0" r="7.92" fill="#F49BB8"></circle><circle cx="328.5" cy="222.6" r="7.92" fill="#F49BB8"></circle><circle cx="324.5" cy="234.9" r="7.92" fill="#F49BB8"></circle><circle cx="311.5" cy="234.9" r="7.92" fill="#F49BB8"></circle><circle cx="307.5" cy="222.6" r="7.92" fill="#F49BB8"></circle><circle cx="318" cy="226" r="4.62" fill="#FFC531"></circle><circle cx="256.0" cy="139.0" r="7.92" fill="#F49BB8"></circle><circle cx="266.5" cy="146.6" r="7.92" fill="#F49BB8"></circle><circle cx="262.5" cy="158.9" r="7.92" fill="#F49BB8"></circle><circle cx="249.5" cy="158.9" r="7.92" fill="#F49BB8"></circle><circle cx="245.5" cy="146.6" r="7.92" fill="#F49BB8"></circle><circle cx="256" cy="150" r="4.62" fill="#FFC531"></circle><circle cx="228" cy="212" r="13" fill="#4A332A"></circle><circle cx="232.68" cy="207.32" r="4.16" fill="#FFF"></circle><circle cx="286" cy="212" r="13" fill="#4A332A"></circle><circle cx="290.68" cy="207.32" r="4.16" fill="#FFF"></circle><path d="M 246 240 Q 257 247.7 268 240" stroke="#4A332A" stroke-width="7" fill="none" stroke-linecap="round"></path><ellipse cx="206" cy="236" rx="11" ry="7.699999999999999" fill="#F49BB8"></ellipse><ellipse cx="308" cy="236" rx="11" ry="7.699999999999999" fill="#F49BB8"></ellipse></svg>