<svg xmlns="http://www.w3.org/2000/svg" width="512" height="512" viewBox="0 0 512 512"><ellipse cx="256" cy="454" rx="118" ry="12" fill="#5A3E2E" opacity="0.11"></ellipse><ellipse cx="256" cy="432" rx="120" ry="24" fill="#E9D4AE"></ellipse><rect x="238" y="282" width="36" height="152" rx="17" fill="#A0764E"></rect><circle cx="176" cy="278" r="62" fill="#F8C4D4"></circle><circle cx="336" cy="278" r="62" fill="#F8C4D4"></circle><circle cx="256" cy="212" r="96" fill="#F8C4D4"></circle><circle cx="196.0" cy="209.0" r="7.92" fill="#F49BB8"></circle><circle cx="206.5" cy="216.6" r="7.92" fill="#F49BB8"></circle><circle cx="202.5" cy="228.9" r="7.92" fill="#F49BB8"></circle><circle cx="189.5" cy="228.9" r="7.92" fill="#F49BB8"></circle><circle cx="185.5" cy="216.6" r="7.92" fill="#F49BB8"></circle><circle cx="196" cy="220" r="4.62" fill="#FFC531"></circle><circle cx="318.0" cy="215.0" r="7.92" fill="#F49BB8"></circle><circle cx="328.5" cy="222.6" r="7.92" fill="#F49BB8"></circle><circle cx="324.5" cy="234.9" r="7.92" fill="#F49BB8"></circle><circle cx="311.5" cy="234.9" r="7.92" fill="#F49BB8"></circle><circle cx="307.5" cy="222.6" r="7.92" fill="#F49BB8"></circle><circle cx="318" cy="226" r="4.62" fill="#FFC531"></circle><circle cx="256.0" cy="133.0" r="7.92" fill="#F49BB8"></circle><circle cx="266.5" cy="140.6" r="7.92" fill="#F49BB8"></circle><circle cx="262.5" cy="152.9" r="7.92" fill="#F49BB8"></circle><circle cx="249.5" cy="152.9" r="7.92" fill="#F49BB8"></circle><circle cx="245.5" cy="140.6" r="7.92" fill="#F49BB8"></circle><circle cx="256" cy="144" r="4.62" fill="#FFC531"></circle><ellipse cx="130" cy="360" rx="9" ry="6" fill="#F49BB8" transform="rotate(-24 130 360)"></ellipse><ellipse cx="392" cy="340" rx="9" ry="6" fill="#F49BB8" transform="rotate(24 392 340)"></ellipse><ellipse cx="360" cy="410" rx="8" ry="5" fill="#F49BB8" transform="rotate(40 360 410)"></ellipse><path d="M 215 219 Q 228 197 241 219" stroke="#4A332A" stroke-width="11" fill="none" stroke-linecap="round"></path><path d="M 273 219 Q 286 197 299 219" stroke="#4A332A" stroke-width="11" fill="none" stroke-linecap="round"></path><path d="M 240 242 Q 256 256 272 242" stroke="#4A332A" stroke-width="8" fill="none" stroke-linecap="round"></path><ellipse cx="206" cy="236" rx="11" ry="7.699999999999999" fill="#F49BB8"></ellipse><ellipse cx="308" cy="236" rx="11" ry="7.699999999999999" fill="#F49BB8"></ellipse><path d="M 104 136 Q 107.36 146.64 118 150 Q 107.36 153.36 104 164 Q 100.64 153.36 90 150 Q 100.64 146.64 104 136 Z" fill="#FFBD33"></path><path d="M 416 137 Q 419.12 146.88 429 150 Q 419.12 153.12 416 163 Q 412.88 153.12 403 150 Q 412.88 146.88 416 137 Z" fill="#FFBD33"></path></svg>