<svg xmlns="http://www.w3.org/2000/svg" width="512" height="512" viewBox="0 0 512 512"><ellipse cx="256" cy="444" rx="116" ry="12" fill="#5A3E2E" opacity="0.13"></ellipse><circle cx="192" cy="198" r="38" fill="#A5D98F"></circle><circle cx="320" cy="198" r="38" fill="#A5D98F"></circle><rect x="193" y="426" width="38" height="16" rx="8" fill="#7CBE6B"></rect><rect x="281" y="426" width="38" height="16" rx="8" fill="#7CBE6B"></rect><ellipse cx="256" cy="308" rx="134" ry="118" fill="#A5D98F"></ellipse><ellipse cx="256" cy="362" rx="84" ry="54" fill="#F1F8DB"></ellipse><path d="M 177 203 Q 192 181 207 203" stroke="#4A332A" stroke-width="11" fill="none" stroke-linecap="round"></path><path d="M 305 203 Q 320 181 335 203" stroke="#4A332A" stroke-width="11" fill="none" stroke-linecap="round"></path><path d="M 228 314 Q 256 338 284 314" stroke="#4A332A" stroke-width="9" fill="none" stroke-linecap="round"></path><ellipse cx="166" cy="328" rx="16" ry="11.2" fill="#FFAB8E"></ellipse><ellipse cx="346" cy="328" rx="16" ry="11.2" fill="#FFAB8E"></ellipse><path d="M 232 172 L 230.8 151.6 L 246.4 162.4 L 256 146.8 L 265.6 162.4 L 281.2 151.6 L 280 172 Q 256 178 232 172 Z" fill="#FFC531"></path><circle cx="256" cy="143.68" r="4.08" fill="#FFC531"></circle><path d="M 112 125 Q 115.6 136.4 127 140 Q 115.6 143.6 112 155 Q 108.4 143.6 97 140 Q 108.4 136.4 112 125 Z" fill="#FFBD33"></path><path d="M 400 100 Q 404.32 113.68 418 118 Q 404.32 122.32 400 136 Q 395.68 122.32 382 118 Q 395.68 113.68 400 100 Z" fill="#FFBD33"></path><path d="M 430 240 Q 432.4 247.6 440 250 Q 432.4 252.4 430 260 Q 427.6 252.4 420 250 Q 427.6 247.6 430 240 Z" fill="#FFBD33"></path><path d="M 84 222 Q 86.4 229.6 94 232 Q 86.4 234.4 84 242 Q 81.6 234.4 74 232 Q 81.6 229.6 84 222 Z" fill="#FFBD33"></path></svg>