<svg xmlns="http://www.w3.org/2000/svg" width="512" height="512" viewBox="0 0 512 512"><ellipse cx="256" cy="438" rx="112" ry="12" fill="#5A3E2E" opacity="0.12"></ellipse><g transform="rotate(-6 198 244)"><ellipse cx="198" cy="214" rx="24" ry="30" fill="#FBEFE9"></ellipse><ellipse cx="198" cy="220" rx="12" ry="12" fill="#F8B9C4"></ellipse></g><g transform="rotate(6 314 244)"><ellipse cx="314" cy="214" rx="24" ry="30" fill="#FBEFE9"></ellipse><ellipse cx="314" cy="220" rx="12" ry="12" fill="#F8B9C4"></ellipse></g><ellipse cx="256" cy="336" rx="146" ry="106" fill="#FBEFE9"></ellipse><circle cx="214" cy="318" r="14" fill="#4A332A"></circle><circle cx="219.04" cy="312.96" r="4.48" fill="#FFF"></circle><circle cx="298" cy="318" r="14" fill="#4A332A"></circle><circle cx="303.04" cy="312.96" r="4.48" fill="#FFF"></circle><ellipse cx="256" cy="338" rx="8" ry="6" fill="#F58E82"></ellipse><path d="M 244 352 Q 250 361 256 352 Q 262 361 268 352" stroke="#4A332A" stroke-width="7" fill="none" stroke-linecap="round"></path><ellipse cx="182" cy="348" rx="16" ry="11.2" fill="#FFB4A2"></ellipse><ellipse cx="330" cy="348" rx="16" ry="11.2" fill="#FFB4A2"></ellipse></svg>