<svg xmlns="http://www.w3.org/2000/svg" width="512" height="512" viewBox="0 0 512 512"><ellipse cx="256" cy="440" rx="110" ry="12" fill="#5A3E2E" opacity="0.12"></ellipse><g transform="rotate(-6 202 260)"><ellipse cx="202" cy="208" rx="24" ry="52" fill="#FBEFE9"></ellipse><ellipse cx="202" cy="214" rx="12" ry="34" fill="#F8B9C4"></ellipse></g><g transform="rotate(6 310 260)"><ellipse cx="310" cy="208" rx="24" ry="52" fill="#FBEFE9"></ellipse><ellipse cx="310" cy="214" rx="12" ry="34" fill="#F8B9C4"></ellipse></g><ellipse cx="256" cy="322" rx="132" ry="120" fill="#FBEFE9"></ellipse><circle cx="212" cy="300" r="14" fill="#4A332A"></circle><circle cx="217.04" cy="294.96" r="4.48" fill="#FFF"></circle><circle cx="300" cy="300" r="14" fill="#4A332A"></circle><circle cx="305.04" cy="294.96" r="4.48" fill="#FFF"></circle><ellipse cx="256" cy="324" rx="8" ry="6" fill="#F58E82"></ellipse><path d="M 244 338 Q 250 347 256 338 Q 262 347 268 338" stroke="#4A332A" stroke-width="7" fill="none" stroke-linecap="round"></path><ellipse cx="180" cy="332" rx="16" ry="11.2" fill="#FFB4A2"></ellipse><ellipse cx="332" cy="332" rx="16" ry="11.2" fill="#FFB4A2"></ellipse></svg>