<svg xmlns="http://www.w3.org/2000/svg" width="512" height="512" viewBox="0 0 512 512"><ellipse cx="256" cy="442" rx="112" ry="12" fill="#5A3E2E" opacity="0.12"></ellipse><g transform="rotate(-7 204 258)"><ellipse cx="204" cy="182" rx="24" ry="76" fill="#FBEFE9"></ellipse><ellipse cx="204" cy="188" rx="12" ry="58" fill="#F8B9C4"></ellipse></g><g transform="rotate(7 308 258)"><ellipse cx="308" cy="182" rx="24" ry="76" fill="#FBEFE9"></ellipse><ellipse cx="308" cy="188" rx="12" ry="58" fill="#F8B9C4"></ellipse></g><ellipse cx="256" cy="316" rx="130" ry="124" fill="#FBEFE9"></ellipse><circle cx="212" cy="292" r="14" fill="#4A332A"></circle><circle cx="217.04" cy="286.96" r="4.48" fill="#FFF"></circle><circle cx="300" cy="292" r="14" fill="#4A332A"></circle><circle cx="305.04" cy="286.96" r="4.48" fill="#FFF"></circle><ellipse cx="256" cy="316" rx="8" ry="6" fill="#F58E82"></ellipse><rect x="245" y="326" width="22" height="16" rx="5" fill="#FFFFFF"></rect><path d="M 256 329 L 256 339" stroke="#EBD9D2" stroke-width="3"></path><ellipse cx="180" cy="326" rx="16" ry="11.2" fill="#FFB4A2"></ellipse><ellipse cx="332" cy="326" rx="16" ry="11.2" fill="#FFB4A2"></ellipse></svg>