<svg xmlns="http://www.w3.org/2000/svg" width="512" height="512" viewBox="0 0 512 512"><ellipse cx="256" cy="446" rx="116" ry="12" fill="#5A3E2E" opacity="0.12"></ellipse><g transform="rotate(-52 208 250)"><ellipse cx="208" cy="148" rx="24" ry="102" fill="#FBEFE9"></ellipse><ellipse cx="208" cy="154" rx="12" ry="84" fill="#F8B9C4"></ellipse></g><g transform="rotate(8 304 250)"><ellipse cx="304" cy="148" rx="24" ry="102" fill="#FBEFE9"></ellipse><ellipse cx="304" cy="154" rx="12" ry="84" fill="#F8B9C4"></ellipse></g><rect x="203" y="426" width="38" height="16" rx="8" fill="#EFD5CB"></rect><rect x="271" y="426" width="38" height="16" rx="8" fill="#EFD5CB"></rect><ellipse cx="256" cy="302" rx="132" ry="140" fill="#FBEFE9"></ellipse><circle cx="212" cy="280" r="14" fill="#4A332A"></circle><circle cx="217.04" cy="274.96" r="4.48" fill="#FFF"></circle><circle cx="300" cy="280" r="14" fill="#4A332A"></circle><circle cx="305.04" cy="274.96" r="4.48" fill="#FFF"></circle><ellipse cx="256" cy="304" rx="8" ry="6" fill="#F58E82"></ellipse><rect x="245" y="314" width="22" height="16" rx="5" fill="#FFFFFF"></rect><path d="M 256 317 L 256 327" stroke="#EBD9D2" stroke-width="3"></path><ellipse cx="180" cy="314" rx="16" ry="11.2" fill="#FFB4A2"></ellipse><ellipse cx="332" cy="314" rx="16" ry="11.2" fill="#FFB4A2"></ellipse></svg>