<svg xmlns="http://www.w3.org/2000/svg" width="512" height="512" viewBox="0 0 512 512"><ellipse cx="256" cy="446" rx="116" ry="12" fill="#5A3E2E" opacity="0.12"></ellipse><g transform="rotate(-10 208 244)"><ellipse cx="208" cy="140" rx="24" ry="104" fill="#FBEFE9"></ellipse><ellipse cx="208" cy="146" rx="12" ry="86" fill="#F8B9C4"></ellipse></g><g transform="rotate(10 304 244)"><ellipse cx="304" cy="140" rx="24" ry="104" fill="#FBEFE9"></ellipse><ellipse cx="304" cy="146" rx="12" ry="86" fill="#F8B9C4"></ellipse></g><rect x="203" y="426" width="38" height="16" rx="8" fill="#EFD5CB"></rect><rect x="271" y="426" width="38" height="16" rx="8" fill="#EFD5CB"></rect><ellipse cx="256" cy="302" rx="132" ry="140" fill="#FBEFE9"></ellipse><path d="M 195 287 Q 212 265 229 287" stroke="#4A332A" stroke-width="11" fill="none" stroke-linecap="round"></path><path d="M 283 287 Q 300 265 317 287" stroke="#4A332A" stroke-width="11" fill="none" stroke-linecap="round"></path><ellipse cx="256" cy="304" rx="8" ry="6" fill="#F58E82"></ellipse><rect x="245" y="314" width="22" height="16" rx="5" fill="#FFFFFF"></rect><path d="M 256 317 L 256 327" stroke="#EBD9D2" stroke-width="3"></path><ellipse cx="180" cy="314" rx="16" ry="11.2" fill="#FFB4A2"></ellipse><ellipse cx="332" cy="314" rx="16" ry="11.2" fill="#FFB4A2"></ellipse><path d="M 233 178 L 231.85 158.45 L 246.8 168.8 L 256 153.85 L 265.2 168.8 L 280.15 158.45 L 279 178 Q 256 183.75 233 178 Z" fill="#FFC531"></path><circle cx="256" cy="150.86" r="3.91" fill="#FFC531"></circle><path d="M 112 125 Q 115.6 136.4 127 140 Q 115.6 143.6 112 155 Q 108.4 143.6 97 140 Q 108.4 136.4 112 125 Z" fill="#FFBD33"></path><path d="M 400 100 Q 404.32 113.68 418 118 Q 404.32 122.32 400 136 Q 395.68 122.32 382 118 Q 395.68 113.68 400 100 Z" fill="#FFBD33"></path><path d="M 430 240 Q 432.4 247.6 440 250 Q 432.4 252.4 430 260 Q 427.6 252.4 420 250 Q 427.6 247.6 430 240 Z" fill="#FFBD33"></path><path d="M 84 222 Q 86.4 229.6 94 232 Q 86.4 234.4 84 242 Q 81.6 234.4 74 232 Q 81.6 229.6 84 222 Z" fill="#FFBD33"></path></svg>