<svg xmlns="http://www.w3.org/2000/svg" width="512" height="512" viewBox="0 0 512 512"><ellipse cx="256" cy="440" rx="110" ry="12" fill="#5A3E2E" opacity="0.12"></ellipse><circle cx="176" cy="228" r="28" fill="#4A4543"></circle><circle cx="336" cy="228" r="28" fill="#4A4543"></circle><ellipse cx="256" cy="322" rx="138" ry="120" fill="#FBF6EE"></ellipse><ellipse cx="212" cy="300" rx="18.04" ry="22.959999999999997" fill="#4A4543" transform="rotate(-14 212 300)"></ellipse><circle cx="212" cy="300" r="7.38" fill="#FFF"></circle><circle cx="212" cy="300" r="3.69" fill="#4A332A"></circle><ellipse cx="300" cy="300" rx="18.04" ry="22.959999999999997" fill="#4A4543" transform="rotate(14 300 300)"></ellipse><circle cx="300" cy="300" r="7.38" fill="#FFF"></circle><circle cx="300" cy="300" r="3.69" fill="#4A332A"></circle><ellipse cx="256" cy="336" rx="11" ry="9" fill="#4A332A"></ellipse><path d="M 244 352 Q 250 361 256 352 Q 262 361 268 352" stroke="#4A332A" stroke-width="7" fill="none" stroke-linecap="round"></path><ellipse cx="178" cy="334" rx="16" ry="11.2" fill="#FFAB8E"></ellipse><ellipse cx="334" cy="334" rx="16" ry="11.2" fill="#FFAB8E"></ellipse></svg>