<svg xmlns="http://www.w3.org/2000/svg" width="512" height="512" viewBox="0 0 512 512"><ellipse cx="256" cy="442" rx="112" ry="12" fill="#5A3E2E" opacity="0.12"></ellipse><circle cx="172" cy="220" r="30" fill="#4A4543"></circle><circle cx="340" cy="220" r="30" fill="#4A4543"></circle><ellipse cx="132" cy="330" rx="30" ry="54" fill="#4A4543" transform="rotate(22 132 330)"></ellipse><ellipse cx="380" cy="330" rx="30" ry="54" fill="#4A4543" transform="rotate(-22 380 330)"></ellipse><ellipse cx="256" cy="316" rx="134" ry="126" fill="#FBF6EE"></ellipse><ellipse cx="210" cy="294" rx="20.240000000000002" ry="25.76" fill="#4A4543" transform="rotate(-14 210 294)"></ellipse><circle cx="210" cy="294" r="8.280000000000001" fill="#FFF"></circle><circle cx="210" cy="294" r="4.140000000000001" fill="#4A332A"></circle><ellipse cx="302" cy="294" rx="20.240000000000002" ry="25.76" fill="#4A4543" transform="rotate(14 302 294)"></ellipse><circle cx="302" cy="294" r="8.280000000000001" fill="#FFF"></circle><circle cx="302" cy="294" r="4.140000000000001" fill="#4A332A"></circle><ellipse cx="256" cy="332" rx="11" ry="9" fill="#4A332A"></ellipse><path d="M 244 348 Q 250 357 256 348 Q 262 357 268 348" stroke="#4A332A" stroke-width="7" fill="none" stroke-linecap="round"></path><ellipse cx="174" cy="328" rx="16" ry="11.2" fill="#FFAB8E"></ellipse><ellipse cx="338" cy="328" rx="16" ry="11.2" fill="#FFAB8E"></ellipse></svg>