<svg xmlns="http://www.w3.org/2000/svg" width="512" height="512" viewBox="0 0 512 512"><ellipse cx="256" cy="444" rx="116" ry="12" fill="#5A3E2E" opacity="0.12"></ellipse><circle cx="170" cy="210" r="32" fill="#4A4543"></circle><circle cx="342" cy="210" r="32" fill="#4A4543"></circle><ellipse cx="128" cy="322" rx="32" ry="58" fill="#4A4543" transform="rotate(24 128 322)"></ellipse><ellipse cx="384" cy="322" rx="32" ry="58" fill="#4A4543" transform="rotate(-24 384 322)"></ellipse><rect x="201" y="424" width="38" height="16" rx="8" fill="#4A4543"></rect><rect x="273" y="424" width="38" height="16" rx="8" fill="#4A4543"></rect><ellipse cx="256" cy="310" rx="138" ry="132" fill="#FBF6EE"></ellipse><ellipse cx="208" cy="288" rx="21.56" ry="27.439999999999998" fill="#4A4543" transform="rotate(-14 208 288)"></ellipse><circle cx="208" cy="288" r="8.82" fill="#FFF"></circle><circle cx="208" cy="288" r="4.41" fill="#4A332A"></circle><ellipse cx="304" cy="288" rx="21.56" ry="27.439999999999998" fill="#4A4543" transform="rotate(14 304 288)"></ellipse><circle cx="304" cy="288" r="8.82" fill="#FFF"></circle><circle cx="304" cy="288" r="4.41" fill="#4A332A"></circle><ellipse cx="256" cy="328" rx="12" ry="9" fill="#4A332A"></ellipse><path d="M 244 344 Q 250 353 256 344 Q 262 353 268 344" stroke="#4A332A" stroke-width="7" fill="none" stroke-linecap="round"></path><ellipse cx="172" cy="322" rx="16" ry="11.2" fill="#FFAB8E"></ellipse><ellipse cx="340" cy="322" rx="16" ry="11.2" fill="#FFAB8E"></ellipse></svg>