<svg xmlns="http://www.w3.org/2000/svg" width="512" height="512" viewBox="0 0 512 512"><ellipse cx="256" cy="446" rx="118" ry="12" fill="#5A3E2E" opacity="0.12"></ellipse><circle cx="166" cy="202" r="34" fill="#4A4543"></circle><circle cx="346" cy="202" r="34" fill="#4A4543"></circle><ellipse cx="124" cy="316" rx="34" ry="62" fill="#4A4543" transform="rotate(26 124 316)"></ellipse><ellipse cx="388" cy="316" rx="34" ry="62" fill="#4A4543" transform="rotate(-26 388 316)"></ellipse><rect x="199" y="430" width="38" height="16" rx="8" fill="#4A4543"></rect><rect x="275" y="430" width="38" height="16" rx="8" fill="#4A4543"></rect><ellipse cx="256" cy="304" rx="142" ry="138" fill="#FBF6EE"></ellipse><path d="M 350 372 Q 368 330 360 292" stroke="#6FB05C" stroke-width="8" fill="none" stroke-linecap="round"></path><ellipse cx="352" cy="296" rx="9" ry="22" fill="#8FCB7A" transform="rotate(18 352 296)"></ellipse><ellipse cx="372" cy="316" rx="9" ry="22" fill="#8FCB7A" transform="rotate(40 372 316)"></ellipse><ellipse cx="208" cy="282" rx="22" ry="28" fill="#4A4543" transform="rotate(-14 208 282)"></ellipse><circle cx="208" cy="282" r="9" fill="#FFF"></circle><circle cx="208" cy="282" r="4.5" fill="#4A332A"></circle><ellipse cx="304" cy="282" rx="22" ry="28" fill="#4A4543" transform="rotate(14 304 282)"></ellipse><circle cx="304" cy="282" r="9" fill="#FFF"></circle><circle cx="304" cy="282" r="4.5" fill="#4A332A"></circle><ellipse cx="256" cy="322" rx="12" ry="9" fill="#4A332A"></ellipse><path d="M 244 338 Q 250 347 256 338 Q 262 347 268 338" stroke="#4A332A" stroke-width="7" fill="none" stroke-linecap="round"></path><ellipse cx="170" cy="316" rx="16" ry="11.2" fill="#FFAB8E"></ellipse><ellipse cx="342" cy="316" rx="16" ry="11.2" fill="#FFAB8E"></ellipse></svg>