<svg xmlns="http://www.w3.org/2000/svg" width="512" height="512" viewBox="0 0 512 512"><ellipse cx="256" cy="446" rx="118" ry="12" fill="#5A3E2E" opacity="0.12"></ellipse><circle cx="166" cy="202" r="34" fill="#4A4543"></circle><circle cx="346" cy="202" r="34" fill="#4A4543"></circle><ellipse cx="124" cy="316" rx="34" ry="62" fill="#4A4543" transform="rotate(26 124 316)"></ellipse><ellipse cx="388" cy="316" rx="34" ry="62" fill="#4A4543" transform="rotate(-26 388 316)"></ellipse><rect x="199" y="430" width="38" height="16" rx="8" fill="#4A4543"></rect><rect x="275" y="430" width="38" height="16" rx="8" fill="#4A4543"></rect><ellipse cx="256" cy="304" rx="142" ry="138" fill="#FBF6EE"></ellipse><ellipse cx="208" cy="282" rx="22" ry="28" fill="#4A4543" transform="rotate(-14 208 282)"></ellipse><path d="M 198 285 Q 208 271 218 285" stroke="#FFF" stroke-width="7" fill="none" stroke-linecap="round"></path><ellipse cx="304" cy="282" rx="22" ry="28" fill="#4A4543" transform="rotate(14 304 282)"></ellipse><path d="M 294 285 Q 304 271 314 285" stroke="#FFF" stroke-width="7" fill="none" stroke-linecap="round"></path><ellipse cx="256" cy="322" rx="12" ry="9" fill="#4A332A"></ellipse><path d="M 242 338 Q 256 352 270 338" stroke="#4A332A" stroke-width="8" fill="none" stroke-linecap="round"></path><ellipse cx="170" cy="316" rx="16" ry="11.2" fill="#FFAB8E"></ellipse><ellipse cx="342" cy="316" rx="16" ry="11.2" fill="#FFAB8E"></ellipse><path d="M 231 140 L 229.75 118.75 L 246 130 L 256 113.75 L 266 130 L 282.25 118.75 L 281 140 Q 256 146.25 231 140 Z" fill="#FFC531"></path><circle cx="256" cy="110.5" r="4.25" fill="#FFC531"></circle><path d="M 112 125 Q 115.6 136.4 127 140 Q 115.6 143.6 112 155 Q 108.4 143.6 97 140 Q 108.4 136.4 112 125 Z" fill="#FFBD33"></path><path d="M 400 100 Q 404.32 113.68 418 118 Q 404.32 122.32 400 136 Q 395.68 122.32 382 118 Q 395.68 113.68 400 100 Z" fill="#FFBD33"></path><path d="M 430 240 Q 432.4 247.6 440 250 Q 432.4 252.4 430 260 Q 427.6 252.4 420 250 Q 427.6 247.6 430 240 Z" fill="#FFBD33"></path><path d="M 84 222 Q 86.4 229.6 94 232 Q 86.4 234.4 84 242 Q 81.6 234.4 74 232 Q 81.6 229.6 84 222 Z" fill="#FFBD33"></path></svg>