<svg xmlns="http://www.w3.org/2000/svg" width="512" height="512" viewBox="0 0 512 512"><ellipse cx="256" cy="444" rx="104" ry="12" fill="#5A3E2E" opacity="0.14"></ellipse><g transform="rotate(-4 256 300)"><ellipse cx="256" cy="290" rx="128" ry="140" fill="#F5EFE2"></ellipse><ellipse cx="204" cy="374" rx="7" ry="5.6" fill="#E3D8C2"></ellipse><ellipse cx="314" cy="366" rx="6" ry="4.8" fill="#E3D8C2"></ellipse><ellipse cx="218" cy="198" rx="8" ry="6.4" fill="#E3D8C2"></ellipse><path d="M 176 268 L 202 248 L 228 268 L 256 244 L 286 268 L 312 250 L 336 266" stroke="#6B7A4E" stroke-width="9" fill="none" stroke-linecap="round" stroke-linejoin="round"></path><path d="M 228 268 L 256 244 L 286 268 L 256 292 Z" fill="#6B7A4E" stroke="#6B7A4E" stroke-width="9" stroke-linejoin="round"></path><circle cx="256" cy="268" r="13.5" fill="#FFFFFF"></circle><circle cx="256" cy="268" r="8.5" fill="#4A332A"></circle><circle cx="259.5" cy="264.5" r="2.8" fill="#FFFFFF"></circle><ellipse cx="198" cy="330" rx="16" ry="11.2" fill="#FFAB8E"></ellipse><ellipse cx="318" cy="330" rx="16" ry="11.2" fill="#FFAB8E"></ellipse></g></svg>