<svg xmlns="http://www.w3.org/2000/svg" width="512" height="512" viewBox="0 0 512 512"><ellipse cx="256" cy="448" rx="112" ry="12" fill="#5A3E2E" opacity="0.14"></ellipse><circle cx="256" cy="230" r="62" fill="#A5D98F"></circle><path d="M 146 368 Q 146 274 256 274 Q 366 274 366 368 Z" fill="#C9A16B"></path><circle cx="256" cy="312" r="17" fill="#B08954"></circle><circle cx="204" cy="334" r="13" fill="#B08954"></circle><circle cx="308" cy="334" r="13" fill="#B08954"></circle><rect x="138" y="362" width="236" height="22" rx="11" fill="#B08954"></rect><circle cx="176" cy="398" r="19" fill="#A5D98F"></circle><circle cx="336" cy="398" r="19" fill="#A5D98F"></circle><circle cx="234" cy="226" r="11" fill="#4A332A"></circle><circle cx="237.96" cy="222.04" r="3.52" fill="#FFF"></circle><circle cx="278" cy="226" r="11" fill="#4A332A"></circle><circle cx="281.96" cy="222.04" r="3.52" fill="#FFF"></circle><path d="M 247 248 Q 256 254.3 265 248" stroke="#4A332A" stroke-width="6" fill="none" stroke-linecap="round"></path><ellipse cx="216" cy="244" rx="9" ry="6.3" fill="#FFAB8E"></ellipse><ellipse cx="296" cy="244" rx="9" ry="6.3" fill="#FFAB8E"></ellipse></svg>