<svg xmlns="http://www.w3.org/2000/svg" width="512" height="512" viewBox="0 0 512 512"><ellipse cx="256" cy="450" rx="116" ry="12" fill="#5A3E2E" opacity="0.14"></ellipse><circle cx="256" cy="216" r="66" fill="#A5D98F"></circle><path d="M 136 380 Q 136 268 256 268 Q 376 268 376 380 Z" fill="#C9A16B"></path><circle cx="256" cy="312" r="19" fill="#B08954"></circle><circle cx="200" cy="338" r="14" fill="#B08954"></circle><circle cx="312" cy="338" r="14" fill="#B08954"></circle><circle cx="256" cy="356" r="12" fill="#B08954"></circle><rect x="128" y="374" width="256" height="24" rx="12" fill="#B08954"></rect><circle cx="170" cy="412" r="20" fill="#A5D98F"></circle><circle cx="342" cy="412" r="20" fill="#A5D98F"></circle><circle cx="232" cy="212" r="12" fill="#4A332A"></circle><circle cx="236.32" cy="207.68" r="3.84" fill="#FFF"></circle><circle cx="280" cy="212" r="12" fill="#4A332A"></circle><circle cx="284.32" cy="207.68" r="3.84" fill="#FFF"></circle><path d="M 246 236 Q 256 243 266 236" stroke="#4A332A" stroke-width="6" fill="none" stroke-linecap="round"></path><ellipse cx="212" cy="230" rx="10" ry="7" fill="#FFAB8E"></ellipse><ellipse cx="300" cy="230" rx="10" ry="7" fill="#FFAB8E"></ellipse></svg>