<svg xmlns="http://www.w3.org/2000/svg" width="512" height="512" viewBox="0 0 512 512"><ellipse cx="256" cy="452" rx="120" ry="12" fill="#5A3E2E" opacity="0.14"></ellipse><circle cx="256" cy="204" r="70" fill="#A5D98F"></circle><path d="M 126 390 Q 126 260 256 260 Q 386 260 386 390 Z" fill="#C9A16B"></path><circle cx="256" cy="308" r="21" fill="#B08954"></circle><circle cx="196" cy="336" r="15" fill="#B08954"></circle><circle cx="316" cy="336" r="15" fill="#B08954"></circle><circle cx="222" cy="286" r="12" fill="#B08954"></circle><circle cx="290" cy="286" r="12" fill="#B08954"></circle><rect x="118" y="384" width="276" height="24" rx="12" fill="#B08954"></rect><circle cx="164" cy="424" r="21" fill="#A5D98F"></circle><circle cx="348" cy="424" r="21" fill="#A5D98F"></circle><circle cx="230" cy="200" r="12" fill="#4A332A"></circle><circle cx="234.32" cy="195.68" r="3.84" fill="#FFF"></circle><circle cx="282" cy="200" r="12" fill="#4A332A"></circle><circle cx="286.32" cy="195.68" r="3.84" fill="#FFF"></circle><path d="M 246 224 Q 256 231 266 224" stroke="#4A332A" stroke-width="6" fill="none" stroke-linecap="round"></path><ellipse cx="208" cy="220" rx="10" ry="7" fill="#FFAB8E"></ellipse><ellipse cx="304" cy="220" rx="10" ry="7" fill="#FFAB8E"></ellipse></svg>