<svg xmlns="http://www.w3.org/2000/svg" width="512" height="512" viewBox="0 0 512 512"><ellipse cx="256" cy="452" rx="120" ry="12" fill="#5A3E2E" opacity="0.14"></ellipse><circle cx="256" cy="204" r="70" fill="#A5D98F"></circle><path d="M 126 390 Q 126 260 256 260 Q 386 260 386 390 Z" fill="#C9A16B"></path><circle cx="256" cy="308" r="21" fill="#B08954"></circle><circle cx="196" cy="336" r="15" fill="#B08954"></circle><circle cx="316" cy="336" r="15" fill="#B08954"></circle><circle cx="222" cy="286" r="12" fill="#B08954"></circle><circle cx="290" cy="286" r="12" fill="#B08954"></circle><rect x="118" y="384" width="276" height="24" rx="12" fill="#B08954"></rect><circle cx="164" cy="424" r="21" fill="#A5D98F"></circle><circle cx="348" cy="424" r="21" fill="#A5D98F"></circle><path d="M 217 207 Q 230 185 243 207" stroke="#4A332A" stroke-width="11" fill="none" stroke-linecap="round"></path><path d="M 269 207 Q 282 185 295 207" stroke="#4A332A" stroke-width="11" fill="none" stroke-linecap="round"></path><path d="M 245 226 Q 256 233.7 267 226" stroke="#4A332A" stroke-width="6" fill="none" stroke-linecap="round"></path><ellipse cx="208" cy="220" rx="10" ry="7" fill="#FFAB8E"></ellipse><ellipse cx="304" cy="220" rx="10" ry="7" fill="#FFAB8E"></ellipse><path d="M 232 140 L 230.8 119.6 L 246.4 130.4 L 256 114.8 L 265.6 130.4 L 281.2 119.6 L 280 140 Q 256 146 232 140 Z" fill="#FFC531"></path><circle cx="256" cy="111.68" r="4.08" fill="#FFC531"></circle><path d="M 112 125 Q 115.6 136.4 127 140 Q 115.6 143.6 112 155 Q 108.4 143.6 97 140 Q 108.4 136.4 112 125 Z" fill="#FFBD33"></path><path d="M 400 100 Q 404.32 113.68 418 118 Q 404.32 122.32 400 136 Q 395.68 122.32 382 118 Q 395.68 113.68 400 100 Z" fill="#FFBD33"></path><path d="M 430 240 Q 432.4 247.6 440 250 Q 432.4 252.4 430 260 Q 427.6 252.4 420 250 Q 427.6 247.6 430 240 Z" fill="#FFBD33"></path><path d="M 84 222 Q 86.4 229.6 94 232 Q 86.4 234.4 84 242 Q 81.6 234.4 74 232 Q 81.6 229.6 84 222 Z" fill="#FFBD33"></path></svg>