<svg xmlns="http://www.w3.org/2000/svg" width="512" height="512" viewBox="0 0 512 512"><ellipse cx="256" cy="446" rx="104" ry="12" fill="#5A3E2E" opacity="0.14"></ellipse><ellipse cx="256" cy="312" rx="134" ry="128" fill="#C9A97E"></ellipse><path d="M 174 224 C 174 172 206 140 256 140 C 306 140 338 172 338 224 L 316 246 L 296 222 L 276 246 L 256 222 L 236 246 L 216 222 L 196 246 Z" fill="#F5EFE2"></path><circle cx="214" cy="306" r="32" fill="#F7EBD7"></circle><circle cx="298" cy="306" r="32" fill="#F7EBD7"></circle><circle cx="214" cy="306" r="12" fill="#4A332A"></circle><circle cx="218.32" cy="301.68" r="3.84" fill="#FFF"></circle><circle cx="298" cy="306" r="12" fill="#4A332A"></circle><circle cx="302.32" cy="301.68" r="3.84" fill="#FFF"></circle><path d="M 244 336 L 256 352 L 268 336 Z" fill="#F2913D" stroke="#F2913D" stroke-width="6" stroke-linejoin="round"></path><ellipse cx="174" cy="340" rx="11" ry="7.699999999999999" fill="#FFAB8E"></ellipse><ellipse cx="338" cy="340" rx="11" ry="7.699999999999999" fill="#FFAB8E"></ellipse></svg>