<svg xmlns="http://www.w3.org/2000/svg" width="512" height="512" viewBox="0 0 512 512"><ellipse cx="256" cy="444" rx="110" ry="12" fill="#5A3E2E" opacity="0.14"></ellipse><ellipse cx="140" cy="316" rx="26" ry="52" fill="#A98650" transform="rotate(20 140 316)"></ellipse><ellipse cx="372" cy="316" rx="26" ry="52" fill="#A98650" transform="rotate(-20 372 316)"></ellipse><rect x="205" y="420" width="38" height="16" rx="8" fill="#F2913D"></rect><rect x="269" y="420" width="38" height="16" rx="8" fill="#F2913D"></rect><ellipse cx="256" cy="308" rx="130" ry="132" fill="#C9A97E"></ellipse><circle cx="212" cy="284" r="38" fill="#F7EBD7"></circle><circle cx="300" cy="284" r="38" fill="#F7EBD7"></circle><circle cx="212" cy="284" r="13" fill="#4A332A"></circle><circle cx="216.68" cy="279.32" r="4.16" fill="#FFF"></circle><circle cx="300" cy="284" r="13" fill="#4A332A"></circle><circle cx="304.68" cy="279.32" r="4.16" fill="#FFF"></circle><path d="M 242 316 L 256 334 L 270 316 Z" fill="#F2913D" stroke="#F2913D" stroke-width="6" stroke-linejoin="round"></path><path d="M 188 370 q 17 16 34 0" stroke="#A98650" stroke-width="6" fill="none" stroke-linecap="round"></path><path d="M 222 370 q 17 16 34 0" stroke="#A98650" stroke-width="6" fill="none" stroke-linecap="round"></path><path d="M 256 370 q 17 16 34 0" stroke="#A98650" stroke-width="6" fill="none" stroke-linecap="round"></path><path d="M 290 370 q 17 16 34 0" stroke="#A98650" stroke-width="6" fill="none" stroke-linecap="round"></path><ellipse cx="166" cy="320" rx="11" ry="7.699999999999999" fill="#FFAB8E"></ellipse><ellipse cx="346" cy="320" rx="11" ry="7.699999999999999" fill="#FFAB8E"></ellipse></svg>