<svg xmlns="http://www.w3.org/2000/svg" width="512" height="512" viewBox="0 0 512 512"><ellipse cx="256" cy="446" rx="112" ry="12" fill="#5A3E2E" opacity="0.14"></ellipse><path d="M 168 190 L 190 146 L 212 190 Z" fill="#C9A97E" stroke="#C9A97E" stroke-width="12" stroke-linejoin="round" transform="rotate(-14 190 176)"></path><path d="M 300 190 L 322 146 L 344 190 Z" fill="#C9A97E" stroke="#C9A97E" stroke-width="12" stroke-linejoin="round" transform="rotate(14 322 176)"></path><ellipse cx="136" cy="310" rx="27" ry="56" fill="#A98650" transform="rotate(22 136 310)"></ellipse><ellipse cx="376" cy="310" rx="27" ry="56" fill="#A98650" transform="rotate(-22 376 310)"></ellipse><rect x="203" y="424" width="38" height="16" rx="8" fill="#F2913D"></rect><rect x="271" y="424" width="38" height="16" rx="8" fill="#F2913D"></rect><ellipse cx="256" cy="304" rx="132" ry="136" fill="#C9A97E"></ellipse><circle cx="212" cy="276" r="40" fill="#F7EBD7"></circle><circle cx="300" cy="276" r="40" fill="#F7EBD7"></circle><circle cx="212" cy="276" r="13" fill="#4A332A"></circle><circle cx="216.68" cy="271.32" r="4.16" fill="#FFF"></circle><circle cx="300" cy="276" r="13" fill="#4A332A"></circle><circle cx="304.68" cy="271.32" r="4.16" fill="#FFF"></circle><path d="M 242 310 L 256 328 L 270 310 Z" fill="#F2913D" stroke="#F2913D" stroke-width="6" stroke-linejoin="round"></path><path d="M 184 362 q 18 16 36 0" stroke="#A98650" stroke-width="6" fill="none" stroke-linecap="round"></path><path d="M 220 362 q 18 16 36 0" stroke="#A98650" stroke-width="6" fill="none" stroke-linecap="round"></path><path d="M 256 362 q 18 16 36 0" stroke="#A98650" stroke-width="6" fill="none" stroke-linecap="round"></path><path d="M 292 362 q 18 16 36 0" stroke="#A98650" stroke-width="6" fill="none" stroke-linecap="round"></path><path d="M 202 392 q 18 16 36 0" stroke="#A98650" stroke-width="6" fill="none" stroke-linecap="round"></path><path d="M 238 392 q 18 16 36 0" stroke="#A98650" stroke-width="6" fill="none" stroke-linecap="round"></path><path d="M 274 392 q 18 16 36 0" stroke="#A98650" stroke-width="6" fill="none" stroke-linecap="round"></path><ellipse cx="164" cy="314" rx="11" ry="7.699999999999999" fill="#FFAB8E"></ellipse><ellipse cx="348" cy="314" rx="11" ry="7.699999999999999" fill="#FFAB8E"></ellipse></svg>