<svg xmlns="http://www.w3.org/2000/svg" width="512" height="512" viewBox="0 0 512 512"><ellipse cx="256" cy="448" rx="116" ry="12" fill="#5A3E2E" opacity="0.14"></ellipse><path d="M 162 176 L 184 132 L 206 176 Z" fill="#C9A97E" stroke="#C9A97E" stroke-width="12" stroke-linejoin="round" transform="rotate(-14 184 162)"></path><path d="M 306 176 L 328 132 L 350 176 Z" fill="#C9A97E" stroke="#C9A97E" stroke-width="12" stroke-linejoin="round" transform="rotate(14 328 162)"></path><ellipse cx="130" cy="304" rx="29" ry="62" fill="#A98650" transform="rotate(24 130 304)"></ellipse><ellipse cx="382" cy="304" rx="29" ry="62" fill="#A98650" transform="rotate(-24 382 304)"></ellipse><rect x="201" y="430" width="38" height="16" rx="8" fill="#F2913D"></rect><rect x="273" y="430" width="38" height="16" rx="8" fill="#F2913D"></rect><ellipse cx="256" cy="298" rx="138" ry="144" fill="#C9A97E"></ellipse><circle cx="210" cy="266" r="44" fill="#F7EBD7"></circle><circle cx="302" cy="266" r="44" fill="#F7EBD7"></circle><circle cx="210" cy="266" r="14" fill="#4A332A"></circle><circle cx="215.04" cy="260.96" r="4.48" fill="#FFF"></circle><circle cx="302" cy="266" r="14" fill="#4A332A"></circle><circle cx="307.04" cy="260.96" r="4.48" fill="#FFF"></circle><path d="M 240 302 L 256 322 L 272 302 Z" fill="#F2913D" stroke="#F2913D" stroke-width="6" stroke-linejoin="round"></path><path d="M 180 358 q 19 16 38 0" stroke="#A98650" stroke-width="6" fill="none" stroke-linecap="round"></path><path d="M 218 358 q 19 16 38 0" stroke="#A98650" stroke-width="6" fill="none" stroke-linecap="round"></path><path d="M 256 358 q 19 16 38 0" stroke="#A98650" stroke-width="6" fill="none" stroke-linecap="round"></path><path d="M 294 358 q 19 16 38 0" stroke="#A98650" stroke-width="6" fill="none" stroke-linecap="round"></path><path d="M 199 390 q 19 16 38 0" stroke="#A98650" stroke-width="6" fill="none" stroke-linecap="round"></path><path d="M 237 390 q 19 16 38 0" stroke="#A98650" stroke-width="6" fill="none" stroke-linecap="round"></path><path d="M 275 390 q 19 16 38 0" stroke="#A98650" stroke-width="6" fill="none" stroke-linecap="round"></path><path d="M 218 422 q 19 16 38 0" stroke="#A98650" stroke-width="6" fill="none" stroke-linecap="round"></path><path d="M 256 422 q 19 16 38 0" stroke="#A98650" stroke-width="6" fill="none" stroke-linecap="round"></path><ellipse cx="160" cy="306" rx="11" ry="7.699999999999999" fill="#FFAB8E"></ellipse><ellipse cx="352" cy="306" rx="11" ry="7.699999999999999" fill="#FFAB8E"></ellipse></svg>