<svg xmlns="http://www.w3.org/2000/svg" width="512" height="512" viewBox="0 0 512 512"><ellipse cx="256" cy="448" rx="116" ry="12" fill="#5A3E2E" opacity="0.14"></ellipse><path d="M 162 176 L 184 132 L 206 176 Z" fill="#C9A97E" stroke="#C9A97E" stroke-width="12" stroke-linejoin="round" transform="rotate(-14 184 162)"></path><path d="M 306 176 L 328 132 L 350 176 Z" fill="#C9A97E" stroke="#C9A97E" stroke-width="12" stroke-linejoin="round" transform="rotate(14 328 162)"></path><ellipse cx="126" cy="290" rx="29" ry="64" fill="#A98650" transform="rotate(38 126 290)"></ellipse><ellipse cx="386" cy="290" rx="29" ry="64" fill="#A98650" transform="rotate(-38 386 290)"></ellipse><rect x="201" y="430" width="38" height="16" rx="8" fill="#F2913D"></rect><rect x="273" y="430" width="38" height="16" rx="8" fill="#F2913D"></rect><ellipse cx="256" cy="298" rx="138" ry="144" fill="#C9A97E"></ellipse><circle cx="210" cy="266" r="44" fill="#F7EBD7"></circle><circle cx="302" cy="266" r="44" fill="#F7EBD7"></circle><path d="M 196 275 Q 210 253 224 275" stroke="#4A332A" stroke-width="11" fill="none" stroke-linecap="round"></path><path d="M 288 275 Q 302 253 316 275" stroke="#4A332A" stroke-width="11" fill="none" stroke-linecap="round"></path><path d="M 240 302 L 256 322 L 272 302 Z" fill="#F2913D" stroke="#F2913D" stroke-width="6" stroke-linejoin="round"></path><path d="M 180 358 q 19 16 38 0" stroke="#A98650" stroke-width="6" fill="none" stroke-linecap="round"></path><path d="M 218 358 q 19 16 38 0" stroke="#A98650" stroke-width="6" fill="none" stroke-linecap="round"></path><path d="M 256 358 q 19 16 38 0" stroke="#A98650" stroke-width="6" fill="none" stroke-linecap="round"></path><path d="M 294 358 q 19 16 38 0" stroke="#A98650" stroke-width="6" fill="none" stroke-linecap="round"></path><path d="M 199 390 q 19 16 38 0" stroke="#A98650" stroke-width="6" fill="none" stroke-linecap="round"></path><path d="M 237 390 q 19 16 38 0" stroke="#A98650" stroke-width="6" fill="none" stroke-linecap="round"></path><path d="M 275 390 q 19 16 38 0" stroke="#A98650" stroke-width="6" fill="none" stroke-linecap="round"></path><ellipse cx="160" cy="306" rx="11" ry="7.699999999999999" fill="#FFAB8E"></ellipse><ellipse cx="352" cy="306" rx="11" ry="7.699999999999999" fill="#FFAB8E"></ellipse><path d="M 233 120 L 231.85 100.45 L 246.8 110.8 L 256 95.85 L 265.2 110.8 L 280.15 100.45 L 279 120 Q 256 125.75 233 120 Z" fill="#FFC531"></path><circle cx="256" cy="92.86" r="3.91" fill="#FFC531"></circle><path d="M 112 125 Q 115.6 136.4 127 140 Q 115.6 143.6 112 155 Q 108.4 143.6 97 140 Q 108.4 136.4 112 125 Z" fill="#FFBD33"></path><path d="M 400 100 Q 404.32 113.68 418 118 Q 404.32 122.32 400 136 Q 395.68 122.32 382 118 Q 395.68 113.68 400 100 Z" fill="#FFBD33"></path><path d="M 430 240 Q 432.4 247.6 440 250 Q 432.4 252.4 430 260 Q 427.6 252.4 420 250 Q 427.6 247.6 430 240 Z" fill="#FFBD33"></path><path d="M 84 222 Q 86.4 229.6 94 232 Q 86.4 234.4 84 242 Q 81.6 234.4 74 232 Q 81.6 229.6 84 222 Z" fill="#FFBD33"></path></svg>