<svg xmlns="http://www.w3.org/2000/svg" width="512" height="512" viewBox="0 0 512 512"><ellipse cx="256" cy="438" rx="100" ry="12" fill="#5A3E2E" opacity="0.09"></ellipse><circle cx="256" cy="294" r="148" fill="#FFE08A"></circle><circle cx="196" cy="230" r="18" fill="#F2CE6B"></circle><circle cx="330" cy="384" r="14" fill="#F2CE6B"></circle><path d="M 156 200 Q 200 120 300 132 L 344 196 Q 250 170 172 218 Z" fill="#9EC1DB"></path><circle cx="348" cy="196" r="17" fill="#FBF6EE"></circle><path d="M 156 202 Q 250 158 346 200" stroke="#8AB0CE" stroke-width="12" fill="none" stroke-linecap="round"></path><path d="M 207 291 Q 220 309 233 291" stroke="#4A332A" stroke-width="11" fill="none" stroke-linecap="round"></path><path d="M 279 291 Q 292 309 305 291" stroke="#4A332A" stroke-width="11" fill="none" stroke-linecap="round"></path><path d="M 245 322 Q 256 329.7 267 322" stroke="#4A332A" stroke-width="6" fill="none" stroke-linecap="round"></path><ellipse cx="190" cy="324" rx="11" ry="7.699999999999999" fill="#F9A44A"></ellipse><ellipse cx="322" cy="324" rx="11" ry="7.699999999999999" fill="#F9A44A"></ellipse><path d="M 420 168 Q 422.88 177.12 432 180 Q 422.88 182.88 420 192 Q 417.12 182.88 408 180 Q 417.12 177.12 420 168 Z" fill="#FFBD33"></path><path d="M 96 290 Q 98.4 297.6 106 300 Q 98.4 302.4 96 310 Q 93.6 302.4 86 300 Q 93.6 297.6 96 290 Z" fill="#FFBD33"></path></svg>