<svg xmlns="http://www.w3.org/2000/svg" width="512" height="512" viewBox="0 0 512 512"><ellipse cx="256" cy="438" rx="100" ry="12" fill="#5A3E2E" opacity="0.09"></ellipse><circle cx="256" cy="294" r="148" fill="#FFE08A"></circle><circle cx="196" cy="230" r="18" fill="#F2CE6B"></circle><circle cx="330" cy="384" r="14" fill="#F2CE6B"></circle><path d="M 206 297 Q 220 275 234 297" stroke="#4A332A" stroke-width="11" fill="none" stroke-linecap="round"></path><path d="M 278 297 Q 292 275 306 297" stroke="#4A332A" stroke-width="11" fill="none" stroke-linecap="round"></path><path d="M 244 320 Q 256 328.4 268 320" stroke="#4A332A" stroke-width="7" fill="none" stroke-linecap="round"></path><ellipse cx="190" cy="320" rx="11" ry="7.699999999999999" fill="#F9A44A"></ellipse><ellipse cx="322" cy="320" rx="11" ry="7.699999999999999" fill="#F9A44A"></ellipse><path d="M 232 140 L 230.8 119.6 L 246.4 130.4 L 256 114.8 L 265.6 130.4 L 281.2 119.6 L 280 140 Q 256 146 232 140 Z" fill="#FFC531"></path><circle cx="256" cy="111.68" r="4.08" fill="#FFC531"></circle><path d="M 112 125 Q 115.6 136.4 127 140 Q 115.6 143.6 112 155 Q 108.4 143.6 97 140 Q 108.4 136.4 112 125 Z" fill="#FFBD33"></path><path d="M 400 100 Q 404.32 113.68 418 118 Q 404.32 122.32 400 136 Q 395.68 122.32 382 118 Q 395.68 113.68 400 100 Z" fill="#FFBD33"></path><path d="M 430 240 Q 432.4 247.6 440 250 Q 432.4 252.4 430 260 Q 427.6 252.4 420 250 Q 427.6 247.6 430 240 Z" fill="#FFBD33"></path><path d="M 84 222 Q 86.4 229.6 94 232 Q 86.4 234.4 84 242 Q 81.6 234.4 74 232 Q 81.6 229.6 84 222 Z" fill="#FFBD33"></path></svg>