<svg xmlns="http://www.w3.org/2000/svg" width="512" height="512" viewBox="0 0 512 512"><ellipse cx="256" cy="446" rx="104" ry="12" fill="#D99A33" opacity="0.16"></ellipse><ellipse cx="116" cy="342" rx="27" ry="50" fill="#F0B73F" transform="rotate(24 116 342)"></ellipse><ellipse cx="396" cy="342" rx="27" ry="50" fill="#F0B73F" transform="rotate(-24 396 342)"></ellipse><ellipse cx="256" cy="312" rx="134" ry="128" fill="#FFD65C"></ellipse><path d="M 174 224 C 174 172 206 140 256 140 C 306 140 338 172 338 224 L 316 246 L 296 222 L 276 246 L 256 222 L 236 246 L 216 222 L 196 246 Z" fill="#FCEBC4"></path><ellipse cx="222" cy="178" rx="6" ry="4.800000000000001" fill="#EBD5A0"></ellipse><ellipse cx="288" cy="170" rx="7" ry="5.6000000000000005" fill="#EBD5A0"></ellipse><circle cx="214" cy="306" r="14" fill="#4A332A"></circle><circle cx="219" cy="301" r="4.5" fill="#FFFFFF"></circle><circle cx="298" cy="306" r="14" fill="#4A332A"></circle><circle cx="303" cy="301" r="4.5" fill="#FFFFFF"></circle><path d="M 239 336 Q 256 321 273 336 Q 256 353 239 336 Z" fill="#F2913D"></path><ellipse cx="186" cy="340" rx="16" ry="11" fill="#FFAB8E"></ellipse><ellipse cx="326" cy="340" rx="16" ry="11" fill="#FFAB8E"></ellipse></svg>