<svg xmlns="http://www.w3.org/2000/svg" width="512" height="512" viewBox="0 0 512 512"><ellipse cx="256" cy="442" rx="110" ry="12" fill="#D99A33" opacity="0.16"></ellipse><rect x="201" y="414" width="38" height="16" rx="8" fill="#F2913D"></rect><rect x="273" y="414" width="38" height="16" rx="8" fill="#F2913D"></rect><ellipse cx="150" cy="302" rx="27" ry="50" fill="#F0B73F" transform="rotate(20 150 302)"></ellipse><ellipse cx="362" cy="302" rx="27" ry="50" fill="#F0B73F" transform="rotate(-20 362 302)"></ellipse><path d="M 256 118 C 196 118 156 166 152 240 C 148 316 160 424 256 424 C 352 424 364 316 360 240 C 356 166 316 118 256 118 Z" fill="#FFD65C"></path><path d="M 232 128 Q 220 102 232 88" stroke="#F0B73F" stroke-width="9" fill="none" stroke-linecap="round"></path><path d="M 280 128 Q 292 104 284 92" stroke="#F0B73F" stroke-width="9" fill="none" stroke-linecap="round"></path><path d="M 256 122 Q 254 92 266 82" stroke="#F0B73F" stroke-width="9" fill="none" stroke-linecap="round"></path><circle cx="214" cy="252" r="14" fill="#4A332A"></circle><circle cx="219" cy="247" r="4.5" fill="#FFFFFF"></circle><circle cx="298" cy="252" r="14" fill="#4A332A"></circle><circle cx="303" cy="247" r="4.5" fill="#FFFFFF"></circle><path d="M 239 280 Q 256 265 273 280 Q 256 297 239 280 Z" fill="#F2913D"></path><ellipse cx="188" cy="288" rx="16" ry="11" fill="#FFAB8E"></ellipse><ellipse cx="324" cy="288" rx="16" ry="11" fill="#FFAB8E"></ellipse></svg>