<svg xmlns="http://www.w3.org/2000/svg" width="512" height="512" viewBox="0 0 512 512"><ellipse cx="256" cy="444" rx="116" ry="12" fill="#D99A33" opacity="0.16"></ellipse><rect x="199" y="416" width="38" height="16" rx="8" fill="#F2913D"></rect><rect x="275" y="416" width="38" height="16" rx="8" fill="#F2913D"></rect><path d="M 352 296 Q 404 272 400 220" stroke="#F0B73F" stroke-width="14" fill="none" stroke-linecap="round"></path><circle cx="240" cy="114" r="13" fill="#E4574D"></circle><circle cx="268" cy="107" r="15" fill="#E4574D"></circle><ellipse cx="146" cy="300" rx="27" ry="50" fill="#F0B73F" transform="rotate(20 146 300)"></ellipse><ellipse cx="364" cy="306" rx="27" ry="50" fill="#F0B73F" transform="rotate(-20 364 306)"></ellipse><path d="M 256 108 C 192 108 150 158 146 236 C 142 316 156 428 256 428 C 356 428 370 316 366 236 C 362 158 320 108 256 108 Z" fill="#FFD65C"></path><circle cx="212" cy="244" r="14" fill="#4A332A"></circle><circle cx="217" cy="239" r="4.5" fill="#FFFFFF"></circle><circle cx="300" cy="244" r="14" fill="#4A332A"></circle><circle cx="305" cy="239" r="4.5" fill="#FFFFFF"></circle><path d="M 239 272 Q 256 257 273 272 Q 256 289 239 272 Z" fill="#F2913D"></path><ellipse cx="186" cy="280" rx="16" ry="11" fill="#FFAB8E"></ellipse><ellipse cx="326" cy="280" rx="16" ry="11" fill="#FFAB8E"></ellipse></svg>