<svg xmlns="http://www.w3.org/2000/svg" width="512" height="512" viewBox="0 0 512 512"><ellipse cx="256" cy="446" rx="118" ry="12" fill="#D99A33" opacity="0.16"></ellipse><rect x="213" y="398" width="10" height="42" rx="5" fill="#F2913D"></rect><rect x="289" y="398" width="10" height="42" rx="5" fill="#F2913D"></rect><rect x="199" y="432" width="38" height="16" rx="8" fill="#F2913D"></rect><rect x="275" y="432" width="38" height="16" rx="8" fill="#F2913D"></rect><path d="M 344 284 Q 400 250 398 172" stroke="#F0B73F" stroke-width="16" fill="none" stroke-linecap="round"></path><path d="M 350 300 Q 428 270 424 186" stroke="#F2913D" stroke-width="20" fill="none" stroke-linecap="round"></path><path d="M 354 324 Q 448 296 440 234" stroke="#F0B73F" stroke-width="18" fill="none" stroke-linecap="round"></path><circle cx="226" cy="136" r="16" fill="#E4574D"></circle><circle cx="252" cy="119" r="18" fill="#E4574D"></circle><circle cx="280" cy="132" r="15" fill="#E4574D"></circle><ellipse cx="148" cy="304" rx="27" ry="50" fill="#F0B73F" transform="rotate(20 148 304)"></ellipse><ellipse cx="364" cy="304" rx="27" ry="50" fill="#F0B73F" transform="rotate(-20 364 304)"></ellipse><path d="M 256 130 C 194 130 154 180 150 254 C 146 330 160 428 256 428 C 352 428 366 330 362 254 C 358 180 318 130 256 130 Z" fill="#FFD65C"></path><circle cx="214" cy="254" r="14" fill="#4A332A"></circle><circle cx="219" cy="249" r="4.5" fill="#FFFFFF"></circle><circle cx="298" cy="254" r="14" fill="#4A332A"></circle><circle cx="303" cy="249" r="4.5" fill="#FFFFFF"></circle><ellipse cx="256" cy="300" rx="8" ry="11" fill="#E4574D"></ellipse><path d="M 239 282 Q 256 267 273 282 Q 256 299 239 282 Z" fill="#F2913D"></path><ellipse cx="188" cy="290" rx="16" ry="11" fill="#FFAB8E"></ellipse><ellipse cx="324" cy="290" rx="16" ry="11" fill="#FFAB8E"></ellipse></svg>