<svg xmlns="http://www.w3.org/2000/svg" width="512" height="512" viewBox="0 0 512 512"><ellipse cx="256" cy="438" rx="112" ry="12" fill="#5A3E2E" opacity="0.12"></ellipse><g transform="rotate(-8 184 236)"><path d="M 165.4 245.92 L 184 207.48 L 202.6 245.92 Z" fill="#F49B57" stroke="#F49B57" stroke-width="8.68" stroke-linejoin="round"></path><path d="M 175.94 241.58 L 184 222.36 L 192.06 241.58 Z" fill="#E07E38"></path></g><g transform="rotate(8 328 236)"><path d="M 309.4 245.92 L 328 207.48 L 346.6 245.92 Z" fill="#F49B57" stroke="#F49B57" stroke-width="8.68" stroke-linejoin="round"></path><path d="M 319.94 241.58 L 328 222.36 L 336.06 241.58 Z" fill="#E07E38"></path></g><ellipse cx="256" cy="336" rx="146" ry="106" fill="#F49B57"></ellipse><path d="M 198 317 Q 214 335 230 317" stroke="#4A332A" stroke-width="11" fill="none" stroke-linecap="round"></path><path d="M 282 317 Q 298 335 314 317" stroke="#4A332A" stroke-width="11" fill="none" stroke-linecap="round"></path><ellipse cx="256" cy="344" rx="10" ry="8" fill="#4A332A"></ellipse><ellipse cx="184" cy="352" rx="16" ry="11.2" fill="#FFAB8E"></ellipse><ellipse cx="328" cy="352" rx="16" ry="11.2" fill="#FFAB8E"></ellipse></svg>