<svg xmlns="http://www.w3.org/2000/svg" width="512" height="512" viewBox="0 0 512 512"><ellipse cx="256" cy="438" rx="112" ry="12" fill="#5A3E2E" opacity="0.12"></ellipse><g transform="rotate(-8 180 228)"><path d="M 156 240.8 L 180 191.2 L 204 240.8 Z" fill="#F49B57" stroke="#F49B57" stroke-width="11.200000000000001" stroke-linejoin="round"></path><path d="M 169.6 235.2 L 180 210.4 L 190.4 235.2 Z" fill="#E07E38"></path></g><g transform="rotate(8 332 228)"><path d="M 308 240.8 L 332 191.2 L 356 240.8 Z" fill="#F49B57" stroke="#F49B57" stroke-width="11.200000000000001" stroke-linejoin="round"></path><path d="M 321.6 235.2 L 332 210.4 L 342.4 235.2 Z" fill="#E07E38"></path></g><ellipse cx="256" cy="336" rx="146" ry="106" fill="#F49B57"></ellipse><circle cx="214" cy="318" r="14" fill="#4A332A"></circle><circle cx="219.04" cy="312.96" r="4.48" fill="#FFF"></circle><circle cx="298" cy="318" r="14" fill="#4A332A"></circle><circle cx="303.04" cy="312.96" r="4.48" fill="#FFF"></circle><ellipse cx="256" cy="342" rx="10" ry="8" fill="#4A332A"></ellipse><path d="M 244 358 Q 250 367 256 358 Q 262 367 268 358" stroke="#4A332A" stroke-width="7" fill="none" stroke-linecap="round"></path><ellipse cx="182" cy="348" rx="16" ry="11.2" fill="#FFAB8E"></ellipse><ellipse cx="330" cy="348" rx="16" ry="11.2" fill="#FFAB8E"></ellipse></svg>