<svg xmlns="http://www.w3.org/2000/svg" width="512" height="512" viewBox="0 0 512 512"><ellipse cx="256" cy="440" rx="110" ry="12" fill="#5A3E2E" opacity="0.12"></ellipse><g transform="rotate(-7 176 210)"><path d="M 147.5 225.2 L 176 166.3 L 204.5 225.2 Z" fill="#F49B57" stroke="#F49B57" stroke-width="13.299999999999999" stroke-linejoin="round"></path><path d="M 163.65 218.55 L 176 189.1 L 188.35 218.55 Z" fill="#E07E38"></path></g><g transform="rotate(7 336 210)"><path d="M 307.5 225.2 L 336 166.3 L 364.5 225.2 Z" fill="#F49B57" stroke="#F49B57" stroke-width="13.299999999999999" stroke-linejoin="round"></path><path d="M 323.65 218.55 L 336 189.1 L 348.35 218.55 Z" fill="#E07E38"></path></g><ellipse cx="256" cy="318" rx="136" ry="124" fill="#F49B57"></ellipse><ellipse cx="256" cy="352" rx="54" ry="40" fill="#FBEFDF"></ellipse><circle cx="210" cy="296" r="14" fill="#4A332A"></circle><circle cx="215.04" cy="290.96" r="4.48" fill="#FFF"></circle><circle cx="302" cy="296" r="14" fill="#4A332A"></circle><circle cx="307.04" cy="290.96" r="4.48" fill="#FFF"></circle><ellipse cx="256" cy="334" rx="11" ry="8" fill="#4A332A"></ellipse><path d="M 244 356 Q 250 365 256 356 Q 262 365 268 356" stroke="#4A332A" stroke-width="7" fill="none" stroke-linecap="round"></path><ellipse cx="176" cy="330" rx="16" ry="11.2" fill="#FFAB8E"></ellipse><ellipse cx="336" cy="330" rx="16" ry="11.2" fill="#FFAB8E"></ellipse></svg>