<svg xmlns="http://www.w3.org/2000/svg" width="512" height="512" viewBox="0 0 512 512"><ellipse cx="256" cy="442" rx="112" ry="12" fill="#5A3E2E" opacity="0.12"></ellipse><g transform="rotate(-7 172 202)"><path d="M 141.4 218.32 L 172 155.07999999999998 L 202.6 218.32 Z" fill="#F49B57" stroke="#F49B57" stroke-width="14.280000000000001" stroke-linejoin="round"></path><path d="M 158.74 211.18 L 172 179.56 L 185.26 211.18 Z" fill="#E07E38"></path></g><g transform="rotate(7 340 202)"><path d="M 309.4 218.32 L 340 155.07999999999998 L 370.6 218.32 Z" fill="#F49B57" stroke="#F49B57" stroke-width="14.280000000000001" stroke-linejoin="round"></path><path d="M 326.74 211.18 L 340 179.56 L 353.26 211.18 Z" fill="#E07E38"></path></g><path d="M 372 348 Q 420 330 428 292" stroke="#F49B57" stroke-width="30" fill="none" stroke-linecap="round"></path><circle cx="428" cy="288" r="15.600000000000001" fill="#FBEFDF"></circle><rect x="205" y="416" width="38" height="16" rx="8" fill="#E07E38"></rect><rect x="269" y="416" width="38" height="16" rx="8" fill="#E07E38"></rect><ellipse cx="256" cy="310" rx="132" ry="128" fill="#F49B57"></ellipse><ellipse cx="256" cy="346" rx="54" ry="40" fill="#FBEFDF"></ellipse><circle cx="210" cy="290" r="14" fill="#4A332A"></circle><circle cx="215.04" cy="284.96" r="4.48" fill="#FFF"></circle><circle cx="302" cy="290" r="14" fill="#4A332A"></circle><circle cx="307.04" cy="284.96" r="4.48" fill="#FFF"></circle><ellipse cx="256" cy="328" rx="11" ry="8" fill="#4A332A"></ellipse><path d="M 244 350 Q 250 359 256 350 Q 262 359 268 350" stroke="#4A332A" stroke-width="7" fill="none" stroke-linecap="round"></path><ellipse cx="176" cy="324" rx="16" ry="11.2" fill="#FFAB8E"></ellipse><ellipse cx="336" cy="324" rx="16" ry="11.2" fill="#FFAB8E"></ellipse></svg>