<svg xmlns="http://www.w3.org/2000/svg" width="512" height="512" viewBox="0 0 512 512"><ellipse cx="256" cy="444" rx="114" ry="12" fill="#5A3E2E" opacity="0.12"></ellipse><g transform="rotate(-7 168 194)"><path d="M 135.6 211.28 L 168 144.32 L 200.4 211.28 Z" fill="#F49B57" stroke="#F49B57" stroke-width="15.120000000000001" stroke-linejoin="round"></path><path d="M 153.96 203.72 L 168 170.24 L 182.04 203.72 Z" fill="#E07E38"></path></g><g transform="rotate(7 344 194)"><path d="M 311.6 211.28 L 344 144.32 L 376.4 211.28 Z" fill="#F49B57" stroke="#F49B57" stroke-width="15.120000000000001" stroke-linejoin="round"></path><path d="M 329.96 203.72 L 344 170.24 L 358.04 203.72 Z" fill="#E07E38"></path></g><path d="M 376 340 Q 432 314 438 266" stroke="#F49B57" stroke-width="36" fill="none" stroke-linecap="round"></path><circle cx="438" cy="262" r="18.72" fill="#FBEFDF"></circle><rect x="203" y="422" width="38" height="16" rx="8" fill="#E07E38"></rect><rect x="271" y="422" width="38" height="16" rx="8" fill="#E07E38"></rect><ellipse cx="256" cy="306" rx="134" ry="134" fill="#F49B57"></ellipse><ellipse cx="256" cy="380" rx="72" ry="54" fill="#FBEFDF"></ellipse><path d="M 193 293 Q 210 271 227 293" stroke="#4A332A" stroke-width="11" fill="none" stroke-linecap="round"></path><path d="M 285 293 Q 302 271 319 293" stroke="#4A332A" stroke-width="11" fill="none" stroke-linecap="round"></path><ellipse cx="256" cy="322" rx="11" ry="8" fill="#4A332A"></ellipse><path d="M 244 344 Q 250 353 256 344 Q 262 353 268 344" stroke="#4A332A" stroke-width="7" fill="none" stroke-linecap="round"></path><ellipse cx="176" cy="318" rx="16" ry="11.2" fill="#FFAB8E"></ellipse><ellipse cx="336" cy="318" rx="16" ry="11.2" fill="#FFAB8E"></ellipse></svg>