<svg xmlns="http://www.w3.org/2000/svg" width="512" height="512" viewBox="0 0 512 512"><ellipse cx="256" cy="446" rx="116" ry="12" fill="#5A3E2E" opacity="0.12"></ellipse><g transform="rotate(-6 164 182)"><path d="M 129.8 200.24 L 164 129.56 L 198.2 200.24 Z" fill="#F49B57" stroke="#F49B57" stroke-width="15.959999999999999" stroke-linejoin="round"></path><path d="M 149.18 192.26 L 164 156.92000000000002 L 178.82 192.26 Z" fill="#E07E38"></path></g><g transform="rotate(6 348 182)"><path d="M 313.8 200.24 L 348 129.56 L 382.2 200.24 Z" fill="#F49B57" stroke="#F49B57" stroke-width="15.959999999999999" stroke-linejoin="round"></path><path d="M 333.18 192.26 L 348 156.92000000000002 L 362.82 192.26 Z" fill="#E07E38"></path></g><path d="M 378 336 Q 442 304 444 244" stroke="#F49B57" stroke-width="42" fill="none" stroke-linecap="round"></path><circle cx="444" cy="240" r="21.84" fill="#FBEFDF"></circle><rect x="201" y="428" width="38" height="16" rx="8" fill="#E07E38"></rect><rect x="273" y="428" width="38" height="16" rx="8" fill="#E07E38"></rect><ellipse cx="256" cy="298" rx="138" ry="144" fill="#F49B57"></ellipse><ellipse cx="256" cy="382" rx="78" ry="58" fill="#FBEFDF"></ellipse><circle cx="210" cy="278" r="14" fill="#4A332A"></circle><circle cx="215.04" cy="272.96" r="4.48" fill="#FFF"></circle><circle cx="302" cy="278" r="14" fill="#4A332A"></circle><circle cx="307.04" cy="272.96" r="4.48" fill="#FFF"></circle><ellipse cx="256" cy="316" rx="11" ry="8" fill="#4A332A"></ellipse><path d="M 244 338 Q 250 347 256 338 Q 262 347 268 338" stroke="#4A332A" stroke-width="7" fill="none" stroke-linecap="round"></path><ellipse cx="176" cy="310" rx="16" ry="11.2" fill="#FFAB8E"></ellipse><ellipse cx="336" cy="310" rx="16" ry="11.2" fill="#FFAB8E"></ellipse></svg>