<svg xmlns="http://www.w3.org/2000/svg" width="512" height="512" viewBox="0 0 512 512"><ellipse cx="256" cy="446" rx="116" ry="12" fill="#5A3E2E" opacity="0.12"></ellipse><g transform="rotate(-6 164 182)"><path d="M 129.8 200.24 L 164 129.56 L 198.2 200.24 Z" fill="#F49B57" stroke="#F49B57" stroke-width="15.959999999999999" stroke-linejoin="round"></path><path d="M 149.18 192.26 L 164 156.92000000000002 L 178.82 192.26 Z" fill="#E07E38"></path></g><g transform="rotate(6 348 182)"><path d="M 313.8 200.24 L 348 129.56 L 382.2 200.24 Z" fill="#F49B57" stroke="#F49B57" stroke-width="15.959999999999999" stroke-linejoin="round"></path><path d="M 333.18 192.26 L 348 156.92000000000002 L 362.82 192.26 Z" fill="#E07E38"></path></g><path d="M 378 336 Q 442 304 444 244" stroke="#F49B57" stroke-width="42" fill="none" stroke-linecap="round"></path><circle cx="444" cy="240" r="21.84" fill="#FBEFDF"></circle><rect x="201" y="428" width="38" height="16" rx="8" fill="#E07E38"></rect><rect x="273" y="428" width="38" height="16" rx="8" fill="#E07E38"></rect><ellipse cx="256" cy="298" rx="138" ry="144" fill="#F49B57"></ellipse><ellipse cx="256" cy="382" rx="78" ry="58" fill="#FBEFDF"></ellipse><path d="M 193 285 Q 210 263 227 285" stroke="#4A332A" stroke-width="11" fill="none" stroke-linecap="round"></path><path d="M 285 285 Q 302 263 319 285" stroke="#4A332A" stroke-width="11" fill="none" stroke-linecap="round"></path><ellipse cx="256" cy="316" rx="11" ry="8" fill="#4A332A"></ellipse><path d="M 244 338 Q 250 347 256 338 Q 262 347 268 338" stroke="#4A332A" stroke-width="7" fill="none" stroke-linecap="round"></path><ellipse cx="176" cy="310" rx="16" ry="11.2" fill="#FFAB8E"></ellipse><ellipse cx="336" cy="310" rx="16" ry="11.2" fill="#FFAB8E"></ellipse><path d="M 232 132 L 230.8 111.6 L 246.4 122.4 L 256 106.8 L 265.6 122.4 L 281.2 111.6 L 280 132 Q 256 138 232 132 Z" fill="#FFC531"></path><circle cx="256" cy="103.68" r="4.08" fill="#FFC531"></circle><path d="M 112 136 Q 115.36 146.64 126 150 Q 115.36 153.36 112 164 Q 108.64 153.36 98 150 Q 108.64 146.64 112 136 Z" fill="#FFBD33"></path><path d="M 100 240 Q 102.4 247.6 110 250 Q 102.4 252.4 100 260 Q 97.6 252.4 90 250 Q 97.6 247.6 100 240 Z" fill="#FFBD33"></path><path d="M 418 125 Q 421.6 136.4 433 140 Q 421.6 143.6 418 155 Q 414.4 143.6 403 140 Q 414.4 136.4 418 125 Z" fill="#FFBD33"></path></svg>