<svg xmlns="http://www.w3.org/2000/svg" width="512" height="512" viewBox="0 0 512 512"><ellipse cx="256" cy="440" rx="110" ry="12" fill="#5A3E2E" opacity="0.12"></ellipse><circle cx="182" cy="222" r="26" fill="#D9A76C"></circle><circle cx="182" cy="225" r="11.700000000000001" fill="#FFAB8E"></circle><circle cx="330" cy="222" r="26" fill="#D9A76C"></circle><circle cx="330" cy="225" r="11.700000000000001" fill="#FFAB8E"></circle><ellipse cx="256" cy="322" rx="136" ry="120" fill="#F2C994"></ellipse><ellipse cx="256" cy="356" rx="48" ry="34" fill="#FBF0DF"></ellipse><circle cx="212" cy="300" r="14" fill="#4A332A"></circle><circle cx="217.04" cy="294.96" r="4.48" fill="#FFF"></circle><circle cx="300" cy="300" r="14" fill="#4A332A"></circle><circle cx="305.04" cy="294.96" r="4.48" fill="#FFF"></circle><ellipse cx="256" cy="342" rx="8" ry="6" fill="#F58E82"></ellipse><path d="M 244 360 Q 250 369 256 360 Q 262 369 268 360" stroke="#4A332A" stroke-width="7" fill="none" stroke-linecap="round"></path><ellipse cx="168" cy="332" rx="20" ry="14" fill="#FFAB8E"></ellipse><ellipse cx="344" cy="332" rx="20" ry="14" fill="#FFAB8E"></ellipse></svg>