<svg xmlns="http://www.w3.org/2000/svg" width="512" height="512" viewBox="0 0 512 512"><ellipse cx="256" cy="442" rx="112" ry="12" fill="#5A3E2E" opacity="0.12"></ellipse><circle cx="180" cy="216" r="27" fill="#D9A76C"></circle><circle cx="180" cy="219" r="12.15" fill="#FFAB8E"></circle><circle cx="332" cy="216" r="27" fill="#D9A76C"></circle><circle cx="332" cy="219" r="12.15" fill="#FFAB8E"></circle><ellipse cx="256" cy="318" rx="134" ry="124" fill="#F2C994"></ellipse><ellipse cx="256" cy="352" rx="48" ry="34" fill="#FBF0DF"></ellipse><g transform="rotate(14 256 398)"><ellipse cx="256" cy="398" rx="15" ry="22" fill="#8A6248"></ellipse><path d="M 256 384 L 256 412" stroke="#C9A97E" stroke-width="4" stroke-linecap="round"></path></g><circle cx="226" cy="392" r="15" fill="#E8B97E"></circle><circle cx="286" cy="392" r="15" fill="#E8B97E"></circle><circle cx="212" cy="296" r="14" fill="#4A332A"></circle><circle cx="217.04" cy="290.96" r="4.48" fill="#FFF"></circle><circle cx="300" cy="296" r="14" fill="#4A332A"></circle><circle cx="305.04" cy="290.96" r="4.48" fill="#FFF"></circle><ellipse cx="256" cy="338" rx="8" ry="6" fill="#F58E82"></ellipse><path d="M 244 356 Q 250 365 256 356 Q 262 365 268 356" stroke="#4A332A" stroke-width="7" fill="none" stroke-linecap="round"></path><ellipse cx="166" cy="328" rx="20" ry="14" fill="#FFAB8E"></ellipse><ellipse cx="346" cy="328" rx="20" ry="14" fill="#FFAB8E"></ellipse></svg>