<svg xmlns="http://www.w3.org/2000/svg" width="512" height="512" viewBox="0 0 512 512"><ellipse cx="256" cy="444" rx="114" ry="12" fill="#5A3E2E" opacity="0.12"></ellipse><circle cx="178" cy="208" r="28" fill="#D9A76C"></circle><circle cx="178" cy="211" r="12.6" fill="#FFAB8E"></circle><circle cx="334" cy="208" r="28" fill="#D9A76C"></circle><circle cx="334" cy="211" r="12.6" fill="#FFAB8E"></circle><ellipse cx="256" cy="312" rx="138" ry="130" fill="#F2C994"></ellipse><rect x="245" y="184" width="22" height="46" rx="11" fill="#D9A76C"></rect><ellipse cx="256" cy="348" rx="50" ry="36" fill="#FBF0DF"></ellipse><g transform="rotate(14 256 394)"><ellipse cx="256" cy="394" rx="15" ry="22" fill="#8A6248"></ellipse><path d="M 256 380 L 256 408" stroke="#C9A97E" stroke-width="4" stroke-linecap="round"></path></g><circle cx="224" cy="388" r="15" fill="#E8B97E"></circle><circle cx="288" cy="388" r="15" fill="#E8B97E"></circle><path d="M 195 299 Q 212 277 229 299" stroke="#4A332A" stroke-width="11" fill="none" stroke-linecap="round"></path><path d="M 283 299 Q 300 277 317 299" stroke="#4A332A" stroke-width="11" fill="none" stroke-linecap="round"></path><ellipse cx="256" cy="334" rx="8" ry="6" fill="#F58E82"></ellipse><path d="M 244 352 Q 250 361 256 352 Q 262 361 268 352" stroke="#4A332A" stroke-width="7" fill="none" stroke-linecap="round"></path><ellipse cx="164" cy="324" rx="20" ry="14" fill="#FFAB8E"></ellipse><ellipse cx="348" cy="324" rx="20" ry="14" fill="#FFAB8E"></ellipse></svg>