<svg xmlns="http://www.w3.org/2000/svg" width="512" height="512" viewBox="0 0 512 512"><ellipse cx="256" cy="446" rx="116" ry="12" fill="#5A3E2E" opacity="0.12"></ellipse><circle cx="176" cy="200" r="30" fill="#D9A76C"></circle><circle cx="176" cy="203" r="13.5" fill="#FFAB8E"></circle><circle cx="336" cy="200" r="30" fill="#D9A76C"></circle><circle cx="336" cy="203" r="13.5" fill="#FFAB8E"></circle><rect x="203" y="428" width="38" height="16" rx="8" fill="#E8B97E"></rect><rect x="271" y="428" width="38" height="16" rx="8" fill="#E8B97E"></rect><ellipse cx="256" cy="306" rx="140" ry="140" fill="#F2C994"></ellipse><rect x="245" y="172" width="22" height="46" rx="11" fill="#D9A76C"></rect><ellipse cx="256" cy="372" rx="74" ry="58" fill="#FBF0DF"></ellipse><g transform="rotate(14 256 392)"><ellipse cx="256" cy="392" rx="15" ry="22" fill="#8A6248"></ellipse><path d="M 256 378 L 256 406" stroke="#C9A97E" stroke-width="4" stroke-linecap="round"></path></g><circle cx="222" cy="386" r="15" fill="#E8B97E"></circle><circle cx="290" cy="386" r="15" fill="#E8B97E"></circle><circle cx="212" cy="286" r="14" fill="#4A332A"></circle><circle cx="217.04" cy="280.96" r="4.48" fill="#FFF"></circle><circle cx="300" cy="286" r="14" fill="#4A332A"></circle><circle cx="305.04" cy="280.96" r="4.48" fill="#FFF"></circle><ellipse cx="256" cy="326" rx="8" ry="6" fill="#F58E82"></ellipse><path d="M 244 344 Q 250 353 256 344 Q 262 353 268 344" stroke="#4A332A" stroke-width="7" fill="none" stroke-linecap="round"></path><ellipse cx="164" cy="318" rx="20" ry="14" fill="#FFAB8E"></ellipse><ellipse cx="348" cy="318" rx="20" ry="14" fill="#FFAB8E"></ellipse></svg>