<svg xmlns="http://www.w3.org/2000/svg" width="512" height="512" viewBox="0 0 512 512"><ellipse cx="256" cy="446" rx="116" ry="12" fill="#5A3E2E" opacity="0.12"></ellipse><circle cx="176" cy="200" r="30" fill="#D9A76C"></circle><circle cx="176" cy="203" r="13.5" fill="#FFAB8E"></circle><circle cx="336" cy="200" r="30" fill="#D9A76C"></circle><circle cx="336" cy="203" r="13.5" fill="#FFAB8E"></circle><rect x="203" y="428" width="38" height="16" rx="8" fill="#E8B97E"></rect><rect x="271" y="428" width="38" height="16" rx="8" fill="#E8B97E"></rect><ellipse cx="256" cy="306" rx="140" ry="140" fill="#F2C994"></ellipse><rect x="245" y="172" width="22" height="46" rx="11" fill="#D9A76C"></rect><ellipse cx="256" cy="372" rx="74" ry="58" fill="#FBF0DF"></ellipse><g transform="rotate(14 256 392)"><ellipse cx="256" cy="392" rx="15" ry="22" fill="#8A6248"></ellipse><path d="M 256 378 L 256 406" stroke="#C9A97E" stroke-width="4" stroke-linecap="round"></path></g><circle cx="222" cy="386" r="15" fill="#E8B97E"></circle><circle cx="290" cy="386" r="15" fill="#E8B97E"></circle><path d="M 195 293 Q 212 271 229 293" stroke="#4A332A" stroke-width="11" fill="none" stroke-linecap="round"></path><path d="M 283 293 Q 300 271 317 293" stroke="#4A332A" stroke-width="11" fill="none" stroke-linecap="round"></path><ellipse cx="256" cy="326" rx="8" ry="6" fill="#F58E82"></ellipse><path d="M 244 344 Q 250 353 256 344 Q 262 353 268 344" stroke="#4A332A" stroke-width="7" fill="none" stroke-linecap="round"></path><ellipse cx="164" cy="318" rx="20" ry="14" fill="#FFAB8E"></ellipse><ellipse cx="348" cy="318" rx="20" ry="14" fill="#FFAB8E"></ellipse><path d="M 231 148 L 229.75 126.75 L 246 138 L 256 121.75 L 266 138 L 282.25 126.75 L 281 148 Q 256 154.25 231 148 Z" fill="#FFC531"></path><circle cx="256" cy="118.5" r="4.25" fill="#FFC531"></circle><path d="M 112 125 Q 115.6 136.4 127 140 Q 115.6 143.6 112 155 Q 108.4 143.6 97 140 Q 108.4 136.4 112 125 Z" fill="#FFBD33"></path><path d="M 400 100 Q 404.32 113.68 418 118 Q 404.32 122.32 400 136 Q 395.68 122.32 382 118 Q 395.68 113.68 400 100 Z" fill="#FFBD33"></path><path d="M 430 240 Q 432.4 247.6 440 250 Q 432.4 252.4 430 260 Q 427.6 252.4 420 250 Q 427.6 247.6 430 240 Z" fill="#FFBD33"></path><path d="M 84 222 Q 86.4 229.6 94 232 Q 86.4 234.4 84 242 Q 81.6 234.4 74 232 Q 81.6 229.6 84 222 Z" fill="#FFBD33"></path></svg>