<svg xmlns="http://www.w3.org/2000/svg" width="512" height="512" viewBox="0 0 512 512"><ellipse cx="256" cy="440" rx="108" ry="12" fill="#5A3E2E" opacity="0.1"></ellipse><path d="M 256 182 L 366.15999999999997 374.24 L 145.84 374.24 Z" fill="#FBF8F2" stroke="#FBF8F2" stroke-width="66" stroke-linejoin="round"></path><rect x="192" y="318" width="128" height="90" rx="10" fill="#3E4A3A"></rect><rect x="200" y="326" width="112" height="10" rx="5" fill="#4E5C49"></rect><circle cx="196" cy="232" r="5" fill="#4A332A"></circle><circle cx="318" cy="226" r="5" fill="#4A332A"></circle><circle cx="252" cy="196" r="5" fill="#4A332A"></circle><circle cx="352" cy="272" r="5" fill="#4A332A"></circle><circle cx="224" cy="284" r="12" fill="#4A332A"></circle><circle cx="228.32" cy="279.68" r="3.84" fill="#FFF"></circle><circle cx="288" cy="284" r="12" fill="#4A332A"></circle><circle cx="292.32" cy="279.68" r="3.84" fill="#FFF"></circle><path d="M 247 310 Q 257 317 267 310" stroke="#4A332A" stroke-width="6" fill="none" stroke-linecap="round"></path><ellipse cx="192" cy="310" rx="11" ry="7.699999999999999" fill="#F8C4CE"></ellipse><ellipse cx="320" cy="310" rx="11" ry="7.699999999999999" fill="#F8C4CE"></ellipse></svg>