<svg xmlns="http://www.w3.org/2000/svg" width="512" height="512" viewBox="0 0 512 512"><ellipse cx="256" cy="442" rx="112" ry="12" fill="#5A3E2E" opacity="0.1"></ellipse><path d="M 168 148 Q 156 122 168 100 M 344 148 Q 356 122 344 100" stroke="#D9CDBB" stroke-width="9" fill="none" stroke-linecap="round"></path><path d="M 256 174 L 372.28 376.92 L 139.72 376.92 Z" fill="#FBF8F2" stroke="#FBF8F2" stroke-width="66" stroke-linejoin="round"></path><rect x="187" y="314" width="138" height="96" rx="10" fill="#3E4A3A"></rect><rect x="195" y="322" width="122" height="10" rx="5" fill="#4E5C49"></rect><circle cx="192" cy="226" r="5" fill="#4A332A"></circle><circle cx="322" cy="220" r="5" fill="#4A332A"></circle><circle cx="250" cy="188" r="5" fill="#4A332A"></circle><path d="M 209 287 Q 222 265 235 287" stroke="#4A332A" stroke-width="11" fill="none" stroke-linecap="round"></path><path d="M 277 287 Q 290 265 303 287" stroke="#4A332A" stroke-width="11" fill="none" stroke-linecap="round"></path><path d="M 246 308 Q 257 315.7 268 308" stroke="#4A332A" stroke-width="6" fill="none" stroke-linecap="round"></path><ellipse cx="190" cy="306" rx="12" ry="8.399999999999999" fill="#F8C4CE"></ellipse><ellipse cx="322" cy="306" rx="12" ry="8.399999999999999" fill="#F8C4CE"></ellipse></svg>