<svg xmlns="http://www.w3.org/2000/svg" width="512" height="512" viewBox="0 0 512 512"><ellipse cx="256" cy="442" rx="112" ry="12" fill="#5A3E2E" opacity="0.1"></ellipse><path d="M 256 174 L 372.28 376.92 L 139.72 376.92 Z" fill="#FBF8F2" stroke="#FBF8F2" stroke-width="66" stroke-linejoin="round"></path><rect x="187" y="314" width="138" height="96" rx="10" fill="#3E4A3A"></rect><rect x="195" y="322" width="122" height="10" rx="5" fill="#4E5C49"></rect><circle cx="192" cy="226" r="5" fill="#4A332A"></circle><circle cx="322" cy="220" r="5" fill="#4A332A"></circle><circle cx="250" cy="188" r="5" fill="#4A332A"></circle><path d="M 209 287 Q 222 265 235 287" stroke="#4A332A" stroke-width="11" fill="none" stroke-linecap="round"></path><path d="M 277 287 Q 290 265 303 287" stroke="#4A332A" stroke-width="11" fill="none" stroke-linecap="round"></path><path d="M 246 308 Q 257 315.7 268 308" stroke="#4A332A" stroke-width="6" fill="none" stroke-linecap="round"></path><ellipse cx="190" cy="306" rx="12" ry="8.399999999999999" fill="#F8C4CE"></ellipse><ellipse cx="322" cy="306" rx="12" ry="8.399999999999999" fill="#F8C4CE"></ellipse><path d="M 232 142 L 230.8 121.6 L 246.4 132.4 L 256 116.8 L 265.6 132.4 L 281.2 121.6 L 280 142 Q 256 148 232 142 Z" fill="#FFC531"></path><circle cx="256" cy="113.68" r="4.08" fill="#FFC531"></circle><path d="M 112 125 Q 115.6 136.4 127 140 Q 115.6 143.6 112 155 Q 108.4 143.6 97 140 Q 108.4 136.4 112 125 Z" fill="#FFBD33"></path><path d="M 400 100 Q 404.32 113.68 418 118 Q 404.32 122.32 400 136 Q 395.68 122.32 382 118 Q 395.68 113.68 400 100 Z" fill="#FFBD33"></path><path d="M 430 240 Q 432.4 247.6 440 250 Q 432.4 252.4 430 260 Q 427.6 252.4 420 250 Q 427.6 247.6 430 240 Z" fill="#FFBD33"></path><path d="M 84 222 Q 86.4 229.6 94 232 Q 86.4 234.4 84 242 Q 81.6 234.4 74 232 Q 81.6 229.6 84 222 Z" fill="#FFBD33"></path></svg>