<svg xmlns="http://www.w3.org/2000/svg" width="512" height="512" viewBox="0 0 512 512"><ellipse cx="256" cy="432" rx="88" ry="12" fill="#5A3E2E" opacity="0.08"></ellipse><ellipse cx="240" cy="212" rx="34" ry="20" fill="#FBC37E" transform="rotate(-12 240 212)"></ellipse><path d="M 322 300 Q 374 268 390 240" stroke="#FBC37E" stroke-width="24" fill="none" stroke-linecap="round"></path><path d="M 322 300 Q 378 320 392 348" stroke="#FBC37E" stroke-width="24" fill="none" stroke-linecap="round"></path><ellipse cx="242" cy="302" rx="96" ry="82" fill="#F9A44A"></ellipse><ellipse cx="160" cy="330" rx="22" ry="14" fill="#FBC37E" transform="rotate(24 160 330)"></ellipse><circle cx="206" cy="288" r="13" fill="#4A332A"></circle><circle cx="210.68" cy="283.32" r="4.16" fill="#FFF"></circle><circle cx="272" cy="288" r="13" fill="#4A332A"></circle><circle cx="276.68" cy="283.32" r="4.16" fill="#FFF"></circle><path d="M 228 320 Q 240 328.4 252 320" stroke="#4A332A" stroke-width="7" fill="none" stroke-linecap="round"></path><ellipse cx="180" cy="318" rx="11" ry="7.699999999999999" fill="#FFAB8E"></ellipse><ellipse cx="300" cy="318" rx="11" ry="7.699999999999999" fill="#FFAB8E"></ellipse><circle cx="366" cy="180" r="9" fill="none" stroke="#BFE3F0" stroke-width="5"></circle></svg>