<svg xmlns="http://www.w3.org/2000/svg" width="512" height="512" viewBox="0 0 512 512"><ellipse cx="256" cy="436" rx="94" ry="12" fill="#5A3E2E" opacity="0.09"></ellipse><ellipse cx="244" cy="200" rx="40" ry="23" fill="#FBC37E" transform="rotate(-12 244 200)"></ellipse><path d="M 330 304 Q 386 264 402 230" stroke="#FBC37E" stroke-width="27" fill="none" stroke-linecap="round"></path><path d="M 330 304 Q 390 326 404 358" stroke="#FBC37E" stroke-width="27" fill="none" stroke-linecap="round"></path><ellipse cx="246" cy="306" rx="104" ry="90" fill="#F9A44A"></ellipse><ellipse cx="246" cy="356" rx="64" ry="34" fill="#FDE7C8"></ellipse><ellipse cx="158" cy="336" rx="24" ry="15" fill="#FBC37E" transform="rotate(24 158 336)"></ellipse><circle cx="208" cy="290" r="14" fill="#4A332A"></circle><circle cx="213.04" cy="284.96" r="4.48" fill="#FFF"></circle><circle cx="276" cy="290" r="14" fill="#4A332A"></circle><circle cx="281.04" cy="284.96" r="4.48" fill="#FFF"></circle><path d="M 230 322 Q 242 330.4 254 322" stroke="#4A332A" stroke-width="7" fill="none" stroke-linecap="round"></path><ellipse cx="180" cy="320" rx="11" ry="7.699999999999999" fill="#FFAB8E"></ellipse><ellipse cx="304" cy="320" rx="11" ry="7.699999999999999" fill="#FFAB8E"></ellipse><circle cx="374" cy="172" r="9" fill="none" stroke="#BFE3F0" stroke-width="5"></circle><circle cx="400" cy="140" r="6" fill="none" stroke="#BFE3F0" stroke-width="5"></circle></svg>