<svg xmlns="http://www.w3.org/2000/svg" width="512" height="512" viewBox="0 0 512 512"><ellipse cx="256" cy="438" rx="98" ry="12" fill="#5A3E2E" opacity="0.09"></ellipse><ellipse cx="246" cy="192" rx="44" ry="25" fill="#FBC37E" transform="rotate(-12 246 192)"></ellipse><path d="M 332 300 Q 396 258 414 218" stroke="#FBC37E" stroke-width="24" fill="none" stroke-linecap="round"></path><path d="M 336 308 Q 408 300 432 288" stroke="#FBC37E" stroke-width="24" fill="none" stroke-linecap="round"></path><path d="M 332 316 Q 396 344 410 378" stroke="#FBC37E" stroke-width="24" fill="none" stroke-linecap="round"></path><ellipse cx="244" cy="306" rx="106" ry="92" fill="#F9A44A"></ellipse><ellipse cx="244" cy="358" rx="66" ry="34" fill="#FDE7C8"></ellipse><ellipse cx="154" cy="336" rx="25" ry="16" fill="#FBC37E" transform="rotate(24 154 336)"></ellipse><path d="M 192 297 Q 206 275 220 297" stroke="#4A332A" stroke-width="11" fill="none" stroke-linecap="round"></path><path d="M 262 297 Q 276 275 290 297" stroke="#4A332A" stroke-width="11" fill="none" stroke-linecap="round"></path><path d="M 228 322 Q 240 330.4 252 322" stroke="#4A332A" stroke-width="7" fill="none" stroke-linecap="round"></path><ellipse cx="178" cy="320" rx="11" ry="7.699999999999999" fill="#FFAB8E"></ellipse><ellipse cx="304" cy="320" rx="11" ry="7.699999999999999" fill="#FFAB8E"></ellipse><circle cx="376" cy="168" r="9" fill="none" stroke="#BFE3F0" stroke-width="5"></circle><circle cx="404" cy="134" r="6" fill="none" stroke="#BFE3F0" stroke-width="5"></circle></svg>