<svg xmlns="http://www.w3.org/2000/svg" width="512" height="512" viewBox="0 0 512 512"><ellipse cx="256" cy="440" rx="102" ry="12" fill="#5A3E2E" opacity="0.09"></ellipse><ellipse cx="248" cy="184" rx="48" ry="27" fill="#FBC37E" transform="rotate(-12 248 184)"></ellipse><path d="M 336 298 Q 404 250 424 204" stroke="#FBC37E" stroke-width="28" fill="none" stroke-linecap="round"></path><path d="M 340 308 Q 416 300 442 286" stroke="#FBC37E" stroke-width="28" fill="none" stroke-linecap="round"></path><path d="M 336 318 Q 404 350 420 388" stroke="#FBC37E" stroke-width="28" fill="none" stroke-linecap="round"></path><ellipse cx="246" cy="306" rx="112" ry="96" fill="#F9A44A"></ellipse><ellipse cx="246" cy="360" rx="70" ry="36" fill="#FDE7C8"></ellipse><ellipse cx="152" cy="338" rx="26" ry="17" fill="#FBC37E" transform="rotate(24 152 338)"></ellipse><circle cx="206" cy="288" r="14" fill="#4A332A"></circle><circle cx="211.04" cy="282.96" r="4.48" fill="#FFF"></circle><circle cx="278" cy="288" r="14" fill="#4A332A"></circle><circle cx="283.04" cy="282.96" r="4.48" fill="#FFF"></circle><path d="M 229 322 Q 242 331.1 255 322" stroke="#4A332A" stroke-width="7" fill="none" stroke-linecap="round"></path><ellipse cx="178" cy="320" rx="12" ry="8.399999999999999" fill="#FFAB8E"></ellipse><ellipse cx="308" cy="320" rx="12" ry="8.399999999999999" fill="#FFAB8E"></ellipse><circle cx="378" cy="164" r="10" fill="none" stroke="#BFE3F0" stroke-width="5"></circle><circle cx="408" cy="128" r="7" fill="none" stroke="#BFE3F0" stroke-width="5"></circle><circle cx="430" cy="170" r="5" fill="none" stroke="#BFE3F0" stroke-width="5"></circle></svg>