<svg xmlns="http://www.w3.org/2000/svg" width="512" height="512" viewBox="0 0 512 512"><ellipse cx="256" cy="440" rx="102" ry="12" fill="#5A3E2E" opacity="0.09"></ellipse><ellipse cx="248" cy="184" rx="48" ry="27" fill="#FBC37E" transform="rotate(-12 248 184)"></ellipse><path d="M 336 298 Q 404 250 424 204" stroke="#FBC37E" stroke-width="28" fill="none" stroke-linecap="round"></path><path d="M 340 308 Q 416 300 442 286" stroke="#FBC37E" stroke-width="28" fill="none" stroke-linecap="round"></path><path d="M 336 318 Q 404 350 420 388" stroke="#FBC37E" stroke-width="28" fill="none" stroke-linecap="round"></path><ellipse cx="246" cy="306" rx="112" ry="96" fill="#F9A44A"></ellipse><ellipse cx="246" cy="360" rx="70" ry="36" fill="#FDE7C8"></ellipse><ellipse cx="152" cy="338" rx="26" ry="17" fill="#FBC37E" transform="rotate(24 152 338)"></ellipse><path d="M 191 295 Q 206 273 221 295" stroke="#4A332A" stroke-width="11" fill="none" stroke-linecap="round"></path><path d="M 263 295 Q 278 273 293 295" stroke="#4A332A" stroke-width="11" fill="none" stroke-linecap="round"></path><path d="M 229 322 Q 242 331.1 255 322" stroke="#4A332A" stroke-width="7" fill="none" stroke-linecap="round"></path><ellipse cx="178" cy="320" rx="12" ry="8.399999999999999" fill="#FFAB8E"></ellipse><ellipse cx="308" cy="320" rx="12" ry="8.399999999999999" fill="#FFAB8E"></ellipse><path d="M 223 182 L 221.85 162.45 L 236.8 172.8 L 246 157.85 L 255.2 172.8 L 270.15 162.45 L 269 182 Q 246 187.75 223 182 Z" fill="#FFC531"></path><circle cx="246" cy="154.86" r="3.91" fill="#FFC531"></circle><path d="M 110 136 Q 113.36 146.64 124 150 Q 113.36 153.36 110 164 Q 106.64 153.36 96 150 Q 106.64 146.64 110 136 Z" fill="#FFBD33"></path><path d="M 398 94 Q 401.84 106.16 414 110 Q 401.84 113.84 398 126 Q 394.16 113.84 382 110 Q 394.16 106.16 398 94 Z" fill="#FFBD33"></path><path d="M 86 250 Q 88.4 257.6 96 260 Q 88.4 262.4 86 270 Q 83.6 262.4 76 260 Q 83.6 257.6 86 250 Z" fill="#FFBD33"></path></svg>