<svg xmlns="http://www.w3.org/2000/svg" width="512" height="512" viewBox="0 0 512 512"><ellipse cx="256" cy="452" rx="110" ry="12" fill="#5A3E2E" opacity="0.1"></ellipse><ellipse cx="256" cy="432" rx="120" ry="24" fill="#E9D4AE"></ellipse><path d="M 256 428 Q 244 352 260 316" stroke="#6FB05C" stroke-width="11" fill="none" stroke-linecap="round"></path><ellipse cx="224" cy="360" rx="26" ry="14" fill="#8FCB7A" transform="rotate(-34 224 360)"></ellipse><ellipse cx="292" cy="348" rx="26" ry="14" fill="#8FCB7A" transform="rotate(34 292 348)"></ellipse><circle cx="262" cy="282" r="42" fill="#A5D98F"></circle><g transform="rotate(-8 262 246)"><path d="M 226 250 Q 226 216 262 216 Q 298 216 298 250 Z" fill="#7A5236"></path><path d="M 244 224 L 242 248 M 262 218 L 262 250 M 280 224 L 282 248" stroke="#E8D3AC" stroke-width="6" stroke-linecap="round"></path></g><circle cx="246" cy="284" r="10" fill="#4A332A"></circle><circle cx="249.6" cy="280.4" r="3.2" fill="#FFF"></circle><circle cx="280" cy="284" r="10" fill="#4A332A"></circle><circle cx="283.6" cy="280.4" r="3.2" fill="#FFF"></circle><path d="M 254 304 Q 263 310.3 272 304" stroke="#4A332A" stroke-width="6" fill="none" stroke-linecap="round"></path><ellipse cx="232" cy="302" rx="9" ry="6.3" fill="#FFAB8E"></ellipse><ellipse cx="294" cy="302" rx="9" ry="6.3" fill="#FFAB8E"></ellipse></svg>