<svg xmlns="http://www.w3.org/2000/svg" width="512" height="512" viewBox="0 0 512 512"><ellipse cx="256" cy="452" rx="112" ry="12" fill="#5A3E2E" opacity="0.1"></ellipse><ellipse cx="256" cy="432" rx="120" ry="24" fill="#E9D4AE"></ellipse><path d="M 256 428 Q 246 340 256 276" stroke="#6FB05C" stroke-width="13" fill="none" stroke-linecap="round"></path><ellipse cx="210" cy="362" rx="32" ry="17" fill="#8FCB7A" transform="rotate(-34 210 362)"></ellipse><ellipse cx="302" cy="348" rx="32" ry="17" fill="#8FCB7A" transform="rotate(34 302 348)"></ellipse><ellipse cx="256" cy="178" rx="20" ry="34" fill="#8FCB7A" transform="rotate(0 256 222)"></ellipse><ellipse cx="256" cy="178" rx="20" ry="34" fill="#8FCB7A" transform="rotate(60 256 222)"></ellipse><ellipse cx="256" cy="178" rx="20" ry="34" fill="#8FCB7A" transform="rotate(120 256 222)"></ellipse><ellipse cx="256" cy="178" rx="20" ry="34" fill="#8FCB7A" transform="rotate(180 256 222)"></ellipse><ellipse cx="256" cy="178" rx="20" ry="34" fill="#8FCB7A" transform="rotate(240 256 222)"></ellipse><ellipse cx="256" cy="178" rx="20" ry="34" fill="#8FCB7A" transform="rotate(300 256 222)"></ellipse><circle cx="256" cy="222" r="54" fill="#A5D98F"></circle><path d="M 225 213 Q 236 231 247 213" stroke="#4A332A" stroke-width="11" fill="none" stroke-linecap="round"></path><path d="M 267 213 Q 278 231 289 213" stroke="#4A332A" stroke-width="11" fill="none" stroke-linecap="round"></path><ellipse cx="222" cy="240" rx="9" ry="6.3" fill="#FFAB8E"></ellipse><ellipse cx="292" cy="240" rx="9" ry="6.3" fill="#FFAB8E"></ellipse></svg>