<svg xmlns="http://www.w3.org/2000/svg" width="512" height="512" viewBox="0 0 512 512"><ellipse cx="256" cy="452" rx="112" ry="12" fill="#5A3E2E" opacity="0.1"></ellipse><ellipse cx="256" cy="432" rx="120" ry="24" fill="#E9D4AE"></ellipse><path d="M 256 428 Q 246 340 256 272" stroke="#6FB05C" stroke-width="13" fill="none" stroke-linecap="round"></path><ellipse cx="208" cy="360" rx="32" ry="17" fill="#8FCB7A" transform="rotate(-34 208 360)"></ellipse><ellipse cx="304" cy="346" rx="32" ry="17" fill="#8FCB7A" transform="rotate(34 304 346)"></ellipse><ellipse cx="256" cy="152" rx="15" ry="30" fill="#FFC531" transform="rotate(0 256 216)"></ellipse><ellipse cx="256" cy="152" rx="15" ry="30" fill="#FFC531" transform="rotate(45 256 216)"></ellipse><ellipse cx="256" cy="152" rx="15" ry="30" fill="#FFC531" transform="rotate(90 256 216)"></ellipse><ellipse cx="256" cy="152" rx="15" ry="30" fill="#FFC531" transform="rotate(135 256 216)"></ellipse><ellipse cx="256" cy="152" rx="15" ry="30" fill="#FFC531" transform="rotate(180 256 216)"></ellipse><ellipse cx="256" cy="152" rx="15" ry="30" fill="#FFC531" transform="rotate(225 256 216)"></ellipse><ellipse cx="256" cy="152" rx="15" ry="30" fill="#FFC531" transform="rotate(270 256 216)"></ellipse><ellipse cx="256" cy="152" rx="15" ry="30" fill="#FFC531" transform="rotate(315 256 216)"></ellipse><ellipse cx="256" cy="170" rx="20" ry="34" fill="#8FCB7A" transform="rotate(0 256 216)"></ellipse><ellipse cx="256" cy="170" rx="20" ry="34" fill="#8FCB7A" transform="rotate(60 256 216)"></ellipse><ellipse cx="256" cy="170" rx="20" ry="34" fill="#8FCB7A" transform="rotate(120 256 216)"></ellipse><ellipse cx="256" cy="170" rx="20" ry="34" fill="#8FCB7A" transform="rotate(180 256 216)"></ellipse><ellipse cx="256" cy="170" rx="20" ry="34" fill="#8FCB7A" transform="rotate(240 256 216)"></ellipse><ellipse cx="256" cy="170" rx="20" ry="34" fill="#8FCB7A" transform="rotate(300 256 216)"></ellipse><circle cx="256" cy="216" r="52" fill="#A5D98F"></circle><circle cx="238" cy="212" r="11" fill="#4A332A"></circle><circle cx="241.96" cy="208.04" r="3.52" fill="#FFF"></circle><circle cx="276" cy="212" r="11" fill="#4A332A"></circle><circle cx="279.96" cy="208.04" r="3.52" fill="#FFF"></circle><path d="M 247 234 Q 257 241 267 234" stroke="#4A332A" stroke-width="6" fill="none" stroke-linecap="round"></path><ellipse cx="222" cy="232" rx="9" ry="6.3" fill="#FFAB8E"></ellipse><ellipse cx="292" cy="232" rx="9" ry="6.3" fill="#FFAB8E"></ellipse></svg>