<svg xmlns="http://www.w3.org/2000/svg" width="512" height="512" viewBox="0 0 512 512"><ellipse cx="256" cy="454" rx="116" ry="12" fill="#5A3E2E" opacity="0.11"></ellipse><ellipse cx="256" cy="432" rx="120" ry="24" fill="#E9D4AE"></ellipse><path d="M 256 430 Q 244 330 256 268" stroke="#6FB05C" stroke-width="14" fill="none" stroke-linecap="round"></path><ellipse cx="204" cy="356" rx="36" ry="19" fill="#8FCB7A" transform="rotate(-36 204 356)"></ellipse><ellipse cx="308" cy="342" rx="36" ry="19" fill="#8FCB7A" transform="rotate(36 308 342)"></ellipse><ellipse cx="256" cy="112" rx="21" ry="44" fill="#FFC531" transform="rotate(0 256 204)"></ellipse><ellipse cx="256" cy="112" rx="21" ry="44" fill="#FFC531" transform="rotate(30 256 204)"></ellipse><ellipse cx="256" cy="112" rx="21" ry="44" fill="#FFC531" transform="rotate(60 256 204)"></ellipse><ellipse cx="256" cy="112" rx="21" ry="44" fill="#FFC531" transform="rotate(90 256 204)"></ellipse><ellipse cx="256" cy="112" rx="21" ry="44" fill="#FFC531" transform="rotate(120 256 204)"></ellipse><ellipse cx="256" cy="112" rx="21" ry="44" fill="#FFC531" transform="rotate(150 256 204)"></ellipse><ellipse cx="256" cy="112" rx="21" ry="44" fill="#FFC531" transform="rotate(180 256 204)"></ellipse><ellipse cx="256" cy="112" rx="21" ry="44" fill="#FFC531" transform="rotate(210 256 204)"></ellipse><ellipse cx="256" cy="112" rx="21" ry="44" fill="#FFC531" transform="rotate(240 256 204)"></ellipse><ellipse cx="256" cy="112" rx="21" ry="44" fill="#FFC531" transform="rotate(270 256 204)"></ellipse><ellipse cx="256" cy="112" rx="21" ry="44" fill="#FFC531" transform="rotate(300 256 204)"></ellipse><ellipse cx="256" cy="112" rx="21" ry="44" fill="#FFC531" transform="rotate(330 256 204)"></ellipse><circle cx="256" cy="204" r="64" fill="#A06B45"></circle><circle cx="234" cy="198" r="11" fill="#4A332A"></circle><circle cx="237.96" cy="194.04" r="3.52" fill="#FFF"></circle><circle cx="278" cy="198" r="11" fill="#4A332A"></circle><circle cx="281.96" cy="194.04" r="3.52" fill="#FFF"></circle><path d="M 247 222 Q 257 229 267 222" stroke="#4A332A" stroke-width="6" fill="none" stroke-linecap="round"></path><ellipse cx="218" cy="218" rx="9" ry="6.3" fill="#E8956B"></ellipse><ellipse cx="294" cy="218" rx="9" ry="6.3" fill="#E8956B"></ellipse></svg>