<svg xmlns="http://www.w3.org/2000/svg" width="512" height="512" viewBox="0 0 512 512"><ellipse cx="256" cy="454" rx="118" ry="12" fill="#5A3E2E" opacity="0.11"></ellipse><ellipse cx="256" cy="432" rx="120" ry="24" fill="#E9D4AE"></ellipse><path d="M 256 430 Q 244 330 256 268" stroke="#6FB05C" stroke-width="14" fill="none" stroke-linecap="round"></path><ellipse cx="202" cy="354" rx="38" ry="20" fill="#8FCB7A" transform="rotate(-36 202 354)"></ellipse><ellipse cx="310" cy="340" rx="38" ry="20" fill="#8FCB7A" transform="rotate(36 310 340)"></ellipse><ellipse cx="256" cy="98" rx="23" ry="50" fill="#FFC531" transform="rotate(0 256 198)"></ellipse><ellipse cx="256" cy="98" rx="23" ry="50" fill="#FFC531" transform="rotate(25.714285714285715 256 198)"></ellipse><ellipse cx="256" cy="98" rx="23" ry="50" fill="#FFC531" transform="rotate(51.42857142857143 256 198)"></ellipse><ellipse cx="256" cy="98" rx="23" ry="50" fill="#FFC531" transform="rotate(77.14285714285714 256 198)"></ellipse><ellipse cx="256" cy="98" rx="23" ry="50" fill="#FFC531" transform="rotate(102.85714285714286 256 198)"></ellipse><ellipse cx="256" cy="98" rx="23" ry="50" fill="#FFC531" transform="rotate(128.57142857142858 256 198)"></ellipse><ellipse cx="256" cy="98" rx="23" ry="50" fill="#FFC531" transform="rotate(154.28571428571428 256 198)"></ellipse><ellipse cx="256" cy="98" rx="23" ry="50" fill="#FFC531" transform="rotate(180 256 198)"></ellipse><ellipse cx="256" cy="98" rx="23" ry="50" fill="#FFC531" transform="rotate(205.71428571428572 256 198)"></ellipse><ellipse cx="256" cy="98" rx="23" ry="50" fill="#FFC531" transform="rotate(231.42857142857142 256 198)"></ellipse><ellipse cx="256" cy="98" rx="23" ry="50" fill="#FFC531" transform="rotate(257.14285714285717 256 198)"></ellipse><ellipse cx="256" cy="98" rx="23" ry="50" fill="#FFC531" transform="rotate(282.85714285714283 256 198)"></ellipse><ellipse cx="256" cy="98" rx="23" ry="50" fill="#FFC531" transform="rotate(308.57142857142856 256 198)"></ellipse><ellipse cx="256" cy="98" rx="23" ry="50" fill="#FFC531" transform="rotate(334.2857142857143 256 198)"></ellipse><circle cx="256" cy="198" r="70" fill="#A06B45"></circle><path d="M 220 199 Q 232 177 244 199" stroke="#4A332A" stroke-width="11" fill="none" stroke-linecap="round"></path><path d="M 268 199 Q 280 177 292 199" stroke="#4A332A" stroke-width="11" fill="none" stroke-linecap="round"></path><path d="M 238 222 Q 256 238 274 222" stroke="#4A332A" stroke-width="8" fill="none" stroke-linecap="round"></path><ellipse cx="214" cy="214" rx="10" ry="7" fill="#E8956B"></ellipse><ellipse cx="298" cy="214" rx="10" ry="7" fill="#E8956B"></ellipse><path d="M 104 116 Q 107.36 126.64 118 130 Q 107.36 133.36 104 144 Q 100.64 133.36 90 130 Q 100.64 126.64 104 116 Z" fill="#FFBD33"></path><path d="M 408 94 Q 411.84 106.16 424 110 Q 411.84 113.84 408 126 Q 404.16 113.84 392 110 Q 404.16 106.16 408 94 Z" fill="#FFBD33"></path><path d="M 434 230 Q 436.4 237.6 444 240 Q 436.4 242.4 434 250 Q 431.6 242.4 424 240 Q 431.6 237.6 434 230 Z" fill="#FFBD33"></path></svg>