<svg xmlns="http://www.w3.org/2000/svg" width="1206" height="2622" viewBox="0 0 1206 2622"><rect width="1206" height="1790" fill="#FFF4E4"></rect><rect y="1790" width="1206" height="832" fill="#F6DFC0"></rect><rect y="1776" width="1206" height="16" fill="#EFD2AC"></rect><path d="M 240 580 L 240 900 L 770 900 L 770 580 Q 770 300 505 300 Q 240 300 240 580 Z" fill="#FFFFFF"></path><path d="M 268 588 L 268 872 L 742 872 L 742 588 Q 742 328 505 328 Q 268 328 268 588 Z" fill="#C8E7F2"></path><circle cx="618" cy="470" r="96" fill="#FFE9A8" opacity="0.55"></circle><circle cx="618" cy="470" r="64" fill="#FFD65C"></circle><g fill="#FFFFFF"><ellipse cx="360" cy="560" rx="64" ry="26"></ellipse><ellipse cx="412" cy="544" rx="46" ry="22"></ellipse><ellipse cx="560" cy="700" rx="56" ry="22" opacity="0.9"></ellipse><ellipse cx="608" cy="688" rx="40" ry="18" opacity="0.9"></ellipse></g><rect x="498" y="328" width="14" height="544" fill="#FFFFFF"></rect><rect x="268" y="640" width="474" height="14" fill="#FFFFFF"></rect><rect x="228" y="892" width="554" height="26" rx="13" fill="#F0DDB4"></rect><path d="M 300 918 L 710 918 L 900 1560 L 140 1560 Z" fill="#FFE9A8" opacity="0.20"></path><path d="M 60 100 Q 300 150 603 132 Q 906 112 1146 152" stroke="#D9B98C" stroke-width="6" fill="none"></path><path d="M 118 124 L 182 124 L 150 174 Z" fill="#F8B9C4"></path><path d="M 238 140 L 302 140 L 270 190 Z" fill="#A5D98F"></path><path d="M 358 148 L 422 148 L 390 198 Z" fill="#FFD65C"></path><path d="M 478 146 L 542 146 L 510 196 Z" fill="#9EC1DB"></path><path d="M 598 136 L 662 136 L 630 186 Z" fill="#F8B9C4"></path><path d="M 718 124 L 782 124 L 750 174 Z" fill="#A5D98F"></path><path d="M 838 118 L 902 118 L 870 168 Z" fill="#FFD65C"></path><path d="M 958 124 L 1022 124 L 990 174 Z" fill="#9EC1DB"></path><path d="M 1078 138 L 1142 138 L 1110 188 Z" fill="#F8B9C4"></path><rect x="820" y="1010" width="320" height="26" rx="13" fill="#E2B183"></rect><path d="M 850 1036 L 850 1076 M 1110 1036 L 1110 1076" stroke="#D9A26E" stroke-width="12" stroke-linecap="round"></path><rect x="880" y="1240" width="260" height="26" rx="13" fill="#E2B183"></rect><path d="M 906 1266 L 906 1302 M 1114 1266 L 1114 1302" stroke="#D9A26E" stroke-width="12" stroke-linecap="round"></path><rect x="70" y="1130" width="280" height="26" rx="13" fill="#E2B183"></rect><path d="M 98 1156 L 98 1194 M 322 1156 L 322 1194" stroke="#D9A26E" stroke-width="12" stroke-linecap="round"></path><ellipse cx="603" cy="2130" rx="430" ry="150" fill="#FBE3D9"></ellipse><ellipse cx="603" cy="2130" rx="360" ry="118" fill="none" stroke="#F5CBB8" stroke-width="10"></ellipse><ellipse cx="150" cy="2482" rx="80" ry="14" fill="#5A3E2E" opacity="0.10"></ellipse><path d="M 104 2380 L 116 2470 Q 150 2480 184 2470 L 196 2380 Z" fill="#E8946A"></path><rect x="94" y="2360" width="112" height="24" rx="12" fill="#D97F55"></rect><g fill="#8FCB7A"><ellipse cx="118" cy="2312" rx="20" ry="42" transform="rotate(-24 118 2312)"></ellipse><ellipse cx="182" cy="2312" rx="20" ry="42" transform="rotate(24 182 2312)"></ellipse><ellipse cx="150" cy="2290" rx="20" ry="48"></ellipse></g></svg>