<svg xmlns="http://www.w3.org/2000/svg" width="512" height="512" viewBox="0 0 512 512"><ellipse cx="256" cy="440" rx="110" ry="12" fill="#5A3E2E" opacity="0.12"></ellipse><ellipse cx="150" cy="304" rx="26" ry="16" fill="#EFCFA8" transform="rotate(-24 150 304)"></ellipse><ellipse cx="362" cy="304" rx="26" ry="16" fill="#EFCFA8" transform="rotate(24 362 304)"></ellipse><ellipse cx="256" cy="330" rx="134" ry="114" fill="#EFCFA8"></ellipse><circle cx="176" cy="272" r="32" fill="#FBF3E6"></circle><circle cx="216" cy="248" r="36" fill="#FBF3E6"></circle><circle cx="256" cy="238" r="38" fill="#FBF3E6"></circle><circle cx="296" cy="248" r="36" fill="#FBF3E6"></circle><circle cx="336" cy="272" r="32" fill="#FBF3E6"></circle><circle cx="214" cy="318" r="12" fill="#4A332A"></circle><circle cx="218.32" cy="313.68" r="3.84" fill="#FFF"></circle><circle cx="298" cy="318" r="12" fill="#4A332A"></circle><circle cx="302.32" cy="313.68" r="3.84" fill="#FFF"></circle><path d="M 244 346 Q 250 355 256 346 Q 262 355 268 346" stroke="#4A332A" stroke-width="7" fill="none" stroke-linecap="round"></path><ellipse cx="184" cy="348" rx="16" ry="11.2" fill="#FFAB8E"></ellipse><ellipse cx="328" cy="348" rx="16" ry="11.2" fill="#FFAB8E"></ellipse></svg>