<svg xmlns="http://www.w3.org/2000/svg" width="512" height="512" viewBox="0 0 512 512"><ellipse cx="256" cy="442" rx="114" ry="12" fill="#5A3E2E" opacity="0.12"></ellipse><ellipse cx="140" cy="316" rx="28" ry="17" fill="#EFCFA8" transform="rotate(-26 140 316)"></ellipse><ellipse cx="372" cy="316" rx="28" ry="17" fill="#EFCFA8" transform="rotate(26 372 316)"></ellipse><circle cx="372.0" cy="312.0" r="44" fill="#FBF3E6"></circle><circle cx="356.5" cy="363.0" r="44" fill="#FBF3E6"></circle><circle cx="314.0" cy="400.3" r="44" fill="#FBF3E6"></circle><circle cx="256.0" cy="414.0" r="44" fill="#FBF3E6"></circle><circle cx="198.0" cy="400.3" r="44" fill="#FBF3E6"></circle><circle cx="155.5" cy="363.0" r="44" fill="#FBF3E6"></circle><circle cx="140.0" cy="312.0" r="44" fill="#FBF3E6"></circle><circle cx="155.5" cy="261.0" r="44" fill="#FBF3E6"></circle><circle cx="198.0" cy="223.7" r="44" fill="#FBF3E6"></circle><circle cx="256.0" cy="210.0" r="44" fill="#FBF3E6"></circle><circle cx="314.0" cy="223.7" r="44" fill="#FBF3E6"></circle><circle cx="356.5" cy="261.0" r="44" fill="#FBF3E6"></circle><ellipse cx="256" cy="312" rx="122" ry="108" fill="#FBF3E6"></ellipse><ellipse cx="256" cy="322" rx="76" ry="68" fill="#EFCFA8"></ellipse><circle cx="226" cy="308" r="12" fill="#4A332A"></circle><circle cx="230.32" cy="303.68" r="3.84" fill="#FFF"></circle><circle cx="288" cy="308" r="12" fill="#4A332A"></circle><circle cx="292.32" cy="303.68" r="3.84" fill="#FFF"></circle><path d="M 246 342 Q 251 351 256 342 Q 261 351 266 342" stroke="#4A332A" stroke-width="7" fill="none" stroke-linecap="round"></path><ellipse cx="202" cy="336" rx="11" ry="7.699999999999999" fill="#FFAB8E"></ellipse><ellipse cx="310" cy="336" rx="11" ry="7.699999999999999" fill="#FFAB8E"></ellipse></svg>