<svg xmlns="http://www.w3.org/2000/svg" width="512" height="512" viewBox="0 0 512 512"><ellipse cx="256" cy="446" rx="116" ry="12" fill="#5A3E2E" opacity="0.12"></ellipse><rect x="200" y="400" width="22" height="46" rx="11" fill="#C9A97E"></rect><rect x="290" y="400" width="22" height="46" rx="11" fill="#C9A97E"></rect><ellipse cx="136" cy="308" rx="29" ry="18" fill="#EFCFA8" transform="rotate(-26 136 308)"></ellipse><ellipse cx="376" cy="308" rx="29" ry="18" fill="#EFCFA8" transform="rotate(26 376 308)"></ellipse><circle cx="378.0" cy="304.0" r="46" fill="#FBF3E6"></circle><circle cx="361.7" cy="357.0" r="46" fill="#FBF3E6"></circle><circle cx="317.0" cy="395.8" r="46" fill="#FBF3E6"></circle><circle cx="256.0" cy="410.0" r="46" fill="#FBF3E6"></circle><circle cx="195.0" cy="395.8" r="46" fill="#FBF3E6"></circle><circle cx="150.3" cy="357.0" r="46" fill="#FBF3E6"></circle><circle cx="134.0" cy="304.0" r="46" fill="#FBF3E6"></circle><circle cx="150.3" cy="251.0" r="46" fill="#FBF3E6"></circle><circle cx="195.0" cy="212.2" r="46" fill="#FBF3E6"></circle><circle cx="256.0" cy="198.0" r="46" fill="#FBF3E6"></circle><circle cx="317.0" cy="212.2" r="46" fill="#FBF3E6"></circle><circle cx="361.7" cy="251.0" r="46" fill="#FBF3E6"></circle><ellipse cx="256" cy="304" rx="128" ry="112" fill="#FBF3E6"></ellipse><ellipse cx="256" cy="316" rx="78" ry="70" fill="#EFCFA8"></ellipse><circle cx="226" cy="302" r="12" fill="#4A332A"></circle><circle cx="230.32" cy="297.68" r="3.84" fill="#FFF"></circle><circle cx="288" cy="302" r="12" fill="#4A332A"></circle><circle cx="292.32" cy="297.68" r="3.84" fill="#FFF"></circle><path d="M 246 336 Q 251 345 256 336 Q 261 345 266 336" stroke="#4A332A" stroke-width="7" fill="none" stroke-linecap="round"></path><ellipse cx="202" cy="330" rx="11" ry="7.699999999999999" fill="#FFAB8E"></ellipse><ellipse cx="310" cy="330" rx="11" ry="7.699999999999999" fill="#FFAB8E"></ellipse></svg>