<svg xmlns="http://www.w3.org/2000/svg" width="512" height="512" viewBox="0 0 512 512"><ellipse cx="256" cy="446" rx="118" ry="12" fill="#5A3E2E" opacity="0.12"></ellipse><rect x="198" y="404" width="22" height="46" rx="11" fill="#C9A97E"></rect><rect x="292" y="404" width="22" height="46" rx="11" fill="#C9A97E"></rect><ellipse cx="132" cy="304" rx="30" ry="18" fill="#EFCFA8" transform="rotate(-26 132 304)"></ellipse><ellipse cx="380" cy="304" rx="30" ry="18" fill="#EFCFA8" transform="rotate(26 380 304)"></ellipse><circle cx="382.0" cy="300.0" r="48" fill="#FBF3E6"></circle><circle cx="367.6" cy="351.1" r="48" fill="#FBF3E6"></circle><circle cx="327.6" cy="390.5" r="48" fill="#FBF3E6"></circle><circle cx="271.2" cy="409.2" r="48" fill="#FBF3E6"></circle><circle cx="211.3" cy="402.9" r="48" fill="#FBF3E6"></circle><circle cx="161.7" cy="372.9" r="48" fill="#FBF3E6"></circle><circle cx="133.7" cy="326.3" r="48" fill="#FBF3E6"></circle><circle cx="133.7" cy="273.7" r="48" fill="#FBF3E6"></circle><circle cx="161.7" cy="227.1" r="48" fill="#FBF3E6"></circle><circle cx="211.3" cy="197.1" r="48" fill="#FBF3E6"></circle><circle cx="271.2" cy="190.8" r="48" fill="#FBF3E6"></circle><circle cx="327.6" cy="209.5" r="48" fill="#FBF3E6"></circle><circle cx="367.6" cy="248.9" r="48" fill="#FBF3E6"></circle><ellipse cx="256" cy="300" rx="132" ry="116" fill="#FBF3E6"></ellipse><ellipse cx="256" cy="314" rx="80" ry="72" fill="#EFCFA8"></ellipse><path d="M 226 376 Q 256 388 286 376" stroke="#C9A97E" stroke-width="8" fill="none" stroke-linecap="round"></path><circle cx="256" cy="392" r="13" fill="#FFC531"></circle><circle cx="256" cy="396" r="4" fill="#B8860B"></circle><circle cx="226" cy="298" r="12" fill="#4A332A"></circle><circle cx="230.32" cy="293.68" r="3.84" fill="#FFF"></circle><circle cx="288" cy="298" r="12" fill="#4A332A"></circle><circle cx="292.32" cy="293.68" r="3.84" fill="#FFF"></circle><path d="M 246 332 Q 251 341 256 332 Q 261 341 266 332" stroke="#4A332A" stroke-width="7" fill="none" stroke-linecap="round"></path><ellipse cx="202" cy="326" rx="11" ry="7.699999999999999" fill="#FFAB8E"></ellipse><ellipse cx="310" cy="326" rx="11" ry="7.699999999999999" fill="#FFAB8E"></ellipse></svg>