<svg xmlns="http://www.w3.org/2000/svg" width="512" height="512" viewBox="0 0 512 512"><ellipse cx="256" cy="446" rx="118" ry="12" fill="#5A3E2E" opacity="0.12"></ellipse><rect x="198" y="404" width="22" height="46" rx="11" fill="#C9A97E"></rect><rect x="292" y="404" width="22" height="46" rx="11" fill="#C9A97E"></rect><ellipse cx="132" cy="304" rx="30" ry="18" fill="#EFCFA8" transform="rotate(-26 132 304)"></ellipse><ellipse cx="380" cy="304" rx="30" ry="18" fill="#EFCFA8" transform="rotate(26 380 304)"></ellipse><circle cx="382.0" cy="300.0" r="48" fill="#FBF3E6"></circle><circle cx="367.6" cy="351.1" r="48" fill="#FBF3E6"></circle><circle cx="327.6" cy="390.5" r="48" fill="#FBF3E6"></circle><circle cx="271.2" cy="409.2" r="48" fill="#FBF3E6"></circle><circle cx="211.3" cy="402.9" r="48" fill="#FBF3E6"></circle><circle cx="161.7" cy="372.9" r="48" fill="#FBF3E6"></circle><circle cx="133.7" cy="326.3" r="48" fill="#FBF3E6"></circle><circle cx="133.7" cy="273.7" r="48" fill="#FBF3E6"></circle><circle cx="161.7" cy="227.1" r="48" fill="#FBF3E6"></circle><circle cx="211.3" cy="197.1" r="48" fill="#FBF3E6"></circle><circle cx="271.2" cy="190.8" r="48" fill="#FBF3E6"></circle><circle cx="327.6" cy="209.5" r="48" fill="#FBF3E6"></circle><circle cx="367.6" cy="248.9" r="48" fill="#FBF3E6"></circle><ellipse cx="256" cy="300" rx="132" ry="116" fill="#FBF3E6"></ellipse><ellipse cx="256" cy="314" rx="80" ry="72" fill="#EFCFA8"></ellipse><path d="M 213 305 Q 226 283 239 305" stroke="#4A332A" stroke-width="11" fill="none" stroke-linecap="round"></path><path d="M 275 305 Q 288 283 301 305" stroke="#4A332A" stroke-width="11" fill="none" stroke-linecap="round"></path><path d="M 244 330 Q 256 342 268 330" stroke="#4A332A" stroke-width="8" fill="none" stroke-linecap="round"></path><ellipse cx="202" cy="326" rx="11" ry="7.699999999999999" fill="#FFAB8E"></ellipse><ellipse cx="310" cy="326" rx="11" ry="7.699999999999999" fill="#FFAB8E"></ellipse><path d="M 233 168 L 231.85 148.45 L 246.8 158.8 L 256 143.85 L 265.2 158.8 L 280.15 148.45 L 279 168 Q 256 173.75 233 168 Z" fill="#FFC531"></path><circle cx="256" cy="140.86" r="3.91" fill="#FFC531"></circle><path d="M 112 125 Q 115.6 136.4 127 140 Q 115.6 143.6 112 155 Q 108.4 143.6 97 140 Q 108.4 136.4 112 125 Z" fill="#FFBD33"></path><path d="M 400 100 Q 404.32 113.68 418 118 Q 404.32 122.32 400 136 Q 395.68 122.32 382 118 Q 395.68 113.68 400 100 Z" fill="#FFBD33"></path><path d="M 430 240 Q 432.4 247.6 440 250 Q 432.4 252.4 430 260 Q 427.6 252.4 420 250 Q 427.6 247.6 430 240 Z" fill="#FFBD33"></path><path d="M 84 222 Q 86.4 229.6 94 232 Q 86.4 234.4 84 242 Q 81.6 234.4 74 232 Q 81.6 229.6 84 222 Z" fill="#FFBD33"></path></svg>