<svg xmlns="http://www.w3.org/2000/svg" width="512" height="512" viewBox="0 0 512 512"><ellipse cx="256" cy="438" rx="112" ry="12" fill="#5A3E2E" opacity="0.12"></ellipse><path d="M 146.9 265.7 L 138.0 241.0 L 163.9 245.5 Z" fill="#8A6248" stroke="#8A6248" stroke-width="8" stroke-linejoin="round"></path><path d="M 188.5 226.5 L 190.9 200.4 L 212.4 215.4 Z" fill="#8A6248" stroke="#8A6248" stroke-width="8" stroke-linejoin="round"></path><path d="M 242.8 208.7 L 256.0 186.0 L 269.2 208.7 Z" fill="#8A6248" stroke="#8A6248" stroke-width="8" stroke-linejoin="round"></path><path d="M 299.6 215.4 L 321.1 200.4 L 323.5 226.5 Z" fill="#8A6248" stroke="#8A6248" stroke-width="8" stroke-linejoin="round"></path><path d="M 348.1 245.5 L 374.0 241.0 L 365.1 265.7 Z" fill="#8A6248" stroke="#8A6248" stroke-width="8" stroke-linejoin="round"></path><ellipse cx="256" cy="336" rx="146" ry="106" fill="#F7E3C8"></ellipse><path d="M 198 317 Q 214 335 230 317" stroke="#4A332A" stroke-width="11" fill="none" stroke-linecap="round"></path><path d="M 282 317 Q 298 335 314 317" stroke="#4A332A" stroke-width="11" fill="none" stroke-linecap="round"></path><ellipse cx="256" cy="346" rx="11" ry="8" fill="#4A332A"></ellipse><ellipse cx="184" cy="352" rx="16" ry="11.2" fill="#FFAB8E"></ellipse><ellipse cx="328" cy="352" rx="16" ry="11.2" fill="#FFAB8E"></ellipse></svg>