<svg xmlns="http://www.w3.org/2000/svg" width="512" height="512" viewBox="0 0 512 512"><ellipse cx="256" cy="438" rx="112" ry="12" fill="#5A3E2E" opacity="0.12"></ellipse><path d="M 133.8 286.9 L 110.5 258.0 L 147.2 263.7 Z" fill="#8A6248" stroke="#8A6248" stroke-width="8" stroke-linejoin="round"></path><path d="M 160.0 248.5 L 148.0 213.3 L 180.5 231.3 Z" fill="#8A6248" stroke="#8A6248" stroke-width="8" stroke-linejoin="round"></path><path d="M 197.8 221.3 L 198.5 184.1 L 223.0 212.1 Z" fill="#8A6248" stroke="#8A6248" stroke-width="8" stroke-linejoin="round"></path><path d="M 242.6 208.7 L 256.0 174.0 L 269.4 208.7 Z" fill="#8A6248" stroke="#8A6248" stroke-width="8" stroke-linejoin="round"></path><path d="M 289.0 212.1 L 313.5 184.1 L 314.2 221.3 Z" fill="#8A6248" stroke="#8A6248" stroke-width="8" stroke-linejoin="round"></path><path d="M 331.5 231.3 L 364.0 213.3 L 352.0 248.5 Z" fill="#8A6248" stroke="#8A6248" stroke-width="8" stroke-linejoin="round"></path><path d="M 364.8 263.7 L 401.5 258.0 L 378.2 286.9 Z" fill="#8A6248" stroke="#8A6248" stroke-width="8" stroke-linejoin="round"></path><ellipse cx="256" cy="336" rx="146" ry="106" fill="#F7E3C8"></ellipse><circle cx="214" cy="318" r="14" fill="#4A332A"></circle><circle cx="219.04" cy="312.96" r="4.48" fill="#FFF"></circle><circle cx="298" cy="318" r="14" fill="#4A332A"></circle><circle cx="303.04" cy="312.96" r="4.48" fill="#FFF"></circle><ellipse cx="256" cy="342" rx="11" ry="8" fill="#4A332A"></ellipse><path d="M 244 360 Q 250 369 256 360 Q 262 369 268 360" stroke="#4A332A" stroke-width="7" fill="none" stroke-linecap="round"></path><ellipse cx="182" cy="348" rx="16" ry="11.2" fill="#FFAB8E"></ellipse><ellipse cx="330" cy="348" rx="16" ry="11.2" fill="#FFAB8E"></ellipse></svg>