<svg xmlns="http://www.w3.org/2000/svg" width="512" height="512" viewBox="0 0 512 512"><ellipse cx="256" cy="440" rx="110" ry="12" fill="#5A3E2E" opacity="0.12"></ellipse><path d="M 133.9 298.9 L 96.3 271.9 L 142.5 275.3 Z" fill="#8A6248" stroke="#8A6248" stroke-width="8" stroke-linejoin="round"></path><path d="M 148.9 263.7 L 121.1 226.5 L 164.2 243.7 Z" fill="#8A6248" stroke="#8A6248" stroke-width="8" stroke-linejoin="round"></path><path d="M 173.8 234.5 L 158.5 190.7 L 194.4 220.1 Z" fill="#8A6248" stroke="#8A6248" stroke-width="8" stroke-linejoin="round"></path><path d="M 206.3 214.2 L 204.9 167.9 L 230.3 206.6 Z" fill="#8A6248" stroke="#8A6248" stroke-width="8" stroke-linejoin="round"></path><path d="M 243.4 204.6 L 256.0 160.0 L 268.6 204.6 Z" fill="#8A6248" stroke="#8A6248" stroke-width="8" stroke-linejoin="round"></path><path d="M 281.7 206.6 L 307.1 167.9 L 305.7 214.2 Z" fill="#8A6248" stroke="#8A6248" stroke-width="8" stroke-linejoin="round"></path><path d="M 317.6 220.1 L 353.5 190.7 L 338.2 234.5 Z" fill="#8A6248" stroke="#8A6248" stroke-width="8" stroke-linejoin="round"></path><path d="M 347.8 243.7 L 390.9 226.5 L 363.1 263.7 Z" fill="#8A6248" stroke="#8A6248" stroke-width="8" stroke-linejoin="round"></path><path d="M 369.5 275.3 L 415.7 271.9 L 378.1 298.9 Z" fill="#8A6248" stroke="#8A6248" stroke-width="8" stroke-linejoin="round"></path><ellipse cx="256" cy="322" rx="136" ry="120" fill="#F7E3C8"></ellipse><circle cx="212" cy="300" r="14" fill="#4A332A"></circle><circle cx="217.04" cy="294.96" r="4.48" fill="#FFF"></circle><circle cx="300" cy="300" r="14" fill="#4A332A"></circle><circle cx="305.04" cy="294.96" r="4.48" fill="#FFF"></circle><ellipse cx="256" cy="326" rx="11" ry="8" fill="#4A332A"></ellipse><path d="M 244 344 Q 250 353 256 344 Q 262 353 268 344" stroke="#4A332A" stroke-width="7" fill="none" stroke-linecap="round"></path><ellipse cx="180" cy="332" rx="16" ry="11.2" fill="#FFAB8E"></ellipse><ellipse cx="332" cy="332" rx="16" ry="11.2" fill="#FFAB8E"></ellipse></svg>