<svg xmlns="http://www.w3.org/2000/svg" width="512" height="512" viewBox="0 0 512 512"><ellipse cx="256" cy="442" rx="112" ry="12" fill="#5A3E2E" opacity="0.12"></ellipse><path d="M 134.0 297.9 L 86.8 271.5 L 140.8 274.1 Z" fill="#8A6248" stroke="#8A6248" stroke-width="8" stroke-linejoin="round"></path><path d="M 145.2 264.3 L 107.5 225.6 L 158.5 243.4 Z" fill="#8A6248" stroke="#8A6248" stroke-width="8" stroke-linejoin="round"></path><path d="M 165.5 235.2 L 140.3 187.4 L 184.2 218.9 Z" fill="#8A6248" stroke="#8A6248" stroke-width="8" stroke-linejoin="round"></path><path d="M 193.3 213.0 L 182.5 160.1 L 215.8 202.7 Z" fill="#8A6248" stroke="#8A6248" stroke-width="8" stroke-linejoin="round"></path><path d="M 226.1 199.7 L 230.8 145.8 L 250.6 196.1 Z" fill="#8A6248" stroke="#8A6248" stroke-width="8" stroke-linejoin="round"></path><path d="M 261.4 196.1 L 281.2 145.8 L 285.9 199.7 Z" fill="#8A6248" stroke="#8A6248" stroke-width="8" stroke-linejoin="round"></path><path d="M 296.2 202.7 L 329.5 160.1 L 318.7 213.0 Z" fill="#8A6248" stroke="#8A6248" stroke-width="8" stroke-linejoin="round"></path><path d="M 327.8 218.9 L 371.7 187.4 L 346.5 235.2 Z" fill="#8A6248" stroke="#8A6248" stroke-width="8" stroke-linejoin="round"></path><path d="M 353.5 243.4 L 404.5 225.6 L 366.8 264.3 Z" fill="#8A6248" stroke="#8A6248" stroke-width="8" stroke-linejoin="round"></path><path d="M 371.2 274.1 L 425.2 271.5 L 378.0 297.9 Z" fill="#8A6248" stroke="#8A6248" stroke-width="8" stroke-linejoin="round"></path><rect x="205" y="416" width="38" height="16" rx="8" fill="#D9B98C"></rect><rect x="269" y="416" width="38" height="16" rx="8" fill="#D9B98C"></rect><ellipse cx="256" cy="314" rx="132" ry="126" fill="#F7E3C8"></ellipse><circle cx="212" cy="292" r="14" fill="#4A332A"></circle><circle cx="217.04" cy="286.96" r="4.48" fill="#FFF"></circle><circle cx="300" cy="292" r="14" fill="#4A332A"></circle><circle cx="305.04" cy="286.96" r="4.48" fill="#FFF"></circle><ellipse cx="256" cy="318" rx="11" ry="8" fill="#4A332A"></ellipse><path d="M 244 336 Q 250 345 256 336 Q 262 345 268 336" stroke="#4A332A" stroke-width="7" fill="none" stroke-linecap="round"></path><ellipse cx="180" cy="324" rx="16" ry="11.2" fill="#FFAB8E"></ellipse><ellipse cx="332" cy="324" rx="16" ry="11.2" fill="#FFAB8E"></ellipse></svg>