<svg xmlns="http://www.w3.org/2000/svg" width="512" height="512" viewBox="0 0 512 512"><ellipse cx="256" cy="444" rx="114" ry="12" fill="#5A3E2E" opacity="0.12"></ellipse><path d="M 129.3 297.6 L 73.6 270.5 L 135.5 272.8 Z" fill="#8A6248" stroke="#8A6248" stroke-width="8" stroke-linejoin="round"></path><path d="M 140.1 261.6 L 94.7 219.5 L 153.3 239.7 Z" fill="#8A6248" stroke="#8A6248" stroke-width="8" stroke-linejoin="round"></path><path d="M 160.9 230.3 L 129.7 176.8 L 179.9 213.1 Z" fill="#8A6248" stroke="#8A6248" stroke-width="8" stroke-linejoin="round"></path><path d="M 190.0 206.4 L 175.6 146.1 L 213.1 195.4 Z" fill="#8A6248" stroke="#8A6248" stroke-width="8" stroke-linejoin="round"></path><path d="M 224.7 191.9 L 228.4 130.0 L 249.9 188.1 Z" fill="#8A6248" stroke="#8A6248" stroke-width="8" stroke-linejoin="round"></path><path d="M 262.1 188.1 L 283.6 130.0 L 287.3 191.9 Z" fill="#8A6248" stroke="#8A6248" stroke-width="8" stroke-linejoin="round"></path><path d="M 298.9 195.4 L 336.4 146.1 L 322.0 206.4 Z" fill="#8A6248" stroke="#8A6248" stroke-width="8" stroke-linejoin="round"></path><path d="M 332.1 213.1 L 382.3 176.8 L 351.1 230.3 Z" fill="#8A6248" stroke="#8A6248" stroke-width="8" stroke-linejoin="round"></path><path d="M 358.7 239.7 L 417.3 219.5 L 371.9 261.6 Z" fill="#8A6248" stroke="#8A6248" stroke-width="8" stroke-linejoin="round"></path><path d="M 376.5 272.8 L 438.4 270.5 L 382.7 297.6 Z" fill="#8A6248" stroke="#8A6248" stroke-width="8" stroke-linejoin="round"></path><path d="M 149.6 280.9 L 119.0 255.0 L 158.7 260.5 Z" fill="#A0764E" stroke="#A0764E" stroke-width="8" stroke-linejoin="round"></path><path d="M 166.7 248.4 L 146.0 214.0 L 181.9 232.0 Z" fill="#A0764E" stroke="#A0764E" stroke-width="8" stroke-linejoin="round"></path><path d="M 193.3 223.2 L 184.9 183.9 L 213.0 212.6 Z" fill="#A0764E" stroke="#A0764E" stroke-width="8" stroke-linejoin="round"></path><path d="M 226.7 207.9 L 231.4 168.0 L 248.8 204.2 Z" fill="#A0764E" stroke="#A0764E" stroke-width="8" stroke-linejoin="round"></path><path d="M 263.2 204.2 L 280.6 168.0 L 285.3 207.9 Z" fill="#A0764E" stroke="#A0764E" stroke-width="8" stroke-linejoin="round"></path><path d="M 299.0 212.6 L 327.1 183.9 L 318.7 223.2 Z" fill="#A0764E" stroke="#A0764E" stroke-width="8" stroke-linejoin="round"></path><path d="M 330.1 232.0 L 366.0 214.0 L 345.3 248.4 Z" fill="#A0764E" stroke="#A0764E" stroke-width="8" stroke-linejoin="round"></path><path d="M 353.3 260.5 L 393.0 255.0 L 362.4 280.9 Z" fill="#A0764E" stroke="#A0764E" stroke-width="8" stroke-linejoin="round"></path><rect x="203" y="422" width="38" height="16" rx="8" fill="#D9B98C"></rect><rect x="271" y="422" width="38" height="16" rx="8" fill="#D9B98C"></rect><ellipse cx="256" cy="310" rx="134" ry="130" fill="#F7E3C8"></ellipse><path d="M 195 295 Q 212 273 229 295" stroke="#4A332A" stroke-width="11" fill="none" stroke-linecap="round"></path><path d="M 283 295 Q 300 273 317 295" stroke="#4A332A" stroke-width="11" fill="none" stroke-linecap="round"></path><ellipse cx="256" cy="314" rx="11" ry="8" fill="#4A332A"></ellipse><path d="M 244 332 Q 250 341 256 332 Q 262 341 268 332" stroke="#4A332A" stroke-width="7" fill="none" stroke-linecap="round"></path><ellipse cx="178" cy="320" rx="16" ry="11.2" fill="#FFAB8E"></ellipse><ellipse cx="334" cy="320" rx="16" ry="11.2" fill="#FFAB8E"></ellipse></svg>