<svg xmlns="http://www.w3.org/2000/svg" width="512" height="512" viewBox="0 0 512 512"><ellipse cx="256" cy="446" rx="116" ry="12" fill="#5A3E2E" opacity="0.12"></ellipse><path d="M 124.8 297.6 L 64.3 271.2 L 130.3 271.8 Z" fill="#8A6248" stroke="#8A6248" stroke-width="8" stroke-linejoin="round"></path><path d="M 133.5 262.8 L 82.3 221.2 L 145.7 239.5 Z" fill="#8A6248" stroke="#8A6248" stroke-width="8" stroke-linejoin="round"></path><path d="M 151.2 231.7 L 113.1 177.8 L 169.3 212.5 Z" fill="#8A6248" stroke="#8A6248" stroke-width="8" stroke-linejoin="round"></path><path d="M 176.7 206.5 L 154.5 144.3 L 199.2 192.8 Z" fill="#8A6248" stroke="#8A6248" stroke-width="8" stroke-linejoin="round"></path><path d="M 208.0 189.0 L 203.3 123.2 L 233.4 182.0 Z" fill="#8A6248" stroke="#8A6248" stroke-width="8" stroke-linejoin="round"></path><path d="M 242.8 180.7 L 256.0 116.0 L 269.2 180.7 Z" fill="#8A6248" stroke="#8A6248" stroke-width="8" stroke-linejoin="round"></path><path d="M 278.6 182.0 L 308.7 123.2 L 304.0 189.0 Z" fill="#8A6248" stroke="#8A6248" stroke-width="8" stroke-linejoin="round"></path><path d="M 312.8 192.8 L 357.5 144.3 L 335.3 206.5 Z" fill="#8A6248" stroke="#8A6248" stroke-width="8" stroke-linejoin="round"></path><path d="M 342.7 212.5 L 398.9 177.8 L 360.8 231.7 Z" fill="#8A6248" stroke="#8A6248" stroke-width="8" stroke-linejoin="round"></path><path d="M 366.3 239.5 L 429.7 221.2 L 378.5 262.8 Z" fill="#8A6248" stroke="#8A6248" stroke-width="8" stroke-linejoin="round"></path><path d="M 381.7 271.8 L 447.7 271.2 L 387.2 297.6 Z" fill="#8A6248" stroke="#8A6248" stroke-width="8" stroke-linejoin="round"></path><path d="M 144.6 279.5 L 111.4 253.6 L 153.3 258.0 Z" fill="#A0764E" stroke="#A0764E" stroke-width="8" stroke-linejoin="round"></path><path d="M 159.0 248.4 L 134.8 213.8 L 173.6 230.4 Z" fill="#A0764E" stroke="#A0764E" stroke-width="8" stroke-linejoin="round"></path><path d="M 181.9 222.8 L 168.8 182.7 L 201.1 209.8 Z" fill="#A0764E" stroke="#A0764E" stroke-width="8" stroke-linejoin="round"></path><path d="M 211.2 205.0 L 210.4 162.8 L 233.3 198.2 Z" fill="#A0764E" stroke="#A0764E" stroke-width="8" stroke-linejoin="round"></path><path d="M 244.4 196.6 L 256.0 156.0 L 267.6 196.6 Z" fill="#A0764E" stroke="#A0764E" stroke-width="8" stroke-linejoin="round"></path><path d="M 278.7 198.2 L 301.6 162.8 L 300.8 205.0 Z" fill="#A0764E" stroke="#A0764E" stroke-width="8" stroke-linejoin="round"></path><path d="M 310.9 209.8 L 343.2 182.7 L 330.1 222.8 Z" fill="#A0764E" stroke="#A0764E" stroke-width="8" stroke-linejoin="round"></path><path d="M 338.4 230.4 L 377.2 213.8 L 353.0 248.4 Z" fill="#A0764E" stroke="#A0764E" stroke-width="8" stroke-linejoin="round"></path><path d="M 358.7 258.0 L 400.6 253.6 L 367.4 279.5 Z" fill="#A0764E" stroke="#A0764E" stroke-width="8" stroke-linejoin="round"></path><rect x="201" y="428" width="38" height="16" rx="8" fill="#D9B98C"></rect><rect x="273" y="428" width="38" height="16" rx="8" fill="#D9B98C"></rect><ellipse cx="256" cy="306" rx="138" ry="136" fill="#F7E3C8"></ellipse><circle cx="342" cy="158" r="20" fill="#E4574D"></circle><path d="M 342 140 Q 344 128 352 124" stroke="#8A6248" stroke-width="5" fill="none" stroke-linecap="round"></path><ellipse cx="354" cy="132" rx="9" ry="5" fill="#8FCB7A" transform="rotate(24 354 132)"></ellipse><path d="M 195 291 Q 212 269 229 291" stroke="#4A332A" stroke-width="11" fill="none" stroke-linecap="round"></path><path d="M 283 291 Q 300 269 317 291" stroke="#4A332A" stroke-width="11" fill="none" stroke-linecap="round"></path><ellipse cx="256" cy="310" rx="11" ry="8" fill="#4A332A"></ellipse><path d="M 244 328 Q 250 337 256 328 Q 262 337 268 328" stroke="#4A332A" stroke-width="7" fill="none" stroke-linecap="round"></path><ellipse cx="178" cy="316" rx="16" ry="11.2" fill="#FFAB8E"></ellipse><ellipse cx="334" cy="316" rx="16" ry="11.2" fill="#FFAB8E"></ellipse><path d="M 233 146 L 231.85 126.45 L 246.8 136.8 L 256 121.85 L 265.2 136.8 L 280.15 126.45 L 279 146 Q 256 151.75 233 146 Z" fill="#FFC531"></path><circle cx="256" cy="118.86" r="3.91" fill="#FFC531"></circle><path d="M 104 146 Q 107.36 156.64 118 160 Q 107.36 163.36 104 174 Q 100.64 163.36 90 160 Q 100.64 156.64 104 146 Z" fill="#FFBD33"></path><path d="M 414 229 Q 416.64 237.36 425 240 Q 416.64 242.64 414 251 Q 411.36 242.64 403 240 Q 411.36 237.36 414 229 Z" fill="#FFBD33"></path><path d="M 92 250 Q 94.4 257.6 102 260 Q 94.4 262.4 92 270 Q 89.6 262.4 82 260 Q 89.6 257.6 92 250 Z" fill="#FFBD33"></path></svg>