<svg xmlns="http://www.w3.org/2000/svg" width="512" height="512" viewBox="0 0 512 512"><ellipse cx="256" cy="452" rx="108" ry="12" fill="#5A3E2E" opacity="0.1"></ellipse><ellipse cx="256" cy="432" rx="120" ry="24" fill="#E9D4AE"></ellipse><path d="M 256 430 L 256 300" stroke="#6FB05C" stroke-width="12" stroke-linecap="round"></path><ellipse cx="214" cy="356" rx="32" ry="17" fill="#8FCB7A" transform="rotate(-32 214 356)"></ellipse><ellipse cx="298" cy="344" rx="32" ry="17" fill="#8FCB7A" transform="rotate(32 298 344)"></ellipse><ellipse cx="256" cy="264" rx="34" ry="44" fill="#8FCB7A"></ellipse><ellipse cx="256" cy="238" rx="22" ry="20" fill="#E4574D"></ellipse><circle cx="242" cy="268" r="9" fill="#4A332A"></circle><circle cx="245.24" cy="264.76" r="2.88" fill="#FFF"></circle><circle cx="272" cy="268" r="9" fill="#4A332A"></circle><circle cx="275.24" cy="264.76" r="2.88" fill="#FFF"></circle><path d="M 249 288 Q 257 293.6 265 288" stroke="#4A332A" stroke-width="5" fill="none" stroke-linecap="round"></path><ellipse cx="230" cy="284" rx="8" ry="5.6" fill="#FFAB8E"></ellipse><ellipse cx="284" cy="284" rx="8" ry="5.6" fill="#FFAB8E"></ellipse></svg>