<svg xmlns="http://www.w3.org/2000/svg" width="512" height="512" viewBox="0 0 512 512"><ellipse cx="256" cy="452" rx="110" ry="12" fill="#5A3E2E" opacity="0.1"></ellipse><ellipse cx="256" cy="432" rx="120" ry="24" fill="#E9D4AE"></ellipse><path d="M 256 430 L 256 288" stroke="#6FB05C" stroke-width="13" stroke-linecap="round"></path><ellipse cx="212" cy="360" rx="32" ry="17" fill="#8FCB7A" transform="rotate(-32 212 360)"></ellipse><ellipse cx="300" cy="348" rx="32" ry="17" fill="#8FCB7A" transform="rotate(32 300 348)"></ellipse><path d="M 226 284 Q 208 258 222 240 M 286 284 Q 304 258 290 240" stroke="#6FB05C" stroke-width="10" fill="none" stroke-linecap="round"></path><ellipse cx="256" cy="230" rx="46" ry="56" fill="#E4574D"></ellipse><path d="M 234 196 Q 256 216 254 262 M 280 200 Q 262 220 262 258" stroke="#C43D35" stroke-width="6" fill="none" stroke-linecap="round"></path><path d="M 225 229 Q 236 247 247 229" stroke="#4A332A" stroke-width="11" fill="none" stroke-linecap="round"></path><path d="M 267 229 Q 278 247 289 229" stroke="#4A332A" stroke-width="11" fill="none" stroke-linecap="round"></path><ellipse cx="224" cy="256" rx="9" ry="6.3" fill="#F8A0A0"></ellipse><ellipse cx="290" cy="256" rx="9" ry="6.3" fill="#F8A0A0"></ellipse></svg>