<svg xmlns="http://www.w3.org/2000/svg" width="512" height="512" viewBox="0 0 512 512"><ellipse cx="256" cy="452" rx="110" ry="12" fill="#5A3E2E" opacity="0.1"></ellipse><ellipse cx="256" cy="432" rx="120" ry="24" fill="#E9D4AE"></ellipse><path d="M 256 430 L 256 284" stroke="#6FB05C" stroke-width="13" stroke-linecap="round"></path><ellipse cx="210" cy="358" rx="32" ry="17" fill="#8FCB7A" transform="rotate(-32 210 358)"></ellipse><ellipse cx="302" cy="346" rx="32" ry="17" fill="#8FCB7A" transform="rotate(32 302 346)"></ellipse><ellipse cx="218" cy="238" rx="26" ry="48" fill="#C43D35" transform="rotate(-14 218 238)"></ellipse><ellipse cx="294" cy="238" rx="26" ry="48" fill="#C43D35" transform="rotate(14 294 238)"></ellipse><ellipse cx="256" cy="234" rx="44" ry="54" fill="#E4574D"></ellipse><path d="M 238 196 Q 256 216 254 246" stroke="#C43D35" stroke-width="6" fill="none" stroke-linecap="round"></path><circle cx="238" cy="236" r="10" fill="#4A332A"></circle><circle cx="241.6" cy="232.4" r="3.2" fill="#FFF"></circle><circle cx="276" cy="236" r="10" fill="#4A332A"></circle><circle cx="279.6" cy="232.4" r="3.2" fill="#FFF"></circle><path d="M 248 258 Q 257 264.3 266 258" stroke="#4A332A" stroke-width="6" fill="none" stroke-linecap="round"></path><ellipse cx="226" cy="254" rx="9" ry="6.3" fill="#F8A0A0"></ellipse><ellipse cx="290" cy="254" rx="9" ry="6.3" fill="#F8A0A0"></ellipse></svg>