<svg xmlns="http://www.w3.org/2000/svg" width="512" height="512" viewBox="0 0 512 512"><ellipse cx="256" cy="454" rx="112" ry="12" fill="#5A3E2E" opacity="0.1"></ellipse><ellipse cx="256" cy="432" rx="120" ry="24" fill="#E9D4AE"></ellipse><path d="M 256 430 L 256 280" stroke="#6FB05C" stroke-width="14" stroke-linecap="round"></path><ellipse cx="208" cy="356" rx="36" ry="19" fill="#8FCB7A" transform="rotate(-32 208 356)"></ellipse><ellipse cx="304" cy="344" rx="36" ry="19" fill="#8FCB7A" transform="rotate(32 304 344)"></ellipse><ellipse cx="256" cy="162" rx="26" ry="36" fill="#C43D35" transform="rotate(0 256 216)"></ellipse><ellipse cx="256" cy="162" rx="26" ry="36" fill="#C43D35" transform="rotate(51.42857142857143 256 216)"></ellipse><ellipse cx="256" cy="162" rx="26" ry="36" fill="#C43D35" transform="rotate(102.85714285714286 256 216)"></ellipse><ellipse cx="256" cy="162" rx="26" ry="36" fill="#C43D35" transform="rotate(154.28571428571428 256 216)"></ellipse><ellipse cx="256" cy="162" rx="26" ry="36" fill="#C43D35" transform="rotate(205.71428571428572 256 216)"></ellipse><ellipse cx="256" cy="162" rx="26" ry="36" fill="#C43D35" transform="rotate(257.14285714285717 256 216)"></ellipse><ellipse cx="256" cy="162" rx="26" ry="36" fill="#C43D35" transform="rotate(308.57142857142856 256 216)"></ellipse><circle cx="256" cy="216" r="58" fill="#E4574D"></circle><circle cx="256" cy="216" r="40" fill="none" stroke="#C43D35" stroke-width="6"></circle><circle cx="256" cy="212" r="20" fill="none" stroke="#C43D35" stroke-width="5"></circle><circle cx="236" cy="216" r="10" fill="#4A332A"></circle><circle cx="239.6" cy="212.4" r="3.2" fill="#FFF"></circle><circle cx="276" cy="216" r="10" fill="#4A332A"></circle><circle cx="279.6" cy="212.4" r="3.2" fill="#FFF"></circle><path d="M 248 240 Q 257 246.3 266 240" stroke="#4A332A" stroke-width="6" fill="none" stroke-linecap="round"></path><ellipse cx="224" cy="238" rx="9" ry="6.3" fill="#F8A0A0"></ellipse><ellipse cx="290" cy="238" rx="9" ry="6.3" fill="#F8A0A0"></ellipse></svg>