<svg xmlns="http://www.w3.org/2000/svg" width="512" height="512" viewBox="0 0 512 512"><ellipse cx="256" cy="454" rx="112" ry="12" fill="#5A3E2E" opacity="0.1"></ellipse><ellipse cx="256" cy="432" rx="120" ry="24" fill="#E9D4AE"></ellipse><path d="M 256 430 L 256 276" stroke="#6FB05C" stroke-width="14" stroke-linecap="round"></path><ellipse cx="206" cy="354" rx="38" ry="20" fill="#8FCB7A" transform="rotate(-32 206 354)"></ellipse><ellipse cx="306" cy="342" rx="38" ry="20" fill="#8FCB7A" transform="rotate(32 306 342)"></ellipse><ellipse cx="256" cy="148" rx="28" ry="40" fill="#C43D35" transform="rotate(0 256 210)"></ellipse><ellipse cx="256" cy="148" rx="28" ry="40" fill="#C43D35" transform="rotate(45 256 210)"></ellipse><ellipse cx="256" cy="148" rx="28" ry="40" fill="#C43D35" transform="rotate(90 256 210)"></ellipse><ellipse cx="256" cy="148" rx="28" ry="40" fill="#C43D35" transform="rotate(135 256 210)"></ellipse><ellipse cx="256" cy="148" rx="28" ry="40" fill="#C43D35" transform="rotate(180 256 210)"></ellipse><ellipse cx="256" cy="148" rx="28" ry="40" fill="#C43D35" transform="rotate(225 256 210)"></ellipse><ellipse cx="256" cy="148" rx="28" ry="40" fill="#C43D35" transform="rotate(270 256 210)"></ellipse><ellipse cx="256" cy="148" rx="28" ry="40" fill="#C43D35" transform="rotate(315 256 210)"></ellipse><circle cx="256" cy="210" r="64" fill="#E4574D"></circle><circle cx="256" cy="210" r="44" fill="none" stroke="#C43D35" stroke-width="6"></circle><circle cx="256" cy="206" r="22" fill="none" stroke="#C43D35" stroke-width="5"></circle><path d="M 225 217 Q 236 195 247 217" stroke="#4A332A" stroke-width="11" fill="none" stroke-linecap="round"></path><path d="M 265 217 Q 276 195 287 217" stroke="#4A332A" stroke-width="11" fill="none" stroke-linecap="round"></path><path d="M 247 236 Q 257 243 267 236" stroke="#4A332A" stroke-width="6" fill="none" stroke-linecap="round"></path><ellipse cx="222" cy="232" rx="9" ry="6.3" fill="#F8A0A0"></ellipse><ellipse cx="292" cy="232" rx="9" ry="6.3" fill="#F8A0A0"></ellipse><ellipse cx="380" cy="300" rx="12" ry="8" fill="#E4574D" transform="rotate(30 380 300)"></ellipse><ellipse cx="140" cy="330" rx="10" ry="7" fill="#E4574D" transform="rotate(-20 140 330)"></ellipse><path d="M 116 136 Q 119.36 146.64 130 150 Q 119.36 153.36 116 164 Q 112.64 153.36 102 150 Q 112.64 146.64 116 136 Z" fill="#FFBD33"></path><path d="M 400 114 Q 403.84 126.16 416 130 Q 403.84 133.84 400 146 Q 396.16 133.84 384 130 Q 396.16 126.16 400 114 Z" fill="#FFBD33"></path></svg>