<svg xmlns="http://www.w3.org/2000/svg" width="512" height="512" viewBox="0 0 512 512"><ellipse cx="256" cy="460" rx="104" ry="12" fill="#5A3E2E" opacity="0.1"></ellipse><rect x="206" y="168" width="100" height="200" rx="50" fill="#7FC271"></rect><path d="M 225 192 L 232 201 L 239 192" stroke="#FFFFFF" stroke-width="5" fill="none" stroke-linecap="round" stroke-linejoin="round"></path><path d="M 273 192 L 280 201 L 287 192" stroke="#FFFFFF" stroke-width="5" fill="none" stroke-linecap="round" stroke-linejoin="round"></path><path d="M 249 176 L 256 185 L 263 176" stroke="#FFFFFF" stroke-width="5" fill="none" stroke-linecap="round" stroke-linejoin="round"></path><path d="M 225 330 L 232 339 L 239 330" stroke="#FFFFFF" stroke-width="5" fill="none" stroke-linecap="round" stroke-linejoin="round"></path><path d="M 273 330 L 280 339 L 287 330" stroke="#FFFFFF" stroke-width="5" fill="none" stroke-linecap="round" stroke-linejoin="round"></path><circle cx="234" cy="252" r="11" fill="#4A332A"></circle><circle cx="237.96" cy="248.04" r="3.52" fill="#FFF"></circle><circle cx="278" cy="252" r="11" fill="#4A332A"></circle><circle cx="281.96" cy="248.04" r="3.52" fill="#FFF"></circle><path d="M 246 274 Q 256 281 266 274" stroke="#4A332A" stroke-width="6" fill="none" stroke-linecap="round"></path><ellipse cx="216" cy="272" rx="9" ry="6.3" fill="#FFAB8E"></ellipse><ellipse cx="296" cy="272" rx="9" ry="6.3" fill="#FFAB8E"></ellipse><ellipse cx="256" cy="358" rx="64" ry="12" fill="#8A6248"></ellipse><rect x="176" y="352" width="160" height="30" rx="14" fill="#D97F55"></rect><path d="M 190 382 L 208 448 Q 256 458 304 448 L 322 382 Z" fill="#E8946A"></path></svg>