<svg xmlns="http://www.w3.org/2000/svg" width="512" height="512" viewBox="0 0 512 512"><ellipse cx="256" cy="460" rx="108" ry="12" fill="#5A3E2E" opacity="0.1"></ellipse><path d="M 214 296 L 158 296 L 158 242" stroke="#7FC271" stroke-width="50" fill="none" stroke-linecap="round" stroke-linejoin="round"></path><path d="M 298 316 L 354 316 L 354 262" stroke="#7FC271" stroke-width="50" fill="none" stroke-linecap="round" stroke-linejoin="round"></path><rect x="206" y="168" width="100" height="200" rx="50" fill="#7FC271"></rect><ellipse cx="256" cy="152" rx="20" ry="28" fill="#F473A0"></ellipse><path d="M 256 132 L 256 168" stroke="#E4578F" stroke-width="6" stroke-linecap="round"></path><path d="M 225 200 L 232 209 L 239 200" stroke="#FFFFFF" stroke-width="5" fill="none" stroke-linecap="round" stroke-linejoin="round"></path><path d="M 273 200 L 280 209 L 287 200" stroke="#FFFFFF" stroke-width="5" fill="none" stroke-linecap="round" stroke-linejoin="round"></path><path d="M 151 236 L 158 245 L 165 236" stroke="#FFFFFF" stroke-width="5" fill="none" stroke-linecap="round" stroke-linejoin="round"></path><path d="M 347 258 L 354 267 L 361 258" stroke="#FFFFFF" stroke-width="5" fill="none" stroke-linecap="round" stroke-linejoin="round"></path><circle cx="234" cy="252" r="11" fill="#4A332A"></circle><circle cx="237.96" cy="248.04" r="3.52" fill="#FFF"></circle><circle cx="278" cy="252" r="11" fill="#4A332A"></circle><circle cx="281.96" cy="248.04" r="3.52" fill="#FFF"></circle><path d="M 246 274 Q 256 281 266 274" stroke="#4A332A" stroke-width="6" fill="none" stroke-linecap="round"></path><ellipse cx="216" cy="272" rx="9" ry="6.3" fill="#FFAB8E"></ellipse><ellipse cx="296" cy="272" rx="9" ry="6.3" fill="#FFAB8E"></ellipse><ellipse cx="256" cy="358" rx="64" ry="12" fill="#8A6248"></ellipse><rect x="176" y="352" width="160" height="30" rx="14" fill="#D97F55"></rect><path d="M 190 382 L 208 448 Q 256 458 304 448 L 322 382 Z" fill="#E8946A"></path></svg>