<svg xmlns="http://www.w3.org/2000/svg" width="512" height="512" viewBox="0 0 512 512"><ellipse cx="256" cy="460" rx="108" ry="12" fill="#5A3E2E" opacity="0.1"></ellipse><path d="M 214 296 L 158 296 L 158 242" stroke="#7FC271" stroke-width="50" fill="none" stroke-linecap="round" stroke-linejoin="round"></path><path d="M 298 316 L 354 316 L 354 262" stroke="#7FC271" stroke-width="50" fill="none" stroke-linecap="round" stroke-linejoin="round"></path><rect x="206" y="168" width="100" height="200" rx="50" fill="#7FC271"></rect><ellipse cx="256" cy="108" rx="17" ry="26" fill="#F473A0" transform="rotate(0 256 138)"></ellipse><ellipse cx="256" cy="108" rx="17" ry="26" fill="#F473A0" transform="rotate(60 256 138)"></ellipse><ellipse cx="256" cy="108" rx="17" ry="26" fill="#F473A0" transform="rotate(120 256 138)"></ellipse><ellipse cx="256" cy="108" rx="17" ry="26" fill="#F473A0" transform="rotate(180 256 138)"></ellipse><ellipse cx="256" cy="108" rx="17" ry="26" fill="#F473A0" transform="rotate(240 256 138)"></ellipse><ellipse cx="256" cy="108" rx="17" ry="26" fill="#F473A0" transform="rotate(300 256 138)"></ellipse><circle cx="256" cy="138" r="17" fill="#FFC531"></circle><path d="M 225 210 L 232 219 L 239 210" stroke="#FFFFFF" stroke-width="5" fill="none" stroke-linecap="round" stroke-linejoin="round"></path><path d="M 273 210 L 280 219 L 287 210" stroke="#FFFFFF" stroke-width="5" fill="none" stroke-linecap="round" stroke-linejoin="round"></path><path d="M 151 236 L 158 245 L 165 236" stroke="#FFFFFF" stroke-width="5" fill="none" stroke-linecap="round" stroke-linejoin="round"></path><path d="M 347 258 L 354 267 L 361 258" stroke="#FFFFFF" stroke-width="5" fill="none" stroke-linecap="round" stroke-linejoin="round"></path><path d="M 222 261 Q 234 239 246 261" stroke="#4A332A" stroke-width="11" fill="none" stroke-linecap="round"></path><path d="M 266 261 Q 278 239 290 261" stroke="#4A332A" stroke-width="11" fill="none" stroke-linecap="round"></path><path d="M 245 278 Q 256 285.7 267 278" stroke="#4A332A" stroke-width="6" fill="none" stroke-linecap="round"></path><ellipse cx="216" cy="276" rx="9" ry="6.3" fill="#FFAB8E"></ellipse><ellipse cx="296" cy="276" rx="9" ry="6.3" fill="#FFAB8E"></ellipse><ellipse cx="256" cy="358" rx="64" ry="12" fill="#8A6248"></ellipse><rect x="176" y="352" width="160" height="30" rx="14" fill="#D97F55"></rect><path d="M 190 382 L 208 448 Q 256 458 304 448 L 322 382 Z" fill="#E8946A"></path><path d="M 120 167 Q 123.12 176.88 133 180 Q 123.12 183.12 120 193 Q 116.88 183.12 107 180 Q 116.88 176.88 120 167 Z" fill="#FFBD33"></path><path d="M 396 145 Q 399.6 156.4 411 160 Q 399.6 163.6 396 175 Q 392.4 163.6 381 160 Q 392.4 156.4 396 145 Z" fill="#FFBD33"></path></svg>