<svg xmlns="http://www.w3.org/2000/svg" width="512" height="512" viewBox="0 0 512 512"><ellipse cx="256" cy="444" rx="102" ry="12" fill="#5A3E2E" opacity="0.14"></ellipse><path d="M 256 118 C 198 118 152 196 152 294 C 152 376 198 434 256 434 C 314 434 360 376 360 294 C 360 196 314 118 256 118 Z" fill="#EAF4EC"></path><path d="M 200 210 q 18 14 36 0 M 250 196 q 18 14 36 0 M 224 260 q 18 14 36 0 M 286 248 q 18 14 36 0 M 180 300 q 18 14 36 0" stroke="#CBE2D4" stroke-width="6" fill="none" stroke-linecap="round"></path><path d="M 196 325 Q 212 343 228 325" stroke="#4A332A" stroke-width="11" fill="none" stroke-linecap="round"></path><path d="M 284 325 Q 300 343 316 325" stroke="#4A332A" stroke-width="11" fill="none" stroke-linecap="round"></path><ellipse cx="196" cy="360" rx="16" ry="11.2" fill="#FFAB8E"></ellipse><ellipse cx="316" cy="360" rx="16" ry="11.2" fill="#FFAB8E"></ellipse></svg>