<svg xmlns="http://www.w3.org/2000/svg" width="512" height="512" viewBox="0 0 512 512"><ellipse cx="256" cy="446" rx="110" ry="12" fill="#5A3E2E" opacity="0.14"></ellipse><path d="M 150 300 Q 84 250 92 196 Q 130 230 150 240 Z" fill="#F8B9C4" stroke="#F8B9C4" stroke-width="10" stroke-linejoin="round"></path><path d="M 362 300 Q 428 250 420 196 Q 382 230 362 240 Z" fill="#F8B9C4" stroke="#F8B9C4" stroke-width="10" stroke-linejoin="round"></path><path d="M 218.4 182 L 208.5 149.7 L 238 176" fill="#F7E6CE" stroke="#F7E6CE" stroke-width="8" stroke-linejoin="round"></path><path d="M 293.6 182 L 303.5 149.7 L 274 176" fill="#F7E6CE" stroke="#F7E6CE" stroke-width="8" stroke-linejoin="round"></path><path d="M 366 352 Q 412 338 424 308" stroke="#96D2B8" stroke-width="27" fill="none" stroke-linecap="round"></path><ellipse cx="256" cy="308" rx="132" ry="130" fill="#96D2B8"></ellipse><ellipse cx="256" cy="376" rx="72" ry="52" fill="#F2F9EF"></ellipse><circle cx="212" cy="286" r="14" fill="#4A332A"></circle><circle cx="217.04" cy="280.96" r="4.48" fill="#FFF"></circle><circle cx="300" cy="286" r="14" fill="#4A332A"></circle><circle cx="305.04" cy="280.96" r="4.48" fill="#FFF"></circle><path d="M 243 318 Q 256 327.1 269 318" stroke="#4A332A" stroke-width="7" fill="none" stroke-linecap="round"></path><ellipse cx="180" cy="316" rx="16" ry="11.2" fill="#FFAB8E"></ellipse><ellipse cx="332" cy="316" rx="16" ry="11.2" fill="#FFAB8E"></ellipse></svg>