<svg xmlns="http://www.w3.org/2000/svg" width="512" height="512" viewBox="0 0 512 512"><ellipse cx="256" cy="448" rx="114" ry="12" fill="#5A3E2E" opacity="0.14"></ellipse><path d="M 146 300 Q 80 250 88 196 Q 126 230 146 240 Z" fill="#F8B9C4" stroke="#F8B9C4" stroke-width="10" stroke-linejoin="round"></path><path d="M 366 300 Q 432 250 424 196 Q 386 230 366 240 Z" fill="#F8B9C4" stroke="#F8B9C4" stroke-width="10" stroke-linejoin="round"></path><path d="M 217.6 174 L 207.5 138.3 L 238 168" fill="#F7E6CE" stroke="#F7E6CE" stroke-width="8" stroke-linejoin="round"></path><path d="M 294.4 174 L 304.5 138.3 L 274 168" fill="#F7E6CE" stroke="#F7E6CE" stroke-width="8" stroke-linejoin="round"></path><path d="M 370 346 Q 422 328 432 288" stroke="#96D2B8" stroke-width="30" fill="none" stroke-linecap="round"></path><path d="M 428 288 Q 442 268 434 250 Q 452 262 448 284 Q 444 300 428 296 Z" fill="#F9A44A"></path><rect x="201" y="424" width="38" height="16" rx="8" fill="#7ABBA0"></rect><rect x="273" y="424" width="38" height="16" rx="8" fill="#7ABBA0"></rect><ellipse cx="256" cy="304" rx="136" ry="136" fill="#96D2B8"></ellipse><ellipse cx="256" cy="376" rx="78" ry="56" fill="#F2F9EF"></ellipse><circle cx="210" cy="280" r="14" fill="#4A332A"></circle><circle cx="215.04" cy="274.96" r="4.48" fill="#FFF"></circle><circle cx="302" cy="280" r="14" fill="#4A332A"></circle><circle cx="307.04" cy="274.96" r="4.48" fill="#FFF"></circle><path d="M 242 314 Q 256 323.8 270 314" stroke="#4A332A" stroke-width="7" fill="none" stroke-linecap="round"></path><ellipse cx="178" cy="310" rx="16" ry="11.2" fill="#FFAB8E"></ellipse><ellipse cx="334" cy="310" rx="16" ry="11.2" fill="#FFAB8E"></ellipse></svg>