<svg xmlns="http://www.w3.org/2000/svg" width="512" height="512" viewBox="0 0 512 512"><ellipse cx="256" cy="450" rx="118" ry="12" fill="#5A3E2E" opacity="0.14"></ellipse><path d="M 140 300 Q 74 250 82 196 Q 120 230 140 240 Z" fill="#F8B9C4" stroke="#F8B9C4" stroke-width="10" stroke-linejoin="round"></path><path d="M 372 300 Q 438 250 430 196 Q 392 230 372 240 Z" fill="#F8B9C4" stroke="#F8B9C4" stroke-width="10" stroke-linejoin="round"></path><path d="M 216.8 166 L 206.5 126.9 L 238 160" fill="#F7E6CE" stroke="#F7E6CE" stroke-width="8" stroke-linejoin="round"></path><path d="M 295.2 166 L 305.5 126.9 L 274 160" fill="#F7E6CE" stroke="#F7E6CE" stroke-width="8" stroke-linejoin="round"></path><path d="M 374 340 Q 432 318 440 272" stroke="#96D2B8" stroke-width="34" fill="none" stroke-linecap="round"></path><path d="M 436 272 Q 452 250 442 228 Q 464 244 458 270 Q 452 290 434 284 Z" fill="#F9A44A"></path><rect x="199" y="430" width="38" height="16" rx="8" fill="#7ABBA0"></rect><rect x="275" y="430" width="38" height="16" rx="8" fill="#7ABBA0"></rect><ellipse cx="256" cy="298" rx="142" ry="142" fill="#96D2B8"></ellipse><ellipse cx="256" cy="376" rx="84" ry="60" fill="#F2F9EF"></ellipse><path d="M 196 380 Q 256 396 316 380 M 206 404 Q 256 416 306 404" stroke="#DCEEDC" stroke-width="6" fill="none" stroke-linecap="round"></path><circle cx="210" cy="272" r="14" fill="#4A332A"></circle><circle cx="215.04" cy="266.96" r="4.48" fill="#FFF"></circle><circle cx="302" cy="272" r="14" fill="#4A332A"></circle><circle cx="307.04" cy="266.96" r="4.48" fill="#FFF"></circle><path d="M 242 306 Q 256 315.8 270 306" stroke="#4A332A" stroke-width="7" fill="none" stroke-linecap="round"></path><ellipse cx="176" cy="304" rx="16" ry="11.2" fill="#FFAB8E"></ellipse><ellipse cx="336" cy="304" rx="16" ry="11.2" fill="#FFAB8E"></ellipse></svg>