<svg xmlns="http://www.w3.org/2000/svg" width="512" height="512" viewBox="0 0 512 512"><ellipse cx="256" cy="450" rx="118" ry="12" fill="#5A3E2E" opacity="0.14"></ellipse><path d="M 140 300 Q 74 250 82 196 Q 120 230 140 240 Z" fill="#F8B9C4" stroke="#F8B9C4" stroke-width="10" stroke-linejoin="round"></path><path d="M 372 300 Q 438 250 430 196 Q 392 230 372 240 Z" fill="#F8B9C4" stroke="#F8B9C4" stroke-width="10" stroke-linejoin="round"></path><path d="M 216.8 166 L 206.5 126.9 L 238 160" fill="#F7E6CE" stroke="#F7E6CE" stroke-width="8" stroke-linejoin="round"></path><path d="M 295.2 166 L 305.5 126.9 L 274 160" fill="#F7E6CE" stroke="#F7E6CE" stroke-width="8" stroke-linejoin="round"></path><path d="M 374 340 Q 432 318 440 272" stroke="#96D2B8" stroke-width="34" fill="none" stroke-linecap="round"></path><path d="M 436 272 Q 452 250 442 228 Q 464 244 458 270 Q 452 290 434 284 Z" fill="#F9A44A"></path><rect x="199" y="430" width="38" height="16" rx="8" fill="#7ABBA0"></rect><rect x="275" y="430" width="38" height="16" rx="8" fill="#7ABBA0"></rect><ellipse cx="256" cy="298" rx="142" ry="142" fill="#96D2B8"></ellipse><ellipse cx="256" cy="376" rx="84" ry="60" fill="#F2F9EF"></ellipse><path d="M 193 279 Q 210 257 227 279" stroke="#4A332A" stroke-width="11" fill="none" stroke-linecap="round"></path><path d="M 285 279 Q 302 257 319 279" stroke="#4A332A" stroke-width="11" fill="none" stroke-linecap="round"></path><path d="M 238 304 Q 256 320 274 304" stroke="#4A332A" stroke-width="9" fill="none" stroke-linecap="round"></path><ellipse cx="176" cy="304" rx="16" ry="11.2" fill="#FFAB8E"></ellipse><ellipse cx="336" cy="304" rx="16" ry="11.2" fill="#FFAB8E"></ellipse><path d="M 232 118 L 230.8 97.6 L 246.4 108.4 L 256 92.8 L 265.6 108.4 L 281.2 97.6 L 280 118 Q 256 124 232 118 Z" fill="#FFC531"></path><circle cx="256" cy="89.68" r="4.08" fill="#FFC531"></circle><path d="M 112 135 Q 115.6 146.4 127 150 Q 115.6 153.6 112 165 Q 108.4 153.6 97 150 Q 108.4 146.4 112 135 Z" fill="#FFBD33"></path><path d="M 408 116 Q 411.84 128.16 424 132 Q 411.84 135.84 408 148 Q 404.16 135.84 392 132 Q 404.16 128.16 408 116 Z" fill="#FFBD33"></path><path d="M 84 232 Q 86.4 239.6 94 242 Q 86.4 244.4 84 252 Q 81.6 244.4 74 242 Q 81.6 239.6 84 232 Z" fill="#FFBD33"></path></svg>