<svg xmlns="http://www.w3.org/2000/svg" width="512" height="512" viewBox="0 0 512 512"><ellipse cx="256" cy="448" rx="102" ry="12" fill="#5A3E2E" opacity="0.1"></ellipse><ellipse cx="256" cy="432" rx="120" ry="24" fill="#E9D4AE"></ellipse><rect x="218" y="300" width="76" height="128" rx="24" fill="#8FCB7A"></rect><rect x="212" y="421" width="88" height="10" rx="5" fill="#6FB05C"></rect><ellipse cx="290" cy="272" rx="10" ry="34" fill="#6FB05C" transform="rotate(34 290 272)"></ellipse><ellipse cx="230" cy="262" rx="10" ry="34" fill="#6FB05C" transform="rotate(-30 230 262)"></ellipse><circle cx="236" cy="344" r="11" fill="#4A332A"></circle><circle cx="239.96" cy="340.04" r="3.52" fill="#FFF"></circle><circle cx="276" cy="344" r="11" fill="#4A332A"></circle><circle cx="279.96" cy="340.04" r="3.52" fill="#FFF"></circle><path d="M 247 368 Q 256 374.3 265 368" stroke="#4A332A" stroke-width="6" fill="none" stroke-linecap="round"></path><ellipse cx="220" cy="364" rx="9" ry="6.3" fill="#FFAB8E"></ellipse><ellipse cx="292" cy="364" rx="9" ry="6.3" fill="#FFAB8E"></ellipse></svg>