<svg xmlns="http://www.w3.org/2000/svg" width="512" height="512" viewBox="0 0 512 512"><ellipse cx="256" cy="450" rx="104" ry="12" fill="#5A3E2E" opacity="0.1"></ellipse><ellipse cx="256" cy="432" rx="120" ry="24" fill="#E9D4AE"></ellipse><rect x="218" y="196" width="76" height="116" rx="24" fill="#8FCB7A"></rect><rect x="212" y="305" width="88" height="10" rx="5" fill="#6FB05C"></rect><rect x="218" y="312" width="76" height="116" rx="24" fill="#8FCB7A"></rect><rect x="212" y="421" width="88" height="10" rx="5" fill="#6FB05C"></rect><path d="M 294 186 Q 330 168 344 138" stroke="#6FB05C" stroke-width="8" fill="none" stroke-linecap="round"></path><ellipse cx="348" cy="132" rx="10" ry="34" fill="#6FB05C" transform="rotate(40 348 132)"></ellipse><ellipse cx="318" cy="158" rx="10" ry="34" fill="#6FB05C" transform="rotate(-24 318 158)"></ellipse><circle cx="236" cy="358" r="11" fill="#4A332A"></circle><circle cx="239.96" cy="354.04" r="3.52" fill="#FFF"></circle><circle cx="276" cy="358" r="11" fill="#4A332A"></circle><circle cx="279.96" cy="354.04" r="3.52" fill="#FFF"></circle><path d="M 247 382 Q 256 388.3 265 382" stroke="#4A332A" stroke-width="6" fill="none" stroke-linecap="round"></path><ellipse cx="220" cy="378" rx="9" ry="6.3" fill="#FFAB8E"></ellipse><ellipse cx="292" cy="378" rx="9" ry="6.3" fill="#FFAB8E"></ellipse></svg>