<svg xmlns="http://www.w3.org/2000/svg" width="512" height="512" viewBox="0 0 512 512"><ellipse cx="256" cy="452" rx="106" ry="12" fill="#5A3E2E" opacity="0.1"></ellipse><ellipse cx="256" cy="432" rx="120" ry="24" fill="#E9D4AE"></ellipse><rect x="218" y="142" width="76" height="96" rx="24" fill="#8FCB7A"></rect><rect x="212" y="231" width="88" height="10" rx="5" fill="#6FB05C"></rect><rect x="218" y="238" width="76" height="96" rx="24" fill="#8FCB7A"></rect><rect x="212" y="327" width="88" height="10" rx="5" fill="#6FB05C"></rect><rect x="218" y="334" width="76" height="96" rx="24" fill="#8FCB7A"></rect><rect x="212" y="423" width="88" height="10" rx="5" fill="#6FB05C"></rect><path d="M 294 132 Q 332 112 348 80 M 218 226 Q 180 210 166 182" stroke="#6FB05C" stroke-width="8" fill="none" stroke-linecap="round"></path><ellipse cx="352" cy="76" rx="10" ry="34" fill="#6FB05C" transform="rotate(40 352 76)"></ellipse><ellipse cx="322" cy="102" rx="10" ry="34" fill="#6FB05C" transform="rotate(-22 322 102)"></ellipse><ellipse cx="162" cy="178" rx="10" ry="34" fill="#6FB05C" transform="rotate(-40 162 178)"></ellipse><ellipse cx="190" cy="204" rx="10" ry="34" fill="#6FB05C" transform="rotate(24 190 204)"></ellipse><circle cx="236" cy="378" r="11" fill="#4A332A"></circle><circle cx="239.96" cy="374.04" r="3.52" fill="#FFF"></circle><circle cx="276" cy="378" r="11" fill="#4A332A"></circle><circle cx="279.96" cy="374.04" r="3.52" fill="#FFF"></circle><path d="M 247 402 Q 256 408.3 265 402" stroke="#4A332A" stroke-width="6" fill="none" stroke-linecap="round"></path><ellipse cx="220" cy="398" rx="9" ry="6.3" fill="#FFAB8E"></ellipse><ellipse cx="292" cy="398" rx="9" ry="6.3" fill="#FFAB8E"></ellipse></svg>