<svg xmlns="http://www.w3.org/2000/svg" width="512" height="512" viewBox="0 0 512 512"><ellipse cx="256" cy="452" rx="108" ry="12" fill="#5A3E2E" opacity="0.1"></ellipse><ellipse cx="256" cy="432" rx="120" ry="24" fill="#E9D4AE"></ellipse><rect x="214" y="118" width="84" height="102" rx="24" fill="#8FCB7A"></rect><rect x="208" y="213" width="96" height="10" rx="5" fill="#6FB05C"></rect><rect x="214" y="220" width="84" height="102" rx="24" fill="#8FCB7A"></rect><rect x="208" y="315" width="96" height="10" rx="5" fill="#6FB05C"></rect><rect x="214" y="322" width="84" height="104" rx="24" fill="#8FCB7A"></rect><rect x="208" y="419" width="96" height="10" rx="5" fill="#6FB05C"></rect><path d="M 298 108 Q 338 88 356 54 M 214 202 Q 174 186 158 156" stroke="#6FB05C" stroke-width="9" fill="none" stroke-linecap="round"></path><ellipse cx="360" cy="50" rx="10" ry="34" fill="#6FB05C" transform="rotate(40 360 50)"></ellipse><ellipse cx="328" cy="78" rx="10" ry="34" fill="#6FB05C" transform="rotate(-22 328 78)"></ellipse><ellipse cx="154" cy="152" rx="10" ry="34" fill="#6FB05C" transform="rotate(-40 154 152)"></ellipse><ellipse cx="184" cy="180" rx="10" ry="34" fill="#6FB05C" transform="rotate(24 184 180)"></ellipse><ellipse cx="306" cy="140" rx="10" ry="34" fill="#6FB05C" transform="rotate(32 306 140)"></ellipse><path d="M 221 275 Q 234 253 247 275" stroke="#4A332A" stroke-width="11" fill="none" stroke-linecap="round"></path><path d="M 265 275 Q 278 253 291 275" stroke="#4A332A" stroke-width="11" fill="none" stroke-linecap="round"></path><path d="M 246 296 Q 256 303 266 296" stroke="#4A332A" stroke-width="6" fill="none" stroke-linecap="round"></path><ellipse cx="216" cy="288" rx="10" ry="7" fill="#FFAB8E"></ellipse><ellipse cx="296" cy="288" rx="10" ry="7" fill="#FFAB8E"></ellipse><path d="M 114 227 Q 117.12 236.88 127 240 Q 117.12 243.12 114 253 Q 110.88 243.12 101 240 Q 110.88 236.88 114 227 Z" fill="#FFBD33"></path><path d="M 408 205 Q 411.6 216.4 423 220 Q 411.6 223.6 408 235 Q 404.4 223.6 393 220 Q 404.4 216.4 408 205 Z" fill="#FFBD33"></path><path d="M 96 320 Q 98.4 327.6 106 330 Q 98.4 332.4 96 340 Q 93.6 332.4 86 330 Q 93.6 327.6 96 320 Z" fill="#FFBD33"></path></svg>