<svg xmlns="http://www.w3.org/2000/svg" width="512" height="512" viewBox="0 0 512 512"><ellipse cx="256" cy="438" rx="110" ry="12" fill="#5A3E2E" opacity="0.12"></ellipse><path d="M 174.6 250.4 L 190 221 L 205.4 250.4 Z" fill="#FBF6EE" stroke="#FBF6EE" stroke-width="7.699999999999999" stroke-linejoin="round" transform="rotate(-10 190 242)"></path><path d="M 306.6 250.4 L 322 221 L 337.4 250.4 Z" fill="#FBF6EE" stroke="#FBF6EE" stroke-width="7.699999999999999" stroke-linejoin="round" transform="rotate(10 322 242)"></path><ellipse cx="256" cy="336" rx="144" ry="104" fill="#FBF6EE"></ellipse><path d="M 236 244 Q 226 222 238 208" stroke="#F8B9C4" stroke-width="13" fill="none" stroke-linecap="round"></path><path d="M 198 317 Q 214 335 230 317" stroke="#4A332A" stroke-width="11" fill="none" stroke-linecap="round"></path><path d="M 282 317 Q 298 335 314 317" stroke="#4A332A" stroke-width="11" fill="none" stroke-linecap="round"></path><ellipse cx="184" cy="350" rx="16" ry="11.2" fill="#F8C4CE"></ellipse><ellipse cx="328" cy="350" rx="16" ry="11.2" fill="#F8C4CE"></ellipse><ellipse cx="256" cy="352" rx="34" ry="22" fill="#F7E4EA"></ellipse><circle cx="246" cy="350" r="4" fill="#E0A9B8"></circle><circle cx="266" cy="350" r="4" fill="#E0A9B8"></circle></svg>