<svg xmlns="http://www.w3.org/2000/svg" width="512" height="512" viewBox="0 0 512 512"><ellipse cx="256" cy="438" rx="110" ry="12" fill="#5A3E2E" opacity="0.12"></ellipse><path d="M 170.4 245.6 L 188 212 L 205.6 245.6 Z" fill="#FBF6EE" stroke="#FBF6EE" stroke-width="8.8" stroke-linejoin="round" transform="rotate(-10 188 236)"></path><path d="M 306.4 245.6 L 324 212 L 341.6 245.6 Z" fill="#FBF6EE" stroke="#FBF6EE" stroke-width="8.8" stroke-linejoin="round" transform="rotate(10 324 236)"></path><ellipse cx="256" cy="336" rx="144" ry="104" fill="#FBF6EE"></ellipse><path d="M 230 240 Q 216 214 230 196" stroke="#F8B9C4" stroke-width="14" fill="none" stroke-linecap="round"></path><path d="M 258 236 Q 252 208 266 194" stroke="#FFD65C" stroke-width="14" fill="none" stroke-linecap="round"></path><circle cx="214" cy="318" r="12" fill="#4A332A"></circle><circle cx="218.32" cy="313.68" r="3.84" fill="#FFF"></circle><circle cx="298" cy="318" r="12" fill="#4A332A"></circle><circle cx="302.32" cy="313.68" r="3.84" fill="#FFF"></circle><ellipse cx="182" cy="348" rx="16" ry="11.2" fill="#F8C4CE"></ellipse><ellipse cx="330" cy="348" rx="16" ry="11.2" fill="#F8C4CE"></ellipse><ellipse cx="256" cy="350" rx="36" ry="23" fill="#F7E4EA"></ellipse><circle cx="245" cy="348" r="4" fill="#E0A9B8"></circle><circle cx="267" cy="348" r="4" fill="#E0A9B8"></circle></svg>