<svg xmlns="http://www.w3.org/2000/svg" width="512" height="512" viewBox="0 0 512 512"><ellipse cx="256" cy="440" rx="110" ry="12" fill="#5A3E2E" opacity="0.12"></ellipse><path d="M 242 214 L 256 154 L 270 214 Z" fill="#FFC531" stroke="#FFC531" stroke-width="7" stroke-linejoin="round"></path><path d="M 247 194.8 L 266 187.6 M 244 206.8 L 268 200.8" stroke="#E8A93C" stroke-width="4.5" stroke-linecap="round"></path><path d="M 164.2 232.8 L 184 195 L 203.8 232.8 Z" fill="#FBF6EE" stroke="#FBF6EE" stroke-width="9.9" stroke-linejoin="round" transform="rotate(-10 184 222)"></path><path d="M 308.2 232.8 L 328 195 L 347.8 232.8 Z" fill="#FBF6EE" stroke="#FBF6EE" stroke-width="9.9" stroke-linejoin="round" transform="rotate(10 328 222)"></path><ellipse cx="256" cy="322" rx="138" ry="118" fill="#FBF6EE"></ellipse><path d="M 216 232 Q 196 250 200 290" stroke="#F8B9C4" stroke-width="15" fill="none" stroke-linecap="round"></path><path d="M 238 220 Q 216 246 218 296" stroke="#FFD65C" stroke-width="15" fill="none" stroke-linecap="round"></path><circle cx="214" cy="300" r="12" fill="#4A332A"></circle><circle cx="218.32" cy="295.68" r="3.84" fill="#FFF"></circle><circle cx="300" cy="300" r="12" fill="#4A332A"></circle><circle cx="304.32" cy="295.68" r="3.84" fill="#FFF"></circle><ellipse cx="182" cy="332" rx="16" ry="11.2" fill="#F8C4CE"></ellipse><ellipse cx="330" cy="332" rx="16" ry="11.2" fill="#F8C4CE"></ellipse><ellipse cx="256" cy="336" rx="38" ry="24" fill="#F7E4EA"></ellipse><circle cx="244" cy="334" r="4" fill="#E0A9B8"></circle><circle cx="268" cy="334" r="4" fill="#E0A9B8"></circle><path d="M 246 352 Q 256 359 266 352" stroke="#4A332A" stroke-width="6" fill="none" stroke-linecap="round"></path></svg>