<svg xmlns="http://www.w3.org/2000/svg" width="512" height="512" viewBox="0 0 512 512"><ellipse cx="256" cy="442" rx="112" ry="12" fill="#5A3E2E" opacity="0.12"></ellipse><path d="M 242 196 L 256 118 L 270 196 Z" fill="#FFC531" stroke="#FFC531" stroke-width="7" stroke-linejoin="round"></path><path d="M 247 171.04 L 266 161.68 M 244 186.64 L 268 178.84" stroke="#E8A93C" stroke-width="4.5" stroke-linecap="round"></path><path d="M 158 220 L 180 178 L 202 220 Z" fill="#FBF6EE" stroke="#FBF6EE" stroke-width="11" stroke-linejoin="round" transform="rotate(-10 180 208)"></path><path d="M 310 220 L 332 178 L 354 220 Z" fill="#FBF6EE" stroke="#FBF6EE" stroke-width="11" stroke-linejoin="round" transform="rotate(10 332 208)"></path><path d="M 206 208 Q 162 262 176 324" stroke="#F8B9C4" stroke-width="17" fill="none" stroke-linecap="round"></path><path d="M 226 202 Q 178 270 194 338" stroke="#FFD65C" stroke-width="17" fill="none" stroke-linecap="round"></path><path d="M 246 200 Q 198 278 214 348" stroke="#9EC1DB" stroke-width="17" fill="none" stroke-linecap="round"></path><ellipse cx="256" cy="314" rx="136" ry="124" fill="#FBF6EE"></ellipse><circle cx="216" cy="292" r="13" fill="#4A332A"></circle><circle cx="220.68" cy="287.32" r="4.16" fill="#FFF"></circle><circle cx="302" cy="292" r="13" fill="#4A332A"></circle><circle cx="306.68" cy="287.32" r="4.16" fill="#FFF"></circle><ellipse cx="184" cy="324" rx="16" ry="11.2" fill="#F8C4CE"></ellipse><ellipse cx="332" cy="324" rx="16" ry="11.2" fill="#F8C4CE"></ellipse><ellipse cx="256" cy="330" rx="40" ry="25" fill="#F7E4EA"></ellipse><circle cx="243" cy="328" r="4" fill="#E0A9B8"></circle><circle cx="269" cy="328" r="4" fill="#E0A9B8"></circle><path d="M 246 346 Q 256 353 266 346" stroke="#4A332A" stroke-width="6" fill="none" stroke-linecap="round"></path></svg>