<svg xmlns="http://www.w3.org/2000/svg" width="512" height="512" viewBox="0 0 512 512"><ellipse cx="256" cy="444" rx="114" ry="12" fill="#5A3E2E" opacity="0.12"></ellipse><path d="M 242 186 L 256 98 L 270 186 Z" fill="#FFC531" stroke="#FFC531" stroke-width="7" stroke-linejoin="round"></path><path d="M 247 157.84 L 266 147.28 M 244 175.44 L 268 166.64" stroke="#E8A93C" stroke-width="4.5" stroke-linecap="round"></path><path d="M 152.9 210.6 L 176 166.5 L 199.1 210.6 Z" fill="#FBF6EE" stroke="#FBF6EE" stroke-width="11.55" stroke-linejoin="round" transform="rotate(-10 176 198)"></path><path d="M 312.9 210.6 L 336 166.5 L 359.1 210.6 Z" fill="#FBF6EE" stroke="#FBF6EE" stroke-width="11.55" stroke-linejoin="round" transform="rotate(10 336 198)"></path><path d="M 202 198 Q 158 252 172 314" stroke="#F8B9C4" stroke-width="17" fill="none" stroke-linecap="round"></path><path d="M 222 192 Q 174 260 190 328" stroke="#FFD65C" stroke-width="17" fill="none" stroke-linecap="round"></path><path d="M 242 190 Q 194 268 210 338" stroke="#9EC1DB" stroke-width="17" fill="none" stroke-linecap="round"></path><path d="M 380 350 Q 416 366 414 402" stroke="#F8B9C4" stroke-width="15" fill="none" stroke-linecap="round"></path><path d="M 390 340 Q 432 356 432 396" stroke="#FFD65C" stroke-width="15" fill="none" stroke-linecap="round"></path><path d="M 398 328 Q 448 344 450 386" stroke="#9EC1DB" stroke-width="15" fill="none" stroke-linecap="round"></path><rect x="203" y="420" width="38" height="16" rx="8" fill="#EFDDE4"></rect><rect x="271" y="420" width="38" height="16" rx="8" fill="#EFDDE4"></rect><ellipse cx="256" cy="308" rx="138" ry="128" fill="#FBF6EE"></ellipse><circle cx="216" cy="286" r="13" fill="#4A332A"></circle><circle cx="220.68" cy="281.32" r="4.16" fill="#FFF"></circle><circle cx="302" cy="286" r="13" fill="#4A332A"></circle><circle cx="306.68" cy="281.32" r="4.16" fill="#FFF"></circle><ellipse cx="184" cy="318" rx="16" ry="11.2" fill="#F8C4CE"></ellipse><ellipse cx="332" cy="318" rx="16" ry="11.2" fill="#F8C4CE"></ellipse><ellipse cx="256" cy="324" rx="42" ry="26" fill="#F7E4EA"></ellipse><circle cx="242" cy="322" r="4" fill="#E0A9B8"></circle><circle cx="270" cy="322" r="4" fill="#E0A9B8"></circle><path d="M 245 342 Q 256 349.7 267 342" stroke="#4A332A" stroke-width="6" fill="none" stroke-linecap="round"></path></svg>