<svg xmlns="http://www.w3.org/2000/svg" width="512" height="512" viewBox="0 0 512 512"><ellipse cx="256" cy="446" rx="116" ry="12" fill="#5A3E2E" opacity="0.12"></ellipse><path d="M 242 176 L 256 78 L 270 176 Z" fill="#FFC531" stroke="#FFC531" stroke-width="7" stroke-linejoin="round"></path><path d="M 247 144.64 L 266 132.88 M 244 164.24 L 268 154.44" stroke="#E8A93C" stroke-width="4.5" stroke-linecap="round"></path><path d="M 147.8 203.2 L 172 157 L 196.2 203.2 Z" fill="#FBF6EE" stroke="#FBF6EE" stroke-width="12.100000000000001" stroke-linejoin="round" transform="rotate(-10 172 190)"></path><path d="M 315.8 203.2 L 340 157 L 364.2 203.2 Z" fill="#FBF6EE" stroke="#FBF6EE" stroke-width="12.100000000000001" stroke-linejoin="round" transform="rotate(10 340 190)"></path><path d="M 198 190 Q 154 244 168 306" stroke="#F8B9C4" stroke-width="17" fill="none" stroke-linecap="round"></path><path d="M 218 184 Q 170 252 186 320" stroke="#FFD65C" stroke-width="17" fill="none" stroke-linecap="round"></path><path d="M 238 182 Q 190 260 206 330" stroke="#9EC1DB" stroke-width="17" fill="none" stroke-linecap="round"></path><path d="M 382 344 Q 420 362 418 404" stroke="#F8B9C4" stroke-width="16" fill="none" stroke-linecap="round"></path><path d="M 392 334 Q 438 352 438 398" stroke="#FFD65C" stroke-width="16" fill="none" stroke-linecap="round"></path><path d="M 400 322 Q 454 340 456 388" stroke="#9EC1DB" stroke-width="16" fill="none" stroke-linecap="round"></path><rect x="201" y="426" width="38" height="16" rx="8" fill="#EFDDE4"></rect><rect x="273" y="426" width="38" height="16" rx="8" fill="#EFDDE4"></rect><ellipse cx="256" cy="302" rx="142" ry="134" fill="#FBF6EE"></ellipse><path d="M 202 287 Q 216 265 230 287" stroke="#4A332A" stroke-width="11" fill="none" stroke-linecap="round"></path><path d="M 288 287 Q 302 265 316 287" stroke="#4A332A" stroke-width="11" fill="none" stroke-linecap="round"></path><ellipse cx="182" cy="312" rx="16" ry="11.2" fill="#F8C4CE"></ellipse><ellipse cx="334" cy="312" rx="16" ry="11.2" fill="#F8C4CE"></ellipse><ellipse cx="256" cy="318" rx="44" ry="27" fill="#F7E4EA"></ellipse><circle cx="241" cy="316" r="4" fill="#E0A9B8"></circle><circle cx="271" cy="316" r="4" fill="#E0A9B8"></circle><path d="M 244 334 Q 256 346 268 334" stroke="#4A332A" stroke-width="8" fill="none" stroke-linecap="round"></path><path d="M 104 135 Q 107.6 146.4 119 150 Q 107.6 153.6 104 165 Q 100.4 153.6 89 150 Q 100.4 146.4 104 135 Z" fill="#FFBD33"></path><path d="M 408 124 Q 411.84 136.16 424 140 Q 411.84 143.84 408 156 Q 404.16 143.84 392 140 Q 404.16 136.16 408 124 Z" fill="#FFBD33"></path><path d="M 88 236 Q 90.4 243.6 98 246 Q 90.4 248.4 88 256 Q 85.6 248.4 78 246 Q 85.6 243.6 88 236 Z" fill="#FFBD33"></path><path d="M 424 240 Q 426.4 247.6 434 250 Q 426.4 252.4 424 260 Q 421.6 252.4 414 250 Q 421.6 247.6 424 240 Z" fill="#FFBD33"></path></svg>