<svg xmlns="http://www.w3.org/2000/svg" width="512" height="512" viewBox="0 0 512 512"><ellipse cx="256" cy="434" rx="80" ry="12" fill="#5A3E2E" opacity="0.08"></ellipse><ellipse cx="138" cy="290" rx="20" ry="40" fill="#FBF8F2" stroke="#E3DACB" stroke-width="5" transform="rotate(28 138 290)"></ellipse><ellipse cx="374" cy="290" rx="20" ry="40" fill="#FBF8F2" stroke="#E3DACB" stroke-width="5" transform="rotate(-28 374 290)"></ellipse><path d="M 144 255.04000000000002 Q 144 152 256 152 Q 368 152 368 255.04000000000002 L 368 384 q -28 28 -56 0 q -28 28 -56 0 q -28 28 -56 0 q -28 28 -56 0 Z" fill="#FBF8F2" stroke="#E3DACB" stroke-width="5"></path><circle cx="222" cy="268" r="13" fill="#4A332A"></circle><circle cx="226.68" cy="263.32" r="4.16" fill="#FFF"></circle><circle cx="290" cy="268" r="13" fill="#4A332A"></circle><circle cx="294.68" cy="263.32" r="4.16" fill="#FFF"></circle><path d="M 244 302 Q 256 310.4 268 302" stroke="#4A332A" stroke-width="7" fill="none" stroke-linecap="round"></path><ellipse cx="192" cy="298" rx="12" ry="8.399999999999999" fill="#F8C4CE"></ellipse><ellipse cx="320" cy="298" rx="12" ry="8.399999999999999" fill="#F8C4CE"></ellipse></svg>