<svg xmlns="http://www.w3.org/2000/svg" width="512" height="512" viewBox="0 0 512 512"><ellipse cx="256" cy="438" rx="86" ry="12" fill="#5A3E2E" opacity="0.08"></ellipse><ellipse cx="128" cy="280" rx="21" ry="44" fill="#FBF8F2" stroke="#E3DACB" stroke-width="5" transform="rotate(30 128 280)"></ellipse><ellipse cx="384" cy="280" rx="21" ry="44" fill="#FBF8F2" stroke="#E3DACB" stroke-width="5" transform="rotate(-30 384 280)"></ellipse><path d="M 132 254.07999999999998 Q 132 140 256 140 Q 380 140 380 254.07999999999998 L 380 388 q -31 28 -62 0 q -31 28 -62 0 q -31 28 -62 0 q -31 28 -62 0 Z" fill="#FBF8F2" stroke="#E3DACB" stroke-width="5"></path><circle cx="218" cy="260" r="14" fill="#4A332A"></circle><circle cx="223.04" cy="254.96" r="4.48" fill="#FFF"></circle><circle cx="294" cy="260" r="14" fill="#4A332A"></circle><circle cx="299.04" cy="254.96" r="4.48" fill="#FFF"></circle><circle cx="256" cy="300" r="13" fill="#4A332A"></circle><path d="M 248 306 Q 256 316 264 306" stroke="#F58E82" stroke-width="8" fill="none" stroke-linecap="round"></path><ellipse cx="186" cy="294" rx="12" ry="8.399999999999999" fill="#F8C4CE"></ellipse><ellipse cx="326" cy="294" rx="12" ry="8.399999999999999" fill="#F8C4CE"></ellipse></svg>