<svg xmlns="http://www.w3.org/2000/svg" width="512" height="512" viewBox="0 0 512 512"><ellipse cx="256" cy="440" rx="90" ry="12" fill="#5A3E2E" opacity="0.08"></ellipse><ellipse cx="122" cy="252" rx="22" ry="48" fill="#FBF8F2" stroke="#E3DACB" stroke-width="5" transform="rotate(52 122 252)"></ellipse><ellipse cx="390" cy="252" rx="22" ry="48" fill="#FBF8F2" stroke="#E3DACB" stroke-width="5" transform="rotate(-52 390 252)"></ellipse><path d="M 124 253.44 Q 124 132 256 132 Q 388 132 388 253.44 L 388 390 q -26.4 28 -52.8 0 q -26.4 28 -52.8 0 q -26.4 28 -52.8 0 q -26.4 28 -52.8 0 q -26.4 28 -52.8 0 Z" fill="#FBF8F2" stroke="#E3DACB" stroke-width="5"></path><path d="M 201 263 Q 216 241 231 263" stroke="#4A332A" stroke-width="11" fill="none" stroke-linecap="round"></path><path d="M 281 263 Q 296 241 311 263" stroke="#4A332A" stroke-width="11" fill="none" stroke-linecap="round"></path><path d="M 242 296 Q 256 305.8 270 296" stroke="#4A332A" stroke-width="8" fill="none" stroke-linecap="round"></path><ellipse cx="182" cy="290" rx="13" ry="9.1" fill="#F8C4CE"></ellipse><ellipse cx="330" cy="290" rx="13" ry="9.1" fill="#F8C4CE"></ellipse></svg>