<svg xmlns="http://www.w3.org/2000/svg" width="512" height="512" viewBox="0 0 512 512"><ellipse cx="256" cy="440" rx="90" ry="12" fill="#5A3E2E" opacity="0.08"></ellipse><ellipse cx="122" cy="252" rx="22" ry="48" fill="#FBF8F2" stroke="#E3DACB" stroke-width="5" transform="rotate(52 122 252)"></ellipse><ellipse cx="390" cy="252" rx="22" ry="48" fill="#FBF8F2" stroke="#E3DACB" stroke-width="5" transform="rotate(-52 390 252)"></ellipse><path d="M 124 253.44 Q 124 132 256 132 Q 388 132 388 253.44 L 388 390 q -26.4 28 -52.8 0 q -26.4 28 -52.8 0 q -26.4 28 -52.8 0 q -26.4 28 -52.8 0 q -26.4 28 -52.8 0 Z" fill="#FBF8F2" stroke="#E3DACB" stroke-width="5"></path><path d="M 201 263 Q 216 241 231 263" stroke="#4A332A" stroke-width="11" fill="none" stroke-linecap="round"></path><path d="M 281 263 Q 296 241 311 263" stroke="#4A332A" stroke-width="11" fill="none" stroke-linecap="round"></path><path d="M 242 296 Q 256 305.8 270 296" stroke="#4A332A" stroke-width="8" fill="none" stroke-linecap="round"></path><ellipse cx="182" cy="290" rx="13" ry="9.1" fill="#F8C4CE"></ellipse><ellipse cx="330" cy="290" rx="13" ry="9.1" fill="#F8C4CE"></ellipse><path d="M 232 110 L 230.8 89.6 L 246.4 100.4 L 256 84.8 L 265.6 100.4 L 281.2 89.6 L 280 110 Q 256 116 232 110 Z" fill="#FFC531"></path><circle cx="256" cy="81.68" r="4.08" fill="#FFC531"></circle><path d="M 112 125 Q 115.6 136.4 127 140 Q 115.6 143.6 112 155 Q 108.4 143.6 97 140 Q 108.4 136.4 112 125 Z" fill="#FFBD33"></path><path d="M 400 100 Q 404.32 113.68 418 118 Q 404.32 122.32 400 136 Q 395.68 122.32 382 118 Q 395.68 113.68 400 100 Z" fill="#FFBD33"></path><path d="M 430 240 Q 432.4 247.6 440 250 Q 432.4 252.4 430 260 Q 427.6 252.4 420 250 Q 427.6 247.6 430 240 Z" fill="#FFBD33"></path><path d="M 84 222 Q 86.4 229.6 94 232 Q 86.4 234.4 84 242 Q 81.6 234.4 74 232 Q 81.6 229.6 84 222 Z" fill="#FFBD33"></path></svg>