<svg xmlns="http://www.w3.org/2000/svg" width="512" height="512" viewBox="0 0 512 512"><ellipse cx="256" cy="440" rx="112" ry="12" fill="#5A3E2E" opacity="0.11"></ellipse><circle cx="158.0" cy="408" r="20" fill="#F2A0AE"></circle><circle cx="186.0" cy="408" r="20" fill="#F2A0AE"></circle><circle cx="214.0" cy="408" r="20" fill="#F2A0AE"></circle><circle cx="242.0" cy="408" r="20" fill="#F2A0AE"></circle><circle cx="270.0" cy="408" r="20" fill="#F2A0AE"></circle><circle cx="298.0" cy="408" r="20" fill="#F2A0AE"></circle><circle cx="326.0" cy="408" r="20" fill="#F2A0AE"></circle><circle cx="354.0" cy="408" r="20" fill="#F2A0AE"></circle><ellipse cx="256" cy="300" rx="124" ry="112" fill="#F2A0AE"></ellipse><circle cx="196" cy="404" r="6" fill="#FBD9DE"></circle><circle cx="256" cy="410" r="6" fill="#FBD9DE"></circle><circle cx="316" cy="404" r="6" fill="#FBD9DE"></circle><circle cx="210" cy="282" r="14" fill="#4A332A"></circle><circle cx="215.04" cy="276.96" r="4.48" fill="#FFF"></circle><circle cx="302" cy="282" r="14" fill="#4A332A"></circle><circle cx="307.04" cy="276.96" r="4.48" fill="#FFF"></circle><path d="M 243 316 Q 256 325.1 269 316" stroke="#4A332A" stroke-width="7" fill="none" stroke-linecap="round"></path><ellipse cx="178" cy="312" rx="12" ry="8.399999999999999" fill="#E4869B"></ellipse><ellipse cx="334" cy="312" rx="12" ry="8.399999999999999" fill="#E4869B"></ellipse></svg>