<svg xmlns="http://www.w3.org/2000/svg" width="512" height="512" viewBox="0 0 512 512"><ellipse cx="256" cy="442" rx="116" ry="12" fill="#5A3E2E" opacity="0.11"></ellipse><path d="M 136 350 Q 106 372 108 404" stroke="#F2A0AE" stroke-width="30" fill="none" stroke-linecap="round"></path><path d="M 376 350 Q 406 372 404 404" stroke="#F2A0AE" stroke-width="30" fill="none" stroke-linecap="round"></path><circle cx="162.0" cy="412" r="21" fill="#F2A0AE"></circle><circle cx="188.9" cy="412" r="21" fill="#F2A0AE"></circle><circle cx="215.7" cy="412" r="21" fill="#F2A0AE"></circle><circle cx="242.6" cy="412" r="21" fill="#F2A0AE"></circle><circle cx="269.4" cy="412" r="21" fill="#F2A0AE"></circle><circle cx="296.3" cy="412" r="21" fill="#F2A0AE"></circle><circle cx="323.1" cy="412" r="21" fill="#F2A0AE"></circle><circle cx="350.0" cy="412" r="21" fill="#F2A0AE"></circle><ellipse cx="256" cy="298" rx="130" ry="118" fill="#F2A0AE"></ellipse><circle cx="200" cy="408" r="6" fill="#FBD9DE"></circle><circle cx="256" cy="414" r="6" fill="#FBD9DE"></circle><circle cx="312" cy="408" r="6" fill="#FBD9DE"></circle><circle cx="120" cy="396" r="5" fill="#FBD9DE"></circle><circle cx="392" cy="396" r="5" fill="#FBD9DE"></circle><circle cx="208" cy="280" r="14" fill="#4A332A"></circle><circle cx="213.04" cy="274.96" r="4.48" fill="#FFF"></circle><circle cx="304" cy="280" r="14" fill="#4A332A"></circle><circle cx="309.04" cy="274.96" r="4.48" fill="#FFF"></circle><path d="M 242 314 Q 256 323.8 270 314" stroke="#4A332A" stroke-width="8" fill="none" stroke-linecap="round"></path><ellipse cx="176" cy="310" rx="12" ry="8.399999999999999" fill="#E4869B"></ellipse><ellipse cx="336" cy="310" rx="12" ry="8.399999999999999" fill="#E4869B"></ellipse></svg>