<svg xmlns="http://www.w3.org/2000/svg" width="512" height="512" viewBox="0 0 512 512"><ellipse cx="256" cy="442" rx="116" ry="12" fill="#5A3E2E" opacity="0.11"></ellipse><path d="M 136 350 Q 106 372 108 404" stroke="#F2A0AE" stroke-width="30" fill="none" stroke-linecap="round"></path><path d="M 376 350 Q 406 372 404 404" stroke="#F2A0AE" stroke-width="30" fill="none" stroke-linecap="round"></path><circle cx="162.0" cy="412" r="21" fill="#F2A0AE"></circle><circle cx="188.9" cy="412" r="21" fill="#F2A0AE"></circle><circle cx="215.7" cy="412" r="21" fill="#F2A0AE"></circle><circle cx="242.6" cy="412" r="21" fill="#F2A0AE"></circle><circle cx="269.4" cy="412" r="21" fill="#F2A0AE"></circle><circle cx="296.3" cy="412" r="21" fill="#F2A0AE"></circle><circle cx="323.1" cy="412" r="21" fill="#F2A0AE"></circle><circle cx="350.0" cy="412" r="21" fill="#F2A0AE"></circle><ellipse cx="256" cy="298" rx="130" ry="118" fill="#F2A0AE"></ellipse><circle cx="200" cy="408" r="6" fill="#FBD9DE"></circle><circle cx="256" cy="414" r="6" fill="#FBD9DE"></circle><circle cx="312" cy="408" r="6" fill="#FBD9DE"></circle><path d="M 193 287 Q 208 265 223 287" stroke="#4A332A" stroke-width="11" fill="none" stroke-linecap="round"></path><path d="M 289 287 Q 304 265 319 287" stroke="#4A332A" stroke-width="11" fill="none" stroke-linecap="round"></path><path d="M 242 316 Q 256 325.8 270 316" stroke="#4A332A" stroke-width="8" fill="none" stroke-linecap="round"></path><ellipse cx="176" cy="310" rx="12" ry="8.399999999999999" fill="#E4869B"></ellipse><ellipse cx="336" cy="310" rx="12" ry="8.399999999999999" fill="#E4869B"></ellipse><path d="M 232 158 L 230.8 137.6 L 246.4 148.4 L 256 132.8 L 265.6 148.4 L 281.2 137.6 L 280 158 Q 256 164 232 158 Z" fill="#FFC531"></path><circle cx="256" cy="129.68" r="4.08" fill="#FFC531"></circle><path d="M 112 125 Q 115.6 136.4 127 140 Q 115.6 143.6 112 155 Q 108.4 143.6 97 140 Q 108.4 136.4 112 125 Z" fill="#FFBD33"></path><path d="M 400 100 Q 404.32 113.68 418 118 Q 404.32 122.32 400 136 Q 395.68 122.32 382 118 Q 395.68 113.68 400 100 Z" fill="#FFBD33"></path><path d="M 430 240 Q 432.4 247.6 440 250 Q 432.4 252.4 430 260 Q 427.6 252.4 420 250 Q 427.6 247.6 430 240 Z" fill="#FFBD33"></path><path d="M 84 222 Q 86.4 229.6 94 232 Q 86.4 234.4 84 242 Q 81.6 234.4 74 232 Q 81.6 229.6 84 222 Z" fill="#FFBD33"></path></svg>