<svg xmlns="http://www.w3.org/2000/svg" width="512" height="512" viewBox="0 0 512 512"><ellipse cx="256" cy="438" rx="112" ry="12" fill="#5A3E2E" opacity="0.12"></ellipse><g transform="rotate(-8 182 236)"><path d="M 163.4 245.92 L 182 209.96 L 200.6 245.92 Z" fill="#E9B587" stroke="#E9B587" stroke-width="8.68" stroke-linejoin="round"></path><path d="M 173.32 242.2 L 182 223.6 L 190.68 242.2 Z" fill="#FFAB8E"></path></g><g transform="rotate(8 330 236)"><path d="M 311.4 245.92 L 330 209.96 L 348.6 245.92 Z" fill="#E9B587" stroke="#E9B587" stroke-width="8.68" stroke-linejoin="round"></path><path d="M 321.32 242.2 L 330 223.6 L 338.68 242.2 Z" fill="#FFAB8E"></path></g><ellipse cx="256" cy="336" rx="148" ry="106" fill="#F6DFC4"></ellipse><path d="M 198 317 Q 214 335 230 317" stroke="#4A332A" stroke-width="11" fill="none" stroke-linecap="round"></path><path d="M 282 317 Q 298 335 314 317" stroke="#4A332A" stroke-width="11" fill="none" stroke-linecap="round"></path><ellipse cx="256" cy="344" rx="9" ry="7" fill="#F58E82"></ellipse><path d="M 244 360 Q 250 369 256 360 Q 262 369 268 360" stroke="#4A332A" stroke-width="7" fill="none" stroke-linecap="round"></path><ellipse cx="184" cy="350" rx="16" ry="11.2" fill="#FFAB8E"></ellipse><ellipse cx="328" cy="350" rx="16" ry="11.2" fill="#FFAB8E"></ellipse></svg>