<svg xmlns="http://www.w3.org/2000/svg" width="512" height="512" viewBox="0 0 512 512"><ellipse cx="256" cy="438" rx="112" ry="12" fill="#5A3E2E" opacity="0.12"></ellipse><g transform="rotate(-8 178 230)"><path d="M 154.6 242.48 L 178 197.24 L 201.4 242.48 Z" fill="#E9B587" stroke="#E9B587" stroke-width="10.92" stroke-linejoin="round"></path><path d="M 167.08 237.8 L 178 214.4 L 188.92 237.8 Z" fill="#FFAB8E"></path></g><g transform="rotate(8 334 230)"><path d="M 310.6 242.48 L 334 197.24 L 357.4 242.48 Z" fill="#E9B587" stroke="#E9B587" stroke-width="10.92" stroke-linejoin="round"></path><path d="M 323.08 237.8 L 334 214.4 L 344.92 237.8 Z" fill="#FFAB8E"></path></g><path d="M 388 366 Q 424 352 428 318" stroke="#E9B587" stroke-width="13" fill="none" stroke-linecap="round"></path><ellipse cx="256" cy="336" rx="148" ry="106" fill="#F6DFC4"></ellipse><circle cx="214" cy="318" r="14" fill="#4A332A"></circle><circle cx="219.04" cy="312.96" r="4.48" fill="#FFF"></circle><circle cx="298" cy="318" r="14" fill="#4A332A"></circle><circle cx="303.04" cy="312.96" r="4.48" fill="#FFF"></circle><ellipse cx="256" cy="340" rx="9" ry="7" fill="#F58E82"></ellipse><path d="M 244 356 Q 250 365 256 356 Q 262 365 268 356" stroke="#4A332A" stroke-width="7" fill="none" stroke-linecap="round"></path><ellipse cx="182" cy="348" rx="16" ry="11.2" fill="#FFAB8E"></ellipse><ellipse cx="330" cy="348" rx="16" ry="11.2" fill="#FFAB8E"></ellipse></svg>