<svg xmlns="http://www.w3.org/2000/svg" width="512" height="512" viewBox="0 0 512 512"><ellipse cx="256" cy="440" rx="110" ry="12" fill="#5A3E2E" opacity="0.12"></ellipse><g transform="rotate(-6 176 212)"><path d="M 149 226.4 L 176 174.2 L 203 226.4 Z" fill="#E9B587" stroke="#E9B587" stroke-width="12.6" stroke-linejoin="round"></path><path d="M 163.4 221 L 176 194 L 188.6 221 Z" fill="#FFAB8E"></path></g><g transform="rotate(6 336 212)"><path d="M 309 226.4 L 336 174.2 L 363 226.4 Z" fill="#E9B587" stroke="#E9B587" stroke-width="12.6" stroke-linejoin="round"></path><path d="M 323.4 221 L 336 194 L 348.6 221 Z" fill="#FFAB8E"></path></g><path d="M 382 352 Q 424 334 426 294" stroke="#E9B587" stroke-width="14" fill="none" stroke-linecap="round"></path><ellipse cx="256" cy="318" rx="134" ry="124" fill="#F6DFC4"></ellipse><circle cx="210" cy="296" r="14" fill="#4A332A"></circle><circle cx="215.04" cy="290.96" r="4.48" fill="#FFF"></circle><circle cx="302" cy="296" r="14" fill="#4A332A"></circle><circle cx="307.04" cy="290.96" r="4.48" fill="#FFF"></circle><ellipse cx="256" cy="322" rx="9" ry="7" fill="#F58E82"></ellipse><path d="M 244 340 Q 250 349 256 340 Q 262 349 268 340" stroke="#4A332A" stroke-width="7" fill="none" stroke-linecap="round"></path><ellipse cx="178" cy="330" rx="16" ry="11.2" fill="#FFAB8E"></ellipse><ellipse cx="334" cy="330" rx="16" ry="11.2" fill="#FFAB8E"></ellipse></svg>