<svg xmlns="http://www.w3.org/2000/svg" width="512" height="512" viewBox="0 0 512 512"><ellipse cx="256" cy="442" rx="112" ry="12" fill="#5A3E2E" opacity="0.12"></ellipse><g transform="rotate(-6 172 204)"><path d="M 142 220 L 172 162 L 202 220 Z" fill="#E9B587" stroke="#E9B587" stroke-width="14" stroke-linejoin="round"></path><path d="M 158 214 L 172 184 L 186 214 Z" fill="#FFAB8E"></path></g><g transform="rotate(6 340 204)"><path d="M 310 220 L 340 162 L 370 220 Z" fill="#E9B587" stroke="#E9B587" stroke-width="14" stroke-linejoin="round"></path><path d="M 326 214 L 340 184 L 354 214 Z" fill="#FFAB8E"></path></g><path d="M 380 344 Q 426 322 426 278" stroke="#E9B587" stroke-width="15" fill="none" stroke-linecap="round"></path><rect x="205" y="414" width="38" height="16" rx="8" fill="#E9B587"></rect><rect x="269" y="414" width="38" height="16" rx="8" fill="#E9B587"></rect><ellipse cx="256" cy="310" rx="130" ry="128" fill="#F6DFC4"></ellipse><path d="M 118 316 L 162 310" stroke="#4A332A" stroke-width="5" stroke-linecap="round"></path><path d="M 122 338 L 164 328" stroke="#4A332A" stroke-width="5" stroke-linecap="round"></path><path d="M 394 316 L 350 310" stroke="#4A332A" stroke-width="5" stroke-linecap="round"></path><path d="M 390 338 L 348 328" stroke="#4A332A" stroke-width="5" stroke-linecap="round"></path><circle cx="210" cy="290" r="14" fill="#4A332A"></circle><circle cx="215.04" cy="284.96" r="4.48" fill="#FFF"></circle><circle cx="302" cy="290" r="14" fill="#4A332A"></circle><circle cx="307.04" cy="284.96" r="4.48" fill="#FFF"></circle><ellipse cx="256" cy="316" rx="9" ry="7" fill="#F58E82"></ellipse><path d="M 244 334 Q 250 343 256 334 Q 262 343 268 334" stroke="#4A332A" stroke-width="7" fill="none" stroke-linecap="round"></path><ellipse cx="178" cy="324" rx="16" ry="11.2" fill="#FFAB8E"></ellipse><ellipse cx="334" cy="324" rx="16" ry="11.2" fill="#FFAB8E"></ellipse></svg>