<svg xmlns="http://www.w3.org/2000/svg" width="512" height="512" viewBox="0 0 512 512"><ellipse cx="256" cy="444" rx="114" ry="12" fill="#5A3E2E" opacity="0.12"></ellipse><g transform="rotate(-6 168 196)"><path d="M 136.5 212.8 L 168 151.9 L 199.5 212.8 Z" fill="#E9B587" stroke="#E9B587" stroke-width="14.700000000000001" stroke-linejoin="round"></path><path d="M 153.3 206.5 L 168 175 L 182.7 206.5 Z" fill="#FFAB8E"></path></g><g transform="rotate(6 344 196)"><path d="M 312.5 212.8 L 344 151.9 L 375.5 212.8 Z" fill="#E9B587" stroke="#E9B587" stroke-width="14.700000000000001" stroke-linejoin="round"></path><path d="M 329.3 206.5 L 344 175 L 358.7 206.5 Z" fill="#FFAB8E"></path></g><path d="M 382 336 Q 430 310 428 262" stroke="#E9B587" stroke-width="16" fill="none" stroke-linecap="round"></path><rect x="203" y="422" width="38" height="16" rx="8" fill="#E9B587"></rect><rect x="271" y="422" width="38" height="16" rx="8" fill="#E9B587"></rect><ellipse cx="256" cy="306" rx="134" ry="134" fill="#F6DFC4"></ellipse><rect x="222" y="196" width="11" height="32" rx="5.5" fill="#E8A55F" transform="rotate(-8 227 212)"></rect><rect x="250" y="188" width="11" height="38" rx="5.5" fill="#E8A55F"></rect><rect x="279" y="196" width="11" height="32" rx="5.5" fill="#E8A55F" transform="rotate(8 284 212)"></rect><path d="M 118 312 L 162 306" stroke="#4A332A" stroke-width="5" stroke-linecap="round"></path><path d="M 122 334 L 164 324" stroke="#4A332A" stroke-width="5" stroke-linecap="round"></path><path d="M 394 312 L 350 306" stroke="#4A332A" stroke-width="5" stroke-linecap="round"></path><path d="M 390 334 L 348 324" stroke="#4A332A" stroke-width="5" stroke-linecap="round"></path><path d="M 193 293 Q 210 271 227 293" stroke="#4A332A" stroke-width="11" fill="none" stroke-linecap="round"></path><path d="M 285 293 Q 302 271 319 293" stroke="#4A332A" stroke-width="11" fill="none" stroke-linecap="round"></path><ellipse cx="256" cy="312" rx="9" ry="7" fill="#F58E82"></ellipse><path d="M 244 330 Q 250 339 256 330 Q 262 339 268 330" stroke="#4A332A" stroke-width="7" fill="none" stroke-linecap="round"></path><ellipse cx="176" cy="320" rx="16" ry="11.2" fill="#FFAB8E"></ellipse><ellipse cx="336" cy="320" rx="16" ry="11.2" fill="#FFAB8E"></ellipse></svg>