<svg xmlns="http://www.w3.org/2000/svg" width="512" height="512" viewBox="0 0 512 512"><ellipse cx="256" cy="446" rx="116" ry="12" fill="#5A3E2E" opacity="0.12"></ellipse><g transform="rotate(-6 164 178)"><path d="M 131 195.6 L 164 131.8 L 197 195.6 Z" fill="#E9B587" stroke="#E9B587" stroke-width="15.400000000000002" stroke-linejoin="round"></path><path d="M 148.6 189 L 164 156 L 179.4 189 Z" fill="#FFAB8E"></path></g><g transform="rotate(6 348 178)"><path d="M 315 195.6 L 348 131.8 L 381 195.6 Z" fill="#E9B587" stroke="#E9B587" stroke-width="15.400000000000002" stroke-linejoin="round"></path><path d="M 332.6 189 L 348 156 L 363.4 189 Z" fill="#FFAB8E"></path></g><path d="M 380 320 Q 436 288 430 232" stroke="#E9B587" stroke-width="17" fill="none" stroke-linecap="round"></path><rect x="201" y="428" width="38" height="16" rx="8" fill="#E9B587"></rect><rect x="273" y="428" width="38" height="16" rx="8" fill="#E9B587"></rect><ellipse cx="256" cy="296" rx="138" ry="146" fill="#F6DFC4"></ellipse><rect x="222" y="180" width="11" height="32" rx="5.5" fill="#E8A55F" transform="rotate(-8 227 196)"></rect><rect x="250" y="172" width="11" height="38" rx="5.5" fill="#E8A55F"></rect><rect x="279" y="180" width="11" height="32" rx="5.5" fill="#E8A55F" transform="rotate(8 284 196)"></rect><rect x="136" y="322" width="34" height="11" rx="5.5" fill="#E8A55F"></rect><rect x="132" y="346" width="30" height="11" rx="5.5" fill="#E8A55F"></rect><rect x="342" y="322" width="34" height="11" rx="5.5" fill="#E8A55F"></rect><rect x="350" y="346" width="30" height="11" rx="5.5" fill="#E8A55F"></rect><path d="M 118 304 L 162 298" stroke="#4A332A" stroke-width="5" stroke-linecap="round"></path><path d="M 122 326 L 164 316" stroke="#4A332A" stroke-width="5" stroke-linecap="round"></path><path d="M 394 304 L 350 298" stroke="#4A332A" stroke-width="5" stroke-linecap="round"></path><path d="M 390 326 L 348 316" stroke="#4A332A" stroke-width="5" stroke-linecap="round"></path><circle cx="210" cy="276" r="14" fill="#4A332A"></circle><circle cx="215.04" cy="270.96" r="4.48" fill="#FFF"></circle><circle cx="302" cy="276" r="14" fill="#4A332A"></circle><circle cx="307.04" cy="270.96" r="4.48" fill="#FFF"></circle><ellipse cx="256" cy="304" rx="9" ry="7" fill="#F58E82"></ellipse><path d="M 244 322 Q 250 331 256 322 Q 262 331 268 322" stroke="#4A332A" stroke-width="7" fill="none" stroke-linecap="round"></path><ellipse cx="176" cy="312" rx="16" ry="11.2" fill="#FFAB8E"></ellipse><ellipse cx="336" cy="312" rx="16" ry="11.2" fill="#FFAB8E"></ellipse></svg>