<svg xmlns="http://www.w3.org/2000/svg" width="512" height="512" viewBox="0 0 512 512"><ellipse cx="256" cy="446" rx="116" ry="12" fill="#5A3E2E" opacity="0.12"></ellipse><g transform="rotate(-6 164 178)"><path d="M 131 195.6 L 164 131.8 L 197 195.6 Z" fill="#E9B587" stroke="#E9B587" stroke-width="15.400000000000002" stroke-linejoin="round"></path><path d="M 148.6 189 L 164 156 L 179.4 189 Z" fill="#FFAB8E"></path></g><g transform="rotate(6 348 178)"><path d="M 315 195.6 L 348 131.8 L 381 195.6 Z" fill="#E9B587" stroke="#E9B587" stroke-width="15.400000000000002" stroke-linejoin="round"></path><path d="M 332.6 189 L 348 156 L 363.4 189 Z" fill="#FFAB8E"></path></g><path d="M 380 320 Q 436 288 430 232" stroke="#E9B587" stroke-width="17" fill="none" stroke-linecap="round"></path><rect x="201" y="428" width="38" height="16" rx="8" fill="#E9B587"></rect><rect x="273" y="428" width="38" height="16" rx="8" fill="#E9B587"></rect><ellipse cx="256" cy="296" rx="138" ry="146" fill="#F6DFC4"></ellipse><rect x="222" y="180" width="11" height="32" rx="5.5" fill="#E8A55F" transform="rotate(-8 227 196)"></rect><rect x="250" y="172" width="11" height="38" rx="5.5" fill="#E8A55F"></rect><rect x="279" y="180" width="11" height="32" rx="5.5" fill="#E8A55F" transform="rotate(8 284 196)"></rect><path d="M 118 304 L 162 298" stroke="#4A332A" stroke-width="5" stroke-linecap="round"></path><path d="M 122 326 L 164 316" stroke="#4A332A" stroke-width="5" stroke-linecap="round"></path><path d="M 394 304 L 350 298" stroke="#4A332A" stroke-width="5" stroke-linecap="round"></path><path d="M 390 326 L 348 316" stroke="#4A332A" stroke-width="5" stroke-linecap="round"></path><path d="M 193 283 Q 210 261 227 283" stroke="#4A332A" stroke-width="11" fill="none" stroke-linecap="round"></path><path d="M 285 283 Q 302 261 319 283" stroke="#4A332A" stroke-width="11" fill="none" stroke-linecap="round"></path><ellipse cx="256" cy="304" rx="9" ry="7" fill="#F58E82"></ellipse><path d="M 244 322 Q 250 331 256 322 Q 262 331 268 322" stroke="#4A332A" stroke-width="7" fill="none" stroke-linecap="round"></path><ellipse cx="176" cy="312" rx="16" ry="11.2" fill="#FFAB8E"></ellipse><ellipse cx="336" cy="312" rx="16" ry="11.2" fill="#FFAB8E"></ellipse><path d="M 231 132 L 229.75 110.75 L 246 122 L 256 105.75 L 266 122 L 282.25 110.75 L 281 132 Q 256 138.25 231 132 Z" fill="#FFC531"></path><circle cx="256" cy="102.5" r="4.25" fill="#FFC531"></circle><path d="M 112 125 Q 115.6 136.4 127 140 Q 115.6 143.6 112 155 Q 108.4 143.6 97 140 Q 108.4 136.4 112 125 Z" fill="#FFBD33"></path><path d="M 400 100 Q 404.32 113.68 418 118 Q 404.32 122.32 400 136 Q 395.68 122.32 382 118 Q 395.68 113.68 400 100 Z" fill="#FFBD33"></path><path d="M 430 240 Q 432.4 247.6 440 250 Q 432.4 252.4 430 260 Q 427.6 252.4 420 250 Q 427.6 247.6 430 240 Z" fill="#FFBD33"></path><path d="M 84 222 Q 86.4 229.6 94 232 Q 86.4 234.4 84 242 Q 81.6 234.4 74 232 Q 81.6 229.6 84 222 Z" fill="#FFBD33"></path></svg>