<svg xmlns="http://www.w3.org/2000/svg" width="512" height="512" viewBox="0 0 512 512"><ellipse cx="256" cy="440" rx="86" ry="12" fill="#5A3E2E" opacity="0.1"></ellipse><path d="M 194.5084745762712 352 L 200 424 Q 256 442 312 424 L 317.49152542372883 352 Q 256 368 194.5084745762712 352 Z" fill="#E3C09A"></path><path d="M 182 188 L 200 424 Q 256 442 312 424 L 330 188" fill="#FFF8EE" fill-opacity="0.45" stroke="#C9A97E" stroke-width="7" stroke-linejoin="round"></path><ellipse cx="256" cy="188" rx="74" ry="15" fill="none" stroke="#C9A97E" stroke-width="7"></ellipse><circle cx="222" cy="298" r="12" fill="#4A332A"></circle><circle cx="226.32" cy="293.68" r="3.84" fill="#FFF"></circle><circle cx="290" cy="298" r="12" fill="#4A332A"></circle><circle cx="294.32" cy="293.68" r="3.84" fill="#FFF"></circle><path d="M 244 320 Q 256 327.92 268 320" stroke="#4A332A" stroke-width="7" fill="none" stroke-linecap="round"></path><ellipse cx="204" cy="326" rx="11" ry="7.699999999999999" fill="#FFAB8E"></ellipse><ellipse cx="308" cy="326" rx="11" ry="7.699999999999999" fill="#FFAB8E"></ellipse></svg>