<svg xmlns="http://www.w3.org/2000/svg" width="512" height="512" viewBox="0 0 512 512"><ellipse cx="256" cy="440" rx="86" ry="12" fill="#5A3E2E" opacity="0.1"></ellipse><path d="M 190.54237288135593 300 L 200 424 Q 256 442 312 424 L 321.45762711864404 300 Q 256 316 190.54237288135593 300 Z" fill="#E3C09A"></path><circle cx="226" cy="404" r="11" fill="#5A3E2E"></circle><circle cx="229.5" cy="400.5" r="3" fill="#8A6248"></circle><circle cx="256" cy="410" r="11" fill="#5A3E2E"></circle><circle cx="259.5" cy="406.5" r="3" fill="#8A6248"></circle><circle cx="286" cy="404" r="11" fill="#5A3E2E"></circle><circle cx="289.5" cy="400.5" r="3" fill="#8A6248"></circle><circle cx="241" cy="382" r="11" fill="#5A3E2E"></circle><circle cx="244.5" cy="378.5" r="3" fill="#8A6248"></circle><path d="M 182 188 L 200 424 Q 256 442 312 424 L 330 188" fill="#FFF8EE" fill-opacity="0.45" stroke="#C9A97E" stroke-width="7" stroke-linejoin="round"></path><ellipse cx="256" cy="188" rx="74" ry="15" fill="none" stroke="#C9A97E" stroke-width="7"></ellipse><circle cx="222" cy="290" r="12" fill="#4A332A"></circle><circle cx="226.32" cy="285.68" r="3.84" fill="#FFF"></circle><circle cx="290" cy="290" r="12" fill="#4A332A"></circle><circle cx="294.32" cy="285.68" r="3.84" fill="#FFF"></circle><path d="M 243 314 Q 256 322.58 269 314" stroke="#4A332A" stroke-width="7" fill="none" stroke-linecap="round"></path><ellipse cx="204" cy="320" rx="11" ry="7.699999999999999" fill="#FFAB8E"></ellipse><ellipse cx="308" cy="320" rx="11" ry="7.699999999999999" fill="#FFAB8E"></ellipse></svg>