<svg xmlns="http://www.w3.org/2000/svg" width="512" height="512" viewBox="0 0 512 512"><ellipse cx="256" cy="440" rx="86" ry="12" fill="#5A3E2E" opacity="0.1"></ellipse><rect x="288" y="52" width="26" height="150" rx="13" fill="#F49BB0" transform="rotate(12 301 127)"></rect><path d="M 185.35593220338984 232 L 200 424 Q 256 442 312 424 L 326.64406779661016 232 Q 256 248 185.35593220338984 232 Z" fill="#E3C09A"></path><circle cx="226" cy="404" r="11" fill="#5A3E2E"></circle><circle cx="229.5" cy="400.5" r="3" fill="#8A6248"></circle><circle cx="256" cy="410" r="11" fill="#5A3E2E"></circle><circle cx="259.5" cy="406.5" r="3" fill="#8A6248"></circle><circle cx="286" cy="404" r="11" fill="#5A3E2E"></circle><circle cx="289.5" cy="400.5" r="3" fill="#8A6248"></circle><circle cx="241" cy="382" r="11" fill="#5A3E2E"></circle><circle cx="244.5" cy="378.5" r="3" fill="#8A6248"></circle><circle cx="271" cy="382" r="11" fill="#5A3E2E"></circle><circle cx="274.5" cy="378.5" r="3" fill="#8A6248"></circle><circle cx="256" cy="358" r="11" fill="#5A3E2E"></circle><circle cx="259.5" cy="354.5" r="3" fill="#8A6248"></circle><path d="M 182 188 L 200 424 Q 256 442 312 424 L 330 188" fill="#FFF8EE" fill-opacity="0.45" stroke="#C9A97E" stroke-width="7" stroke-linejoin="round"></path><ellipse cx="256" cy="188" rx="74" ry="15" fill="none" stroke="#C9A97E" stroke-width="7"></ellipse><ellipse cx="256" cy="187" rx="74" ry="14" fill="#F7E6CE"></ellipse><circle cx="216" cy="172" r="22" fill="#F7E6CE"></circle><circle cx="256" cy="162" r="26" fill="#F7E6CE"></circle><circle cx="296" cy="172" r="22" fill="#F7E6CE"></circle><path d="M 209 295 Q 222 273 235 295" stroke="#4A332A" stroke-width="11" fill="none" stroke-linecap="round"></path><path d="M 277 295 Q 290 273 303 295" stroke="#4A332A" stroke-width="11" fill="none" stroke-linecap="round"></path><path d="M 236 310 Q 256 328 276 310" stroke="#4A332A" stroke-width="8" fill="none" stroke-linecap="round"></path><ellipse cx="202" cy="320" rx="12" ry="8.399999999999999" fill="#FFAB8E"></ellipse><ellipse cx="310" cy="320" rx="12" ry="8.399999999999999" fill="#FFAB8E"></ellipse></svg>