<svg xmlns="http://www.w3.org/2000/svg" width="512" height="512" viewBox="0 0 512 512"><ellipse cx="256" cy="440" rx="86" ry="12" fill="#5A3E2E" opacity="0.1"></ellipse><rect x="288" y="52" width="26" height="150" rx="13" fill="#F49BB0" transform="rotate(12 301 127)"></rect><path d="M 185.35593220338984 232 L 200 424 Q 256 442 312 424 L 326.64406779661016 232 Q 256 248 185.35593220338984 232 Z" fill="#E3C09A"></path><circle cx="226" cy="404" r="11" fill="#5A3E2E"></circle><circle cx="229.5" cy="400.5" r="3" fill="#8A6248"></circle><circle cx="256" cy="410" r="11" fill="#5A3E2E"></circle><circle cx="259.5" cy="406.5" r="3" fill="#8A6248"></circle><circle cx="286" cy="404" r="11" fill="#5A3E2E"></circle><circle cx="289.5" cy="400.5" r="3" fill="#8A6248"></circle><circle cx="241" cy="382" r="11" fill="#5A3E2E"></circle><circle cx="244.5" cy="378.5" r="3" fill="#8A6248"></circle><circle cx="271" cy="382" r="11" fill="#5A3E2E"></circle><circle cx="274.5" cy="378.5" r="3" fill="#8A6248"></circle><circle cx="256" cy="358" r="11" fill="#5A3E2E"></circle><circle cx="259.5" cy="354.5" r="3" fill="#8A6248"></circle><path d="M 182 188 L 200 424 Q 256 442 312 424 L 330 188" fill="#FFF8EE" fill-opacity="0.45" stroke="#C9A97E" stroke-width="7" stroke-linejoin="round"></path><ellipse cx="256" cy="188" rx="74" ry="15" fill="none" stroke="#C9A97E" stroke-width="7"></ellipse><ellipse cx="256" cy="187" rx="74" ry="14" fill="#F7E6CE"></ellipse><circle cx="216" cy="172" r="22" fill="#F7E6CE"></circle><circle cx="256" cy="162" r="26" fill="#F7E6CE"></circle><circle cx="296" cy="172" r="22" fill="#F7E6CE"></circle><path d="M 209 295 Q 222 273 235 295" stroke="#4A332A" stroke-width="11" fill="none" stroke-linecap="round"></path><path d="M 277 295 Q 290 273 303 295" stroke="#4A332A" stroke-width="11" fill="none" stroke-linecap="round"></path><path d="M 236 310 Q 256 328 276 310" stroke="#4A332A" stroke-width="8" fill="none" stroke-linecap="round"></path><ellipse cx="202" cy="320" rx="12" ry="8.399999999999999" fill="#FFAB8E"></ellipse><ellipse cx="310" cy="320" rx="12" ry="8.399999999999999" fill="#FFAB8E"></ellipse><path d="M 208 120 L 206.9 101.3 L 221.2 111.2 L 230 96.9 L 238.8 111.2 L 253.1 101.3 L 252 120 Q 230 125.5 208 120 Z" fill="#FFC531"></path><circle cx="230" cy="94.04" r="3.74" fill="#FFC531"></circle><path d="M 112 125 Q 115.6 136.4 127 140 Q 115.6 143.6 112 155 Q 108.4 143.6 97 140 Q 108.4 136.4 112 125 Z" fill="#FFBD33"></path><path d="M 400 100 Q 404.32 113.68 418 118 Q 404.32 122.32 400 136 Q 395.68 122.32 382 118 Q 395.68 113.68 400 100 Z" fill="#FFBD33"></path><path d="M 430 240 Q 432.4 247.6 440 250 Q 432.4 252.4 430 260 Q 427.6 252.4 420 250 Q 427.6 247.6 430 240 Z" fill="#FFBD33"></path><path d="M 84 222 Q 86.4 229.6 94 232 Q 86.4 234.4 84 242 Q 81.6 234.4 74 232 Q 81.6 229.6 84 222 Z" fill="#FFBD33"></path></svg>